%TF.GenerationSoftware,KiCad,Pcbnew,10.0.5*%
%TF.CreationDate,2026-08-07T14:27:00+01:00*%
%TF.ProjectId,shield,73686965-6c64-42e6-9b69-6361645f7063,1.0*%
%TF.SameCoordinates,Original*%
%TF.FileFunction,Copper,L2,Inr*%
%TF.FilePolarity,Positive*%
%FSLAX46Y46*%
G04 Gerber Fmt 4.6, Leading zero omitted, Abs format (unit mm)*
G04 Created by KiCad (PCBNEW 10.0.5) date 2026-08-07 14:27:00*
%MOMM*%
%LPD*%
G01*
G04 APERTURE LIST*
G04 Aperture macros list*
%AMRoundRect*
0 Rectangle with rounded corners*
0 $1 Rounding radius*
0 $2 $3 $4 $5 $6 $7 $8 $9 X,Y pos of 4 corners*
0 Add a 4 corners polygon primitive as box body*
4,1,4,$2,$3,$4,$5,$6,$7,$8,$9,$2,$3,0*
0 Add four circle primitives for the rounded corners*
1,1,$1+$1,$2,$3*
1,1,$1+$1,$4,$5*
1,1,$1+$1,$6,$7*
1,1,$1+$1,$8,$9*
0 Add four rect primitives between the rounded corners*
20,1,$1+$1,$2,$3,$4,$5,0*
20,1,$1+$1,$4,$5,$6,$7,0*
20,1,$1+$1,$6,$7,$8,$9,0*
20,1,$1+$1,$8,$9,$2,$3,0*%
G04 Aperture macros list end*
%TA.AperFunction,ComponentPad*%
%ADD10R,1.350000X1.350000*%
%TD*%
%TA.AperFunction,ComponentPad*%
%ADD11C,1.350000*%
%TD*%
%TA.AperFunction,ComponentPad*%
%ADD12C,1.422000*%
%TD*%
%TA.AperFunction,ComponentPad*%
%ADD13R,2.000000X0.900000*%
%TD*%
%TA.AperFunction,ComponentPad*%
%ADD14RoundRect,1.025000X1.025000X-1.025000X1.025000X1.025000X-1.025000X1.025000X-1.025000X-1.025000X0*%
%TD*%
%TA.AperFunction,ComponentPad*%
%ADD15C,4.100000*%
%TD*%
%TA.AperFunction,ViaPad*%
%ADD16C,0.300000*%
%TD*%
%TA.AperFunction,ViaPad*%
%ADD17C,0.600000*%
%TD*%
G04 APERTURE END LIST*
D10*
%TO.N,/AUX2*%
%TO.C,J7*%
X169672000Y-73343000D03*
D11*
%TO.N,/AUX1*%
X169672000Y-75343000D03*
%TO.N,/B*%
X169672000Y-77343000D03*
%TO.N,/A*%
X169672000Y-79343000D03*
%TO.N,GND*%
X169672000Y-81343000D03*
%TO.N,Net-(J7-Pin_6)*%
X169672000Y-83343000D03*
%TD*%
D12*
%TO.N,/USB_HUB_RST*%
%TO.C,U7*%
X152399990Y-68580010D03*
%TO.N,/USB_PWR_SHDN*%
X154939990Y-68580010D03*
%TO.N,unconnected-(U7-~D5-Pad13)*%
X157479990Y-68580010D03*
%TO.N,unconnected-(U7-D4-Pad14)*%
X160019990Y-68580010D03*
%TO.N,unconnected-(U7-~D3-Pad15)*%
X162559990Y-68580010D03*
%TO.N,/RS485 TxRx/\u00ACRESET*%
X165099990Y-68580010D03*
%TO.N,/RS485 TxRx/D*%
X167639990Y-68580010D03*
%TO.N,/RS485 TxRx/R*%
X170179990Y-68580010D03*
%TD*%
%TO.N,unconnected-(U6-SCL-Pad1)*%
%TO.C,U6*%
X125476000Y-68580000D03*
%TO.N,unconnected-(U6-SDA-Pad2)*%
X128016000Y-68580000D03*
%TO.N,unconnected-(U6-AREF-Pad3)*%
X130556000Y-68580000D03*
%TO.N,unconnected-(U6-GND-Pad4)*%
X133096000Y-68580000D03*
%TO.N,unconnected-(U6-D13{slash}SCK{slash}CANRX0-Pad5)*%
X135636000Y-68580000D03*
%TO.N,unconnected-(U6-D12{slash}CIPO-Pad6)*%
X138176000Y-68580000D03*
%TO.N,unconnected-(U6-~D11{slash}COPI-Pad7)*%
X140716000Y-68580000D03*
%TO.N,unconnected-(U6-~D10{slash}CS{slash}CANTX0-Pad8)*%
X143256000Y-68580000D03*
%TO.N,unconnected-(U6-~D9-Pad9)*%
X145796000Y-68580000D03*
%TO.N,unconnected-(U6-D8-Pad10)*%
X148336000Y-68580000D03*
%TD*%
%TO.N,/I_SENSE*%
%TO.C,U3*%
X157480000Y-116840000D03*
%TO.N,/T_SENSE*%
X160020000Y-116840000D03*
%TO.N,unconnected-(U3-A2-Pad11)*%
X162560000Y-116840000D03*
%TO.N,unconnected-(U3-A3-Pad12)*%
X165100000Y-116840000D03*
%TO.N,unconnected-(U3-A4-Pad13)*%
X167640000Y-116840000D03*
%TO.N,unconnected-(U3-A5-Pad14)*%
X170180000Y-116840000D03*
%TD*%
%TO.N,unconnected-(U2-BOOT-Pad1)*%
%TO.C,U2*%
X134620000Y-116840000D03*
%TO.N,unconnected-(U2-IOREF-Pad2)*%
X137160000Y-116840000D03*
%TO.N,unconnected-(U2-Reset-Pad3)*%
X139700000Y-116840000D03*
%TO.N,+3.3V*%
X142240000Y-116840000D03*
%TO.N,unconnected-(U2-+5V-Pad5)*%
X144780000Y-116840000D03*
%TO.N,GND*%
X147320000Y-116840000D03*
X149860000Y-116840000D03*
%TO.N,VBATT*%
X152400000Y-116840000D03*
%TD*%
D13*
%TO.N,*%
%TO.C,J2*%
X108473000Y-109112000D03*
X108473000Y-95612000D03*
D14*
%TO.N,Net-(J2-Pin_1)*%
X114473000Y-98762000D03*
D15*
%TO.N,GND*%
X114473000Y-105962000D03*
%TD*%
D16*
%TO.N,Net-(U1-OUT)*%
X151511000Y-113411000D03*
X155700368Y-113106973D03*
D17*
%TO.N,GND*%
X126000000Y-78000000D03*
X159000000Y-75000000D03*
X138000000Y-111000000D03*
X142621000Y-71882000D03*
X144000000Y-111000000D03*
D16*
X161417000Y-88646000D03*
D17*
X126000000Y-117000000D03*
X117000000Y-72000000D03*
X129769939Y-78935391D03*
X120000000Y-75000000D03*
X117000000Y-78000000D03*
D16*
X136071311Y-79589854D03*
D17*
X132000000Y-111000000D03*
X108000000Y-93000000D03*
X162000000Y-114000000D03*
X108000000Y-69000000D03*
X129000000Y-105000000D03*
X120000000Y-93000000D03*
X163764677Y-74600531D03*
X108000000Y-102000000D03*
D16*
X154305000Y-91511000D03*
D17*
X129000000Y-87000000D03*
X117000000Y-87000000D03*
D16*
X149225000Y-85979000D03*
D17*
X120000000Y-84000000D03*
X129000000Y-111000000D03*
X135000000Y-108000000D03*
X171000000Y-93000000D03*
X132000000Y-96000000D03*
X111000000Y-108000000D03*
X135000000Y-99000000D03*
X130606121Y-78934353D03*
X166737782Y-74600531D03*
X150000000Y-108000000D03*
X165000000Y-84000000D03*
X108000000Y-111000000D03*
X163788257Y-109924463D03*
D16*
X144741985Y-96416566D03*
D17*
X140081000Y-80010000D03*
X126000000Y-111000000D03*
D16*
X151765000Y-106172000D03*
D17*
X114000000Y-102000000D03*
X129000000Y-84000000D03*
D16*
X155702000Y-114173000D03*
D17*
X108000000Y-72000000D03*
D16*
X130814232Y-73890965D03*
D17*
X111000000Y-93000000D03*
X144000000Y-93000000D03*
X108000000Y-75000000D03*
X117000000Y-84000000D03*
X142473642Y-74544489D03*
X136383310Y-71795887D03*
X150000000Y-69000000D03*
X108000000Y-99000000D03*
X135000000Y-102000000D03*
X120000000Y-87000000D03*
X114000000Y-69000000D03*
X156000000Y-90000000D03*
X152781000Y-83947000D03*
X159000000Y-90000000D03*
X138582214Y-77808435D03*
X165608000Y-80772000D03*
X131326263Y-89769717D03*
X156000000Y-78000000D03*
X138000000Y-108000000D03*
X167767000Y-89914962D03*
X132000000Y-93000000D03*
D16*
X163742183Y-88336037D03*
D17*
X117000000Y-69000000D03*
X171000000Y-105000000D03*
D16*
X144724000Y-100457000D03*
D17*
X144000000Y-90000000D03*
X168000000Y-96000000D03*
X111000000Y-102000000D03*
X111000000Y-105000000D03*
X123000000Y-102000000D03*
X120000000Y-78000000D03*
D16*
X157480000Y-111887000D03*
D17*
X167894000Y-107315000D03*
X140357272Y-74543451D03*
X132000000Y-117000000D03*
X154051000Y-96520000D03*
D16*
X147289377Y-75762265D03*
D17*
X132000000Y-108000000D03*
X117000000Y-96000000D03*
X108000000Y-90000000D03*
X129000000Y-72000000D03*
X111000000Y-69000000D03*
X142494000Y-82550000D03*
X135000000Y-96000000D03*
X130605375Y-79690797D03*
X162000000Y-96000000D03*
D16*
X148590000Y-72644000D03*
D17*
X164444046Y-89022462D03*
X115060981Y-85098247D03*
X171000000Y-108000000D03*
X168000000Y-114000000D03*
D16*
X144724000Y-97409000D03*
D17*
X167767000Y-92964000D03*
X153000000Y-108000000D03*
X136346189Y-82518027D03*
X142464209Y-85371582D03*
X111000000Y-72000000D03*
X139446000Y-71882000D03*
D16*
X153206560Y-105487288D03*
X154238931Y-105483691D03*
D17*
X141000000Y-108000000D03*
X111000000Y-75000000D03*
X117000000Y-90000000D03*
D16*
X116158935Y-111558797D03*
X162758025Y-102849806D03*
D17*
X144000000Y-108000000D03*
X131350331Y-79682409D03*
D16*
X149225000Y-91567000D03*
X161925000Y-110871000D03*
D17*
X115038592Y-78676617D03*
X159000000Y-102000000D03*
X162000000Y-99000000D03*
X171000000Y-84000000D03*
X108000000Y-105000000D03*
D16*
X153745539Y-87348618D03*
D17*
X164460729Y-109925361D03*
X171000000Y-72000000D03*
X168000000Y-99000000D03*
X129000000Y-78000000D03*
X162928495Y-74601569D03*
X164466435Y-95444092D03*
X163771574Y-89021564D03*
X126000000Y-75000000D03*
X114000000Y-93000000D03*
X138000000Y-99000000D03*
D16*
X153726000Y-92837000D03*
D17*
X141000000Y-96000000D03*
X129000000Y-117000000D03*
X123000000Y-99000000D03*
X144000000Y-72000000D03*
X108000000Y-114000000D03*
X129744379Y-90535587D03*
X167894000Y-104265962D03*
X126238000Y-108966000D03*
X141000000Y-111000000D03*
X126000000Y-72000000D03*
X159000000Y-99000000D03*
X139446000Y-82550000D03*
X159000000Y-87000000D03*
X143383000Y-82550000D03*
D16*
X144724000Y-101473000D03*
X147762015Y-104644108D03*
D17*
X165000000Y-114000000D03*
X131351077Y-78925965D03*
D16*
X123332000Y-106680000D03*
D17*
X164438340Y-103503731D03*
X126000000Y-105000000D03*
D16*
X163737339Y-102833619D03*
D17*
X129769193Y-79691835D03*
X138000000Y-96000000D03*
X123000000Y-105000000D03*
X129745125Y-89779143D03*
X108000000Y-81000000D03*
X129000000Y-75000000D03*
X130581307Y-89778105D03*
X140335000Y-82550000D03*
X123000000Y-72000000D03*
X120000000Y-105000000D03*
X147000000Y-111000000D03*
X171000000Y-78000000D03*
X159000000Y-96000000D03*
X114000000Y-117000000D03*
X126000000Y-102000000D03*
X156000000Y-108000000D03*
X110687179Y-80966323D03*
X141000000Y-72000000D03*
X140347839Y-85370544D03*
X123000000Y-87000000D03*
X120000000Y-96000000D03*
X108000000Y-117000000D03*
X123000000Y-96000000D03*
X141000000Y-93000000D03*
X165901600Y-74601569D03*
D16*
X112903000Y-90297000D03*
D17*
X138000000Y-93000000D03*
X143300391Y-85370544D03*
X147000000Y-108000000D03*
X123000000Y-114000000D03*
D16*
X115189000Y-72517000D03*
D17*
X150000000Y-111000000D03*
X163830000Y-78740000D03*
D16*
X154305000Y-85979000D03*
D17*
X123000000Y-117000000D03*
X111000000Y-96000000D03*
X123000000Y-75000000D03*
D16*
X149611397Y-100950310D03*
D17*
X171000000Y-114000000D03*
D16*
X114046000Y-74041000D03*
D17*
X123000000Y-90000000D03*
X111000000Y-114000000D03*
D16*
X162714307Y-88352224D03*
D17*
X111000000Y-117000000D03*
X120000000Y-72000000D03*
X144399000Y-81788000D03*
X123000000Y-78000000D03*
D16*
X115189000Y-73533000D03*
D17*
X159000000Y-78000000D03*
X117000000Y-93000000D03*
X129000000Y-81000000D03*
X150000000Y-90000000D03*
X132000000Y-99000000D03*
X141000000Y-90000000D03*
X126000000Y-81000000D03*
X138000000Y-90000000D03*
X143309824Y-74543451D03*
X138000000Y-102000000D03*
X154051000Y-101219000D03*
D16*
X162094561Y-107457078D03*
D17*
X144000000Y-102000000D03*
D16*
X151677661Y-79713988D03*
D17*
X130580561Y-90534549D03*
D16*
X155278497Y-105465706D03*
D17*
X129000000Y-93000000D03*
X147000000Y-72000000D03*
D16*
X158369000Y-114173000D03*
D17*
X123000000Y-93000000D03*
X141000000Y-99000000D03*
X171000000Y-90000000D03*
D16*
X151130000Y-73025000D03*
D17*
X110687179Y-84015361D03*
X164973000Y-81407000D03*
X141000000Y-102000000D03*
X163793963Y-95443194D03*
X153000000Y-111000000D03*
X141000000Y-78000000D03*
X117000000Y-75000000D03*
X139521090Y-74544489D03*
D16*
X162033811Y-92979078D03*
D17*
X131325517Y-90526161D03*
X108000000Y-84000000D03*
X120000000Y-99000000D03*
X132000000Y-81000000D03*
X111000000Y-99000000D03*
X164465000Y-80391000D03*
X111000000Y-90000000D03*
X120000000Y-90000000D03*
X147000000Y-93000000D03*
X129000000Y-108000000D03*
X135000000Y-111000000D03*
X138596279Y-88525613D03*
X117000000Y-117000000D03*
X111000000Y-111000000D03*
D16*
X161417000Y-103124000D03*
D17*
X138000000Y-72000000D03*
X139511657Y-85371582D03*
D16*
X130803369Y-84593065D03*
X144724000Y-98425000D03*
X112903000Y-89281000D03*
D17*
X129000000Y-96000000D03*
X163765868Y-103502833D03*
%TO.N,+3.3V*%
X153797000Y-112014000D03*
X148463000Y-96395641D03*
X148463000Y-100653800D03*
D16*
X153797000Y-78486000D03*
D17*
X149225000Y-85090000D03*
X150065000Y-106807000D03*
X154559000Y-111252000D03*
D16*
X152245000Y-72034000D03*
D17*
%TO.N,VBATT*%
X120782500Y-111282276D03*
X118618000Y-113157000D03*
X160505298Y-73193832D03*
X154305000Y-117602000D03*
X135433985Y-80631558D03*
X161544000Y-82423000D03*
X160506044Y-72437388D03*
X134182608Y-91705831D03*
X160782000Y-83185000D03*
X160782000Y-82423000D03*
X161251000Y-72429000D03*
X118491000Y-112522000D03*
X134181862Y-92462275D03*
X133852847Y-80640984D03*
X120782500Y-110647276D03*
X159669862Y-72438426D03*
X135763746Y-91696405D03*
X134688283Y-81396390D03*
X133852101Y-81397428D03*
X161544000Y-83185000D03*
X135433239Y-81388002D03*
X135018044Y-92461237D03*
X153543000Y-117602000D03*
X134689029Y-80639946D03*
X159669116Y-73194870D03*
X120015000Y-113411000D03*
X120777000Y-111917276D03*
X155067000Y-117602000D03*
X160782000Y-83947000D03*
X161250254Y-73185444D03*
X154305000Y-116840000D03*
X135018790Y-91704793D03*
X153543000Y-116840000D03*
X120719108Y-113214892D03*
X120777000Y-112552276D03*
X135763000Y-92452849D03*
X155067000Y-116840000D03*
X161544000Y-83947000D03*
X119253000Y-113411000D03*
D16*
%TO.N,/USB_PSU_EN*%
X145542000Y-74803000D03*
X138430000Y-80606000D03*
D17*
%TO.N,/VBUS_OUT_B*%
X163777776Y-94650031D03*
X164450248Y-94650929D03*
D16*
X162036580Y-92208372D03*
X168148000Y-91313000D03*
D17*
X156348948Y-87447518D03*
D16*
X160147000Y-88392000D03*
X161036000Y-94996000D03*
D17*
X163787761Y-89814727D03*
X155512766Y-87448556D03*
X155512020Y-88205000D03*
X157093158Y-88195574D03*
X156348202Y-88203962D03*
X157093904Y-87439130D03*
X164460233Y-89815625D03*
D16*
X161036000Y-89408000D03*
%TO.N,/RS485 TxRx/\u00ACRESET*%
X150241000Y-77216000D03*
X151257000Y-76200000D03*
%TO.N,/RS485 TxRx/\u00ACSHUTDOWN*%
X149606000Y-77216000D03*
X150622000Y-76200000D03*
%TO.N,VUSB_B*%
X132617236Y-77811390D03*
X136193853Y-77815556D03*
X142889862Y-77319808D03*
D17*
%TO.N,/VBUS_OUT_A*%
X154824831Y-95687392D03*
D16*
X161030117Y-103914272D03*
D17*
X155571849Y-94107000D03*
X155581275Y-95688138D03*
X163772070Y-109131300D03*
X154815405Y-94106254D03*
X155580237Y-94851956D03*
D16*
X161030117Y-109502272D03*
D17*
X164444542Y-109132198D03*
D16*
X162045968Y-106716871D03*
D17*
X163782055Y-104295996D03*
X164454527Y-104296894D03*
X154823793Y-94851210D03*
D16*
X160147000Y-102870000D03*
X168148000Y-105791000D03*
%TO.N,VUSB_A*%
X136195744Y-88519557D03*
X132619127Y-88515391D03*
X142889862Y-87987808D03*
%TO.N,/\u00ACUSB_HUB_RST*%
X147955000Y-76454000D03*
X145542000Y-88138000D03*
X147066000Y-86233000D03*
X144018000Y-98425000D03*
X148572379Y-75473587D03*
%TO.N,/Power Supply/FB1*%
X132377927Y-73403403D03*
%TO.N,/USB/CRFILT*%
X149479000Y-96774000D03*
X151408446Y-96291122D03*
%TO.N,/USB/\u00ACFLG_A*%
X152400000Y-90424000D03*
X152403500Y-95885000D03*
%TO.N,/USB/EN_A*%
X151956163Y-89770007D03*
X152903500Y-95885000D03*
%TO.N,/Power Supply/FB2*%
X132334000Y-84144752D03*
%TO.N,/USB/\u00ACFLG_B*%
X150412641Y-96025238D03*
X150418235Y-95123000D03*
%TO.N,/USB/EN_B*%
X149944221Y-95092375D03*
X150905986Y-96305778D03*
%TD*%
%TA.AperFunction,Conductor*%
%TO.N,GND*%
G36*
X171710061Y-66241097D02*
G01*
X171850943Y-66254973D01*
X171874780Y-66259715D01*
X172004395Y-66299034D01*
X172026852Y-66308336D01*
X172146295Y-66372179D01*
X172166507Y-66385684D01*
X172271204Y-66471607D01*
X172288392Y-66488795D01*
X172374315Y-66593492D01*
X172387820Y-66613704D01*
X172451663Y-66733147D01*
X172460965Y-66755604D01*
X172500284Y-66885219D01*
X172505027Y-66909060D01*
X172518903Y-67049937D01*
X172519500Y-67062092D01*
X172519500Y-118357907D01*
X172518903Y-118370062D01*
X172505027Y-118510939D01*
X172500284Y-118534780D01*
X172460965Y-118664395D01*
X172451663Y-118686852D01*
X172387820Y-118806295D01*
X172374315Y-118826507D01*
X172288392Y-118931204D01*
X172271204Y-118948392D01*
X172166507Y-119034315D01*
X172146295Y-119047820D01*
X172026852Y-119111663D01*
X172004395Y-119120965D01*
X171874780Y-119160284D01*
X171850939Y-119165027D01*
X171731580Y-119176783D01*
X171710060Y-119178903D01*
X171697907Y-119179500D01*
X107702093Y-119179500D01*
X107689939Y-119178903D01*
X107662588Y-119176209D01*
X107549060Y-119165027D01*
X107525219Y-119160284D01*
X107395604Y-119120965D01*
X107373147Y-119111663D01*
X107253704Y-119047820D01*
X107233492Y-119034315D01*
X107128795Y-118948392D01*
X107111607Y-118931204D01*
X107025684Y-118826507D01*
X107012179Y-118806295D01*
X106948336Y-118686852D01*
X106939034Y-118664395D01*
X106899715Y-118534780D01*
X106894973Y-118510943D01*
X106881097Y-118370061D01*
X106880500Y-118357907D01*
X106880500Y-116718707D01*
X118799555Y-116718707D01*
X118799555Y-116961292D01*
X118830134Y-117193554D01*
X118831217Y-117201778D01*
X118840397Y-117236037D01*
X118894000Y-117436086D01*
X118986823Y-117660180D01*
X118986827Y-117660190D01*
X119108109Y-117870257D01*
X119255775Y-118062699D01*
X119255781Y-118062706D01*
X119427293Y-118234218D01*
X119427300Y-118234224D01*
X119619742Y-118381890D01*
X119829809Y-118503172D01*
X119829810Y-118503172D01*
X119829813Y-118503174D01*
X120053918Y-118596001D01*
X120288222Y-118658783D01*
X120528715Y-118690445D01*
X120528722Y-118690445D01*
X120771278Y-118690445D01*
X120771285Y-118690445D01*
X121011778Y-118658783D01*
X121246082Y-118596001D01*
X121470187Y-118503174D01*
X121680258Y-118381890D01*
X121872701Y-118234223D01*
X122044223Y-118062701D01*
X122191890Y-117870258D01*
X122313174Y-117660187D01*
X122406001Y-117436082D01*
X122468783Y-117201778D01*
X122500445Y-116961285D01*
X122500445Y-116744647D01*
X133408500Y-116744647D01*
X133408500Y-116935352D01*
X133438330Y-117123694D01*
X133497260Y-117305059D01*
X133583699Y-117474702D01*
X133583832Y-117474964D01*
X133695920Y-117629239D01*
X133830761Y-117764080D01*
X133985036Y-117876168D01*
X134065310Y-117917069D01*
X134154940Y-117962739D01*
X134154942Y-117962739D01*
X134154945Y-117962741D01*
X134211710Y-117981185D01*
X134336305Y-118021669D01*
X134524648Y-118051500D01*
X134524653Y-118051500D01*
X134715352Y-118051500D01*
X134903694Y-118021669D01*
X134905199Y-118021180D01*
X135085055Y-117962741D01*
X135254964Y-117876168D01*
X135409239Y-117764080D01*
X135544080Y-117629239D01*
X135656168Y-117474964D01*
X135742741Y-117305055D01*
X135772069Y-117214791D01*
X135811507Y-117157117D01*
X135875866Y-117129919D01*
X135944712Y-117141834D01*
X135996188Y-117189078D01*
X136007929Y-117214789D01*
X136014834Y-117236037D01*
X136037260Y-117305059D01*
X136123699Y-117474702D01*
X136123832Y-117474964D01*
X136235920Y-117629239D01*
X136370761Y-117764080D01*
X136525036Y-117876168D01*
X136605310Y-117917069D01*
X136694940Y-117962739D01*
X136694942Y-117962739D01*
X136694945Y-117962741D01*
X136751710Y-117981185D01*
X136876305Y-118021669D01*
X137064648Y-118051500D01*
X137064653Y-118051500D01*
X137255352Y-118051500D01*
X137443694Y-118021669D01*
X137445199Y-118021180D01*
X137625055Y-117962741D01*
X137794964Y-117876168D01*
X137949239Y-117764080D01*
X138084080Y-117629239D01*
X138196168Y-117474964D01*
X138282741Y-117305055D01*
X138312069Y-117214791D01*
X138351507Y-117157117D01*
X138415866Y-117129919D01*
X138484712Y-117141834D01*
X138536188Y-117189078D01*
X138547929Y-117214789D01*
X138554834Y-117236037D01*
X138577260Y-117305059D01*
X138663699Y-117474702D01*
X138663832Y-117474964D01*
X138775920Y-117629239D01*
X138910761Y-117764080D01*
X139065036Y-117876168D01*
X139145310Y-117917069D01*
X139234940Y-117962739D01*
X139234942Y-117962739D01*
X139234945Y-117962741D01*
X139291710Y-117981185D01*
X139416305Y-118021669D01*
X139604648Y-118051500D01*
X139604653Y-118051500D01*
X139795352Y-118051500D01*
X139983694Y-118021669D01*
X139985199Y-118021180D01*
X140165055Y-117962741D01*
X140334964Y-117876168D01*
X140489239Y-117764080D01*
X140624080Y-117629239D01*
X140736168Y-117474964D01*
X140822741Y-117305055D01*
X140852069Y-117214791D01*
X140891507Y-117157117D01*
X140955866Y-117129919D01*
X141024712Y-117141834D01*
X141076188Y-117189078D01*
X141087929Y-117214789D01*
X141094834Y-117236037D01*
X141117260Y-117305059D01*
X141203699Y-117474702D01*
X141203832Y-117474964D01*
X141315920Y-117629239D01*
X141450761Y-117764080D01*
X141605036Y-117876168D01*
X141685310Y-117917069D01*
X141774940Y-117962739D01*
X141774942Y-117962739D01*
X141774945Y-117962741D01*
X141831710Y-117981185D01*
X141956305Y-118021669D01*
X142144648Y-118051500D01*
X142144653Y-118051500D01*
X142335352Y-118051500D01*
X142523694Y-118021669D01*
X142525199Y-118021180D01*
X142705055Y-117962741D01*
X142874964Y-117876168D01*
X143029239Y-117764080D01*
X143164080Y-117629239D01*
X143276168Y-117474964D01*
X143362741Y-117305055D01*
X143392069Y-117214791D01*
X143431507Y-117157117D01*
X143495866Y-117129919D01*
X143564712Y-117141834D01*
X143616188Y-117189078D01*
X143627929Y-117214789D01*
X143634834Y-117236037D01*
X143657260Y-117305059D01*
X143743699Y-117474702D01*
X143743832Y-117474964D01*
X143855920Y-117629239D01*
X143990761Y-117764080D01*
X144145036Y-117876168D01*
X144225310Y-117917069D01*
X144314940Y-117962739D01*
X144314942Y-117962739D01*
X144314945Y-117962741D01*
X144371710Y-117981185D01*
X144496305Y-118021669D01*
X144684648Y-118051500D01*
X144684653Y-118051500D01*
X144875352Y-118051500D01*
X145063694Y-118021669D01*
X145065199Y-118021180D01*
X145245055Y-117962741D01*
X145414964Y-117876168D01*
X145569239Y-117764080D01*
X145704080Y-117629239D01*
X145816168Y-117474964D01*
X145902741Y-117305055D01*
X145932332Y-117213981D01*
X145971768Y-117156309D01*
X146036127Y-117129110D01*
X146104973Y-117141024D01*
X146156449Y-117188268D01*
X146168193Y-117213984D01*
X146197720Y-117304860D01*
X146197721Y-117304863D01*
X146284259Y-117474702D01*
X146304241Y-117502203D01*
X146304242Y-117502204D01*
X146898274Y-116908171D01*
X146923963Y-117004044D01*
X146979916Y-117100956D01*
X147059044Y-117180084D01*
X147155956Y-117236037D01*
X147251828Y-117261725D01*
X146657795Y-117855757D01*
X146657795Y-117855758D01*
X146685296Y-117875739D01*
X146855136Y-117962278D01*
X146855139Y-117962279D01*
X147036421Y-118021180D01*
X147224693Y-118051000D01*
X147415307Y-118051000D01*
X147603578Y-118021180D01*
X147784860Y-117962279D01*
X147784863Y-117962278D01*
X147954704Y-117875738D01*
X147982204Y-117855757D01*
X147388172Y-117261725D01*
X147484044Y-117236037D01*
X147580956Y-117180084D01*
X147660084Y-117100956D01*
X147716037Y-117004044D01*
X147741725Y-116908171D01*
X148335757Y-117502203D01*
X148355738Y-117474704D01*
X148442278Y-117304863D01*
X148442279Y-117304860D01*
X148472069Y-117213176D01*
X148511506Y-117155501D01*
X148575865Y-117128302D01*
X148644711Y-117140216D01*
X148696187Y-117187460D01*
X148707931Y-117213176D01*
X148737720Y-117304860D01*
X148737721Y-117304863D01*
X148824259Y-117474702D01*
X148844241Y-117502203D01*
X148844242Y-117502204D01*
X149438274Y-116908171D01*
X149463963Y-117004044D01*
X149519916Y-117100956D01*
X149599044Y-117180084D01*
X149695956Y-117236037D01*
X149791828Y-117261725D01*
X149197795Y-117855757D01*
X149197795Y-117855758D01*
X149225296Y-117875739D01*
X149395136Y-117962278D01*
X149395139Y-117962279D01*
X149576421Y-118021180D01*
X149764693Y-118051000D01*
X149955307Y-118051000D01*
X150143578Y-118021180D01*
X150324860Y-117962279D01*
X150324863Y-117962278D01*
X150494704Y-117875738D01*
X150522204Y-117855757D01*
X149928172Y-117261725D01*
X150024044Y-117236037D01*
X150120956Y-117180084D01*
X150200084Y-117100956D01*
X150256037Y-117004044D01*
X150281725Y-116908171D01*
X150875757Y-117502203D01*
X150895738Y-117474704D01*
X150982278Y-117304863D01*
X150982280Y-117304857D01*
X151011806Y-117213985D01*
X151051243Y-117156309D01*
X151115601Y-117129110D01*
X151184448Y-117141024D01*
X151235924Y-117188268D01*
X151247667Y-117213981D01*
X151254834Y-117236037D01*
X151277260Y-117305059D01*
X151363699Y-117474702D01*
X151363832Y-117474964D01*
X151475920Y-117629239D01*
X151610761Y-117764080D01*
X151765036Y-117876168D01*
X151845310Y-117917069D01*
X151934940Y-117962739D01*
X151934942Y-117962739D01*
X151934945Y-117962741D01*
X151991710Y-117981185D01*
X152116305Y-118021669D01*
X152304648Y-118051500D01*
X152304653Y-118051500D01*
X152495352Y-118051500D01*
X152636189Y-118029192D01*
X152683694Y-118021669D01*
X152739824Y-118003430D01*
X152809661Y-118001435D01*
X152869494Y-118037515D01*
X152881241Y-118052471D01*
X152921210Y-118112288D01*
X152921213Y-118112292D01*
X153032707Y-118223786D01*
X153032711Y-118223789D01*
X153163814Y-118311390D01*
X153163827Y-118311397D01*
X153276114Y-118357907D01*
X153309503Y-118371737D01*
X153464153Y-118402499D01*
X153464156Y-118402500D01*
X153464158Y-118402500D01*
X153621844Y-118402500D01*
X153621845Y-118402499D01*
X153776497Y-118371737D01*
X153876547Y-118330294D01*
X153946017Y-118322826D01*
X153971450Y-118330294D01*
X154071503Y-118371737D01*
X154226153Y-118402499D01*
X154226156Y-118402500D01*
X154226158Y-118402500D01*
X154383844Y-118402500D01*
X154383845Y-118402499D01*
X154538497Y-118371737D01*
X154638547Y-118330294D01*
X154708017Y-118322826D01*
X154733450Y-118330294D01*
X154833503Y-118371737D01*
X154988153Y-118402499D01*
X154988156Y-118402500D01*
X154988158Y-118402500D01*
X155145844Y-118402500D01*
X155145845Y-118402499D01*
X155300497Y-118371737D01*
X155446179Y-118311394D01*
X155577289Y-118223789D01*
X155688789Y-118112289D01*
X155776394Y-117981179D01*
X155836737Y-117835497D01*
X155867500Y-117680842D01*
X155867500Y-117523158D01*
X155867500Y-117523155D01*
X155867499Y-117523153D01*
X155863332Y-117502203D01*
X155836737Y-117368503D01*
X155795294Y-117268452D01*
X155787826Y-117198983D01*
X155795295Y-117173547D01*
X155836737Y-117073497D01*
X155867500Y-116918842D01*
X155867500Y-116761158D01*
X155864216Y-116744647D01*
X156268500Y-116744647D01*
X156268500Y-116935352D01*
X156298330Y-117123694D01*
X156357260Y-117305059D01*
X156443699Y-117474702D01*
X156443832Y-117474964D01*
X156555920Y-117629239D01*
X156690761Y-117764080D01*
X156845036Y-117876168D01*
X156925310Y-117917069D01*
X157014940Y-117962739D01*
X157014942Y-117962739D01*
X157014945Y-117962741D01*
X157071710Y-117981185D01*
X157196305Y-118021669D01*
X157384648Y-118051500D01*
X157384653Y-118051500D01*
X157575352Y-118051500D01*
X157763694Y-118021669D01*
X157765199Y-118021180D01*
X157945055Y-117962741D01*
X158114964Y-117876168D01*
X158269239Y-117764080D01*
X158404080Y-117629239D01*
X158516168Y-117474964D01*
X158602741Y-117305055D01*
X158632069Y-117214791D01*
X158671507Y-117157117D01*
X158735866Y-117129919D01*
X158804712Y-117141834D01*
X158856188Y-117189078D01*
X158867929Y-117214789D01*
X158874834Y-117236037D01*
X158897260Y-117305059D01*
X158983699Y-117474702D01*
X158983832Y-117474964D01*
X159095920Y-117629239D01*
X159230761Y-117764080D01*
X159385036Y-117876168D01*
X159465310Y-117917069D01*
X159554940Y-117962739D01*
X159554942Y-117962739D01*
X159554945Y-117962741D01*
X159611710Y-117981185D01*
X159736305Y-118021669D01*
X159924648Y-118051500D01*
X159924653Y-118051500D01*
X160115352Y-118051500D01*
X160303694Y-118021669D01*
X160305199Y-118021180D01*
X160485055Y-117962741D01*
X160654964Y-117876168D01*
X160809239Y-117764080D01*
X160944080Y-117629239D01*
X161056168Y-117474964D01*
X161142741Y-117305055D01*
X161172069Y-117214791D01*
X161211507Y-117157117D01*
X161275866Y-117129919D01*
X161344712Y-117141834D01*
X161396188Y-117189078D01*
X161407929Y-117214789D01*
X161414834Y-117236037D01*
X161437260Y-117305059D01*
X161523699Y-117474702D01*
X161523832Y-117474964D01*
X161635920Y-117629239D01*
X161770761Y-117764080D01*
X161925036Y-117876168D01*
X162005310Y-117917069D01*
X162094940Y-117962739D01*
X162094942Y-117962739D01*
X162094945Y-117962741D01*
X162151710Y-117981185D01*
X162276305Y-118021669D01*
X162464648Y-118051500D01*
X162464653Y-118051500D01*
X162655352Y-118051500D01*
X162843694Y-118021669D01*
X162845199Y-118021180D01*
X163025055Y-117962741D01*
X163194964Y-117876168D01*
X163349239Y-117764080D01*
X163484080Y-117629239D01*
X163596168Y-117474964D01*
X163682741Y-117305055D01*
X163712069Y-117214791D01*
X163751507Y-117157117D01*
X163815866Y-117129919D01*
X163884712Y-117141834D01*
X163936188Y-117189078D01*
X163947929Y-117214789D01*
X163954834Y-117236037D01*
X163977260Y-117305059D01*
X164063699Y-117474702D01*
X164063832Y-117474964D01*
X164175920Y-117629239D01*
X164310761Y-117764080D01*
X164465036Y-117876168D01*
X164545310Y-117917069D01*
X164634940Y-117962739D01*
X164634942Y-117962739D01*
X164634945Y-117962741D01*
X164691710Y-117981185D01*
X164816305Y-118021669D01*
X165004648Y-118051500D01*
X165004653Y-118051500D01*
X165195352Y-118051500D01*
X165383694Y-118021669D01*
X165385199Y-118021180D01*
X165565055Y-117962741D01*
X165734964Y-117876168D01*
X165889239Y-117764080D01*
X166024080Y-117629239D01*
X166136168Y-117474964D01*
X166222741Y-117305055D01*
X166252069Y-117214791D01*
X166291507Y-117157117D01*
X166355866Y-117129919D01*
X166424712Y-117141834D01*
X166476188Y-117189078D01*
X166487929Y-117214789D01*
X166494834Y-117236037D01*
X166517260Y-117305059D01*
X166603699Y-117474702D01*
X166603832Y-117474964D01*
X166715920Y-117629239D01*
X166850761Y-117764080D01*
X167005036Y-117876168D01*
X167085310Y-117917069D01*
X167174940Y-117962739D01*
X167174942Y-117962739D01*
X167174945Y-117962741D01*
X167231710Y-117981185D01*
X167356305Y-118021669D01*
X167544648Y-118051500D01*
X167544653Y-118051500D01*
X167735352Y-118051500D01*
X167923694Y-118021669D01*
X167925199Y-118021180D01*
X168105055Y-117962741D01*
X168274964Y-117876168D01*
X168429239Y-117764080D01*
X168564080Y-117629239D01*
X168676168Y-117474964D01*
X168762741Y-117305055D01*
X168792069Y-117214791D01*
X168831507Y-117157117D01*
X168895866Y-117129919D01*
X168964712Y-117141834D01*
X169016188Y-117189078D01*
X169027929Y-117214789D01*
X169034834Y-117236037D01*
X169057260Y-117305059D01*
X169143699Y-117474702D01*
X169143832Y-117474964D01*
X169255920Y-117629239D01*
X169390761Y-117764080D01*
X169545036Y-117876168D01*
X169625310Y-117917069D01*
X169714940Y-117962739D01*
X169714942Y-117962739D01*
X169714945Y-117962741D01*
X169771710Y-117981185D01*
X169896305Y-118021669D01*
X170084648Y-118051500D01*
X170084653Y-118051500D01*
X170275352Y-118051500D01*
X170463694Y-118021669D01*
X170465199Y-118021180D01*
X170645055Y-117962741D01*
X170814964Y-117876168D01*
X170969239Y-117764080D01*
X171104080Y-117629239D01*
X171216168Y-117474964D01*
X171302741Y-117305055D01*
X171361669Y-117123694D01*
X171365270Y-117100956D01*
X171391500Y-116935352D01*
X171391500Y-116744647D01*
X171361669Y-116556305D01*
X171325166Y-116443963D01*
X171302741Y-116374945D01*
X171302739Y-116374942D01*
X171302739Y-116374940D01*
X171222880Y-116218210D01*
X171216168Y-116205036D01*
X171104080Y-116050761D01*
X170969239Y-115915920D01*
X170814964Y-115803832D01*
X170645059Y-115717260D01*
X170463694Y-115658330D01*
X170275352Y-115628500D01*
X170275347Y-115628500D01*
X170084653Y-115628500D01*
X170084648Y-115628500D01*
X169896305Y-115658330D01*
X169714940Y-115717260D01*
X169545035Y-115803832D01*
X169516944Y-115824242D01*
X169390761Y-115915920D01*
X169390759Y-115915922D01*
X169390758Y-115915922D01*
X169255922Y-116050758D01*
X169255922Y-116050759D01*
X169255920Y-116050761D01*
X169211641Y-116111705D01*
X169143832Y-116205035D01*
X169057260Y-116374940D01*
X169027931Y-116465207D01*
X168988493Y-116522882D01*
X168924134Y-116550080D01*
X168855288Y-116538165D01*
X168803812Y-116490921D01*
X168792069Y-116465207D01*
X168785166Y-116443963D01*
X168762741Y-116374945D01*
X168762739Y-116374942D01*
X168762739Y-116374940D01*
X168682880Y-116218210D01*
X168676168Y-116205036D01*
X168564080Y-116050761D01*
X168429239Y-115915920D01*
X168274964Y-115803832D01*
X168105059Y-115717260D01*
X167923694Y-115658330D01*
X167735352Y-115628500D01*
X167735347Y-115628500D01*
X167544653Y-115628500D01*
X167544648Y-115628500D01*
X167356305Y-115658330D01*
X167174940Y-115717260D01*
X167005035Y-115803832D01*
X166976944Y-115824242D01*
X166850761Y-115915920D01*
X166850759Y-115915922D01*
X166850758Y-115915922D01*
X166715922Y-116050758D01*
X166715922Y-116050759D01*
X166715920Y-116050761D01*
X166671641Y-116111705D01*
X166603832Y-116205035D01*
X166517260Y-116374940D01*
X166487931Y-116465207D01*
X166448493Y-116522882D01*
X166384134Y-116550080D01*
X166315288Y-116538165D01*
X166263812Y-116490921D01*
X166252069Y-116465207D01*
X166245166Y-116443963D01*
X166222741Y-116374945D01*
X166222739Y-116374942D01*
X166222739Y-116374940D01*
X166142880Y-116218210D01*
X166136168Y-116205036D01*
X166024080Y-116050761D01*
X165889239Y-115915920D01*
X165734964Y-115803832D01*
X165565059Y-115717260D01*
X165383694Y-115658330D01*
X165195352Y-115628500D01*
X165195347Y-115628500D01*
X165004653Y-115628500D01*
X165004648Y-115628500D01*
X164816305Y-115658330D01*
X164634940Y-115717260D01*
X164465035Y-115803832D01*
X164436944Y-115824242D01*
X164310761Y-115915920D01*
X164310759Y-115915922D01*
X164310758Y-115915922D01*
X164175922Y-116050758D01*
X164175922Y-116050759D01*
X164175920Y-116050761D01*
X164131641Y-116111705D01*
X164063832Y-116205035D01*
X163977260Y-116374940D01*
X163947931Y-116465207D01*
X163908493Y-116522882D01*
X163844134Y-116550080D01*
X163775288Y-116538165D01*
X163723812Y-116490921D01*
X163712069Y-116465207D01*
X163705166Y-116443963D01*
X163682741Y-116374945D01*
X163682739Y-116374942D01*
X163682739Y-116374940D01*
X163602880Y-116218210D01*
X163596168Y-116205036D01*
X163484080Y-116050761D01*
X163349239Y-115915920D01*
X163194964Y-115803832D01*
X163025059Y-115717260D01*
X162843694Y-115658330D01*
X162655352Y-115628500D01*
X162655347Y-115628500D01*
X162464653Y-115628500D01*
X162464648Y-115628500D01*
X162276305Y-115658330D01*
X162094940Y-115717260D01*
X161925035Y-115803832D01*
X161896944Y-115824242D01*
X161770761Y-115915920D01*
X161770759Y-115915922D01*
X161770758Y-115915922D01*
X161635922Y-116050758D01*
X161635922Y-116050759D01*
X161635920Y-116050761D01*
X161591641Y-116111705D01*
X161523832Y-116205035D01*
X161437260Y-116374940D01*
X161407931Y-116465207D01*
X161368493Y-116522882D01*
X161304134Y-116550080D01*
X161235288Y-116538165D01*
X161183812Y-116490921D01*
X161172069Y-116465207D01*
X161165166Y-116443963D01*
X161142741Y-116374945D01*
X161142739Y-116374942D01*
X161142739Y-116374940D01*
X161062880Y-116218210D01*
X161056168Y-116205036D01*
X160944080Y-116050761D01*
X160809239Y-115915920D01*
X160654964Y-115803832D01*
X160485059Y-115717260D01*
X160303694Y-115658330D01*
X160115352Y-115628500D01*
X160115347Y-115628500D01*
X159924653Y-115628500D01*
X159924648Y-115628500D01*
X159736305Y-115658330D01*
X159554940Y-115717260D01*
X159385035Y-115803832D01*
X159356944Y-115824242D01*
X159230761Y-115915920D01*
X159230759Y-115915922D01*
X159230758Y-115915922D01*
X159095922Y-116050758D01*
X159095922Y-116050759D01*
X159095920Y-116050761D01*
X159051641Y-116111705D01*
X158983832Y-116205035D01*
X158897260Y-116374940D01*
X158867931Y-116465207D01*
X158828493Y-116522882D01*
X158764134Y-116550080D01*
X158695288Y-116538165D01*
X158643812Y-116490921D01*
X158632069Y-116465207D01*
X158625166Y-116443963D01*
X158602741Y-116374945D01*
X158602739Y-116374942D01*
X158602739Y-116374940D01*
X158522880Y-116218210D01*
X158516168Y-116205036D01*
X158404080Y-116050761D01*
X158269239Y-115915920D01*
X158114964Y-115803832D01*
X157945059Y-115717260D01*
X157763694Y-115658330D01*
X157575352Y-115628500D01*
X157575347Y-115628500D01*
X157384653Y-115628500D01*
X157384648Y-115628500D01*
X157196305Y-115658330D01*
X157014940Y-115717260D01*
X156845035Y-115803832D01*
X156816944Y-115824242D01*
X156690761Y-115915920D01*
X156690759Y-115915922D01*
X156690758Y-115915922D01*
X156555922Y-116050758D01*
X156555922Y-116050759D01*
X156555920Y-116050761D01*
X156511641Y-116111705D01*
X156443832Y-116205035D01*
X156357260Y-116374940D01*
X156298330Y-116556305D01*
X156268500Y-116744647D01*
X155864216Y-116744647D01*
X155836737Y-116606503D01*
X155815945Y-116556306D01*
X155776397Y-116460827D01*
X155776390Y-116460814D01*
X155688789Y-116329711D01*
X155688786Y-116329707D01*
X155577292Y-116218213D01*
X155577288Y-116218210D01*
X155446185Y-116130609D01*
X155446172Y-116130602D01*
X155300501Y-116070264D01*
X155300489Y-116070261D01*
X155145845Y-116039500D01*
X155145842Y-116039500D01*
X154988158Y-116039500D01*
X154988155Y-116039500D01*
X154833510Y-116070261D01*
X154833502Y-116070263D01*
X154771028Y-116096140D01*
X154733452Y-116111705D01*
X154663983Y-116119174D01*
X154638549Y-116111705D01*
X154538497Y-116070263D01*
X154538489Y-116070261D01*
X154383845Y-116039500D01*
X154383842Y-116039500D01*
X154226158Y-116039500D01*
X154226155Y-116039500D01*
X154071510Y-116070261D01*
X154071502Y-116070263D01*
X154009028Y-116096140D01*
X153971452Y-116111705D01*
X153901983Y-116119174D01*
X153876549Y-116111705D01*
X153776497Y-116070263D01*
X153776489Y-116070261D01*
X153621845Y-116039500D01*
X153621842Y-116039500D01*
X153464158Y-116039500D01*
X153464156Y-116039500D01*
X153402934Y-116051678D01*
X153333342Y-116045451D01*
X153291061Y-116017742D01*
X153189241Y-115915922D01*
X153189239Y-115915920D01*
X153034964Y-115803832D01*
X152865059Y-115717260D01*
X152683694Y-115658330D01*
X152495352Y-115628500D01*
X152495347Y-115628500D01*
X152304653Y-115628500D01*
X152304648Y-115628500D01*
X152116305Y-115658330D01*
X151934940Y-115717260D01*
X151765035Y-115803832D01*
X151736944Y-115824242D01*
X151610761Y-115915920D01*
X151610759Y-115915922D01*
X151610758Y-115915922D01*
X151475922Y-116050758D01*
X151475922Y-116050759D01*
X151475920Y-116050761D01*
X151431641Y-116111705D01*
X151363832Y-116205035D01*
X151277260Y-116374940D01*
X151247668Y-116466016D01*
X151208230Y-116523691D01*
X151143871Y-116550889D01*
X151075025Y-116538974D01*
X151023549Y-116491729D01*
X151011806Y-116466015D01*
X150982279Y-116375139D01*
X150982278Y-116375136D01*
X150895739Y-116205296D01*
X150875757Y-116177795D01*
X150281725Y-116771827D01*
X150256037Y-116675956D01*
X150200084Y-116579044D01*
X150120956Y-116499916D01*
X150024044Y-116443963D01*
X149928172Y-116418274D01*
X150522204Y-115824242D01*
X150522203Y-115824241D01*
X150494702Y-115804259D01*
X150324863Y-115717721D01*
X150324860Y-115717720D01*
X150143578Y-115658819D01*
X149955307Y-115629000D01*
X149764693Y-115629000D01*
X149576421Y-115658819D01*
X149395139Y-115717720D01*
X149395136Y-115717721D01*
X149225300Y-115804258D01*
X149197795Y-115824241D01*
X149791828Y-116418274D01*
X149695956Y-116443963D01*
X149599044Y-116499916D01*
X149519916Y-116579044D01*
X149463963Y-116675956D01*
X149438274Y-116771828D01*
X148844241Y-116177795D01*
X148824258Y-116205300D01*
X148737721Y-116375136D01*
X148737720Y-116375139D01*
X148707931Y-116466823D01*
X148668493Y-116524499D01*
X148604135Y-116551697D01*
X148535289Y-116539782D01*
X148483813Y-116492538D01*
X148472069Y-116466823D01*
X148442279Y-116375139D01*
X148442278Y-116375136D01*
X148355739Y-116205296D01*
X148335757Y-116177795D01*
X147741725Y-116771827D01*
X147716037Y-116675956D01*
X147660084Y-116579044D01*
X147580956Y-116499916D01*
X147484044Y-116443963D01*
X147388172Y-116418274D01*
X147982204Y-115824241D01*
X147954702Y-115804259D01*
X147784863Y-115717721D01*
X147784860Y-115717720D01*
X147603578Y-115658819D01*
X147415307Y-115629000D01*
X147224693Y-115629000D01*
X147036421Y-115658819D01*
X146855139Y-115717720D01*
X146855136Y-115717721D01*
X146685300Y-115804258D01*
X146657795Y-115824241D01*
X147251828Y-116418274D01*
X147155956Y-116443963D01*
X147059044Y-116499916D01*
X146979916Y-116579044D01*
X146923963Y-116675956D01*
X146898274Y-116771828D01*
X146304241Y-116177795D01*
X146284258Y-116205300D01*
X146197722Y-116375136D01*
X146168193Y-116466016D01*
X146128755Y-116523691D01*
X146064396Y-116550889D01*
X145995550Y-116538974D01*
X145944074Y-116491730D01*
X145932332Y-116466019D01*
X145902741Y-116374945D01*
X145816168Y-116205036D01*
X145704080Y-116050761D01*
X145569239Y-115915920D01*
X145414964Y-115803832D01*
X145245059Y-115717260D01*
X145063694Y-115658330D01*
X144875352Y-115628500D01*
X144875347Y-115628500D01*
X144684653Y-115628500D01*
X144684648Y-115628500D01*
X144496305Y-115658330D01*
X144314940Y-115717260D01*
X144145035Y-115803832D01*
X144116944Y-115824242D01*
X143990761Y-115915920D01*
X143990759Y-115915922D01*
X143990758Y-115915922D01*
X143855922Y-116050758D01*
X143855922Y-116050759D01*
X143855920Y-116050761D01*
X143811641Y-116111705D01*
X143743832Y-116205035D01*
X143657260Y-116374940D01*
X143627931Y-116465207D01*
X143588493Y-116522882D01*
X143524134Y-116550080D01*
X143455288Y-116538165D01*
X143403812Y-116490921D01*
X143392069Y-116465207D01*
X143385166Y-116443963D01*
X143362741Y-116374945D01*
X143362739Y-116374942D01*
X143362739Y-116374940D01*
X143282880Y-116218210D01*
X143276168Y-116205036D01*
X143164080Y-116050761D01*
X143029239Y-115915920D01*
X142874964Y-115803832D01*
X142705059Y-115717260D01*
X142523694Y-115658330D01*
X142335352Y-115628500D01*
X142335347Y-115628500D01*
X142144653Y-115628500D01*
X142144648Y-115628500D01*
X141956305Y-115658330D01*
X141774940Y-115717260D01*
X141605035Y-115803832D01*
X141576944Y-115824242D01*
X141450761Y-115915920D01*
X141450759Y-115915922D01*
X141450758Y-115915922D01*
X141315922Y-116050758D01*
X141315922Y-116050759D01*
X141315920Y-116050761D01*
X141271641Y-116111705D01*
X141203832Y-116205035D01*
X141117260Y-116374940D01*
X141087931Y-116465207D01*
X141048493Y-116522882D01*
X140984134Y-116550080D01*
X140915288Y-116538165D01*
X140863812Y-116490921D01*
X140852069Y-116465207D01*
X140845166Y-116443963D01*
X140822741Y-116374945D01*
X140822739Y-116374942D01*
X140822739Y-116374940D01*
X140742880Y-116218210D01*
X140736168Y-116205036D01*
X140624080Y-116050761D01*
X140489239Y-115915920D01*
X140334964Y-115803832D01*
X140165059Y-115717260D01*
X139983694Y-115658330D01*
X139795352Y-115628500D01*
X139795347Y-115628500D01*
X139604653Y-115628500D01*
X139604648Y-115628500D01*
X139416305Y-115658330D01*
X139234940Y-115717260D01*
X139065035Y-115803832D01*
X139036944Y-115824242D01*
X138910761Y-115915920D01*
X138910759Y-115915922D01*
X138910758Y-115915922D01*
X138775922Y-116050758D01*
X138775922Y-116050759D01*
X138775920Y-116050761D01*
X138731641Y-116111705D01*
X138663832Y-116205035D01*
X138577260Y-116374940D01*
X138547931Y-116465207D01*
X138508493Y-116522882D01*
X138444134Y-116550080D01*
X138375288Y-116538165D01*
X138323812Y-116490921D01*
X138312069Y-116465207D01*
X138305166Y-116443963D01*
X138282741Y-116374945D01*
X138282739Y-116374942D01*
X138282739Y-116374940D01*
X138202880Y-116218210D01*
X138196168Y-116205036D01*
X138084080Y-116050761D01*
X137949239Y-115915920D01*
X137794964Y-115803832D01*
X137625059Y-115717260D01*
X137443694Y-115658330D01*
X137255352Y-115628500D01*
X137255347Y-115628500D01*
X137064653Y-115628500D01*
X137064648Y-115628500D01*
X136876305Y-115658330D01*
X136694940Y-115717260D01*
X136525035Y-115803832D01*
X136496944Y-115824242D01*
X136370761Y-115915920D01*
X136370759Y-115915922D01*
X136370758Y-115915922D01*
X136235922Y-116050758D01*
X136235922Y-116050759D01*
X136235920Y-116050761D01*
X136191641Y-116111705D01*
X136123832Y-116205035D01*
X136037260Y-116374940D01*
X136007931Y-116465207D01*
X135968493Y-116522882D01*
X135904134Y-116550080D01*
X135835288Y-116538165D01*
X135783812Y-116490921D01*
X135772069Y-116465207D01*
X135765166Y-116443963D01*
X135742741Y-116374945D01*
X135742739Y-116374942D01*
X135742739Y-116374940D01*
X135662880Y-116218210D01*
X135656168Y-116205036D01*
X135544080Y-116050761D01*
X135409239Y-115915920D01*
X135254964Y-115803832D01*
X135085059Y-115717260D01*
X134903694Y-115658330D01*
X134715352Y-115628500D01*
X134715347Y-115628500D01*
X134524653Y-115628500D01*
X134524648Y-115628500D01*
X134336305Y-115658330D01*
X134154940Y-115717260D01*
X133985035Y-115803832D01*
X133956944Y-115824242D01*
X133830761Y-115915920D01*
X133830759Y-115915922D01*
X133830758Y-115915922D01*
X133695922Y-116050758D01*
X133695922Y-116050759D01*
X133695920Y-116050761D01*
X133651641Y-116111705D01*
X133583832Y-116205035D01*
X133497260Y-116374940D01*
X133438330Y-116556305D01*
X133408500Y-116744647D01*
X122500445Y-116744647D01*
X122500445Y-116718715D01*
X122468783Y-116478222D01*
X122406001Y-116243918D01*
X122313174Y-116019813D01*
X122311978Y-116017742D01*
X122191890Y-115809742D01*
X122044224Y-115617300D01*
X122044218Y-115617293D01*
X121872706Y-115445781D01*
X121872699Y-115445775D01*
X121680257Y-115298109D01*
X121470190Y-115176827D01*
X121470180Y-115176823D01*
X121246086Y-115084000D01*
X121011774Y-115021216D01*
X120771292Y-114989555D01*
X120771285Y-114989555D01*
X120528715Y-114989555D01*
X120528707Y-114989555D01*
X120288225Y-115021216D01*
X120053913Y-115084000D01*
X119829819Y-115176823D01*
X119829809Y-115176827D01*
X119619742Y-115298109D01*
X119427300Y-115445775D01*
X119427293Y-115445781D01*
X119255781Y-115617293D01*
X119255775Y-115617300D01*
X119108109Y-115809742D01*
X118986827Y-116019809D01*
X118986823Y-116019819D01*
X118894000Y-116243913D01*
X118831216Y-116478225D01*
X118799555Y-116718707D01*
X106880500Y-116718707D01*
X106880500Y-112443153D01*
X117690500Y-112443153D01*
X117690500Y-112600846D01*
X117721261Y-112755489D01*
X117721264Y-112755501D01*
X117781602Y-112901171D01*
X117781608Y-112901182D01*
X117807858Y-112940468D01*
X117828735Y-113007145D01*
X117826373Y-113033547D01*
X117817500Y-113078158D01*
X117817500Y-113235846D01*
X117848261Y-113390489D01*
X117848264Y-113390501D01*
X117908602Y-113536172D01*
X117908609Y-113536185D01*
X117996210Y-113667288D01*
X117996213Y-113667292D01*
X118107707Y-113778786D01*
X118107711Y-113778789D01*
X118238814Y-113866390D01*
X118238827Y-113866397D01*
X118378576Y-113924282D01*
X118384503Y-113926737D01*
X118539153Y-113957499D01*
X118539156Y-113957500D01*
X118539158Y-113957500D01*
X118616060Y-113957500D01*
X118683099Y-113977185D01*
X118703742Y-113993820D01*
X118742707Y-114032786D01*
X118742711Y-114032789D01*
X118873814Y-114120390D01*
X118873827Y-114120397D01*
X119019498Y-114180735D01*
X119019503Y-114180737D01*
X119174153Y-114211499D01*
X119174156Y-114211500D01*
X119174158Y-114211500D01*
X119331844Y-114211500D01*
X119331845Y-114211499D01*
X119486497Y-114180737D01*
X119586547Y-114139294D01*
X119656017Y-114131826D01*
X119681450Y-114139294D01*
X119781503Y-114180737D01*
X119936153Y-114211499D01*
X119936156Y-114211500D01*
X119936158Y-114211500D01*
X120093844Y-114211500D01*
X120093845Y-114211499D01*
X120248497Y-114180737D01*
X120394179Y-114120394D01*
X120525289Y-114032789D01*
X120525291Y-114032786D01*
X120529022Y-114030294D01*
X120595699Y-114009416D01*
X120622106Y-114011779D01*
X120629544Y-114013259D01*
X120640264Y-114015392D01*
X120640266Y-114015392D01*
X120797952Y-114015392D01*
X120797953Y-114015391D01*
X120952605Y-113984629D01*
X121065274Y-113937959D01*
X121098280Y-113924289D01*
X121098280Y-113924288D01*
X121098287Y-113924286D01*
X121229397Y-113836681D01*
X121340897Y-113725181D01*
X121428502Y-113594071D01*
X121477793Y-113475071D01*
X150860499Y-113475071D01*
X150885497Y-113600738D01*
X150885499Y-113600744D01*
X150934533Y-113719124D01*
X150934538Y-113719133D01*
X151005723Y-113825668D01*
X151005726Y-113825672D01*
X151096327Y-113916273D01*
X151096331Y-113916276D01*
X151202866Y-113987461D01*
X151202872Y-113987464D01*
X151202873Y-113987465D01*
X151321256Y-114036501D01*
X151321260Y-114036501D01*
X151321261Y-114036502D01*
X151446928Y-114061500D01*
X151446931Y-114061500D01*
X151575071Y-114061500D01*
X151659615Y-114044682D01*
X151700744Y-114036501D01*
X151819127Y-113987465D01*
X151925669Y-113916276D01*
X152016276Y-113825669D01*
X152087465Y-113719127D01*
X152136501Y-113600744D01*
X152161500Y-113475069D01*
X152161500Y-113346931D01*
X152161500Y-113346928D01*
X152136502Y-113221261D01*
X152136501Y-113221260D01*
X152136501Y-113221256D01*
X152115702Y-113171044D01*
X155049867Y-113171044D01*
X155074865Y-113296711D01*
X155074867Y-113296717D01*
X155123901Y-113415097D01*
X155123906Y-113415106D01*
X155195091Y-113521641D01*
X155195094Y-113521645D01*
X155285695Y-113612246D01*
X155285699Y-113612249D01*
X155392234Y-113683434D01*
X155392240Y-113683437D01*
X155392241Y-113683438D01*
X155510624Y-113732474D01*
X155510628Y-113732474D01*
X155510629Y-113732475D01*
X155636296Y-113757473D01*
X155636299Y-113757473D01*
X155764439Y-113757473D01*
X155848983Y-113740655D01*
X155890112Y-113732474D01*
X156008495Y-113683438D01*
X156115037Y-113612249D01*
X156205644Y-113521642D01*
X156276833Y-113415100D01*
X156325869Y-113296717D01*
X156350868Y-113171042D01*
X156350868Y-113042904D01*
X156350868Y-113042901D01*
X156325870Y-112917234D01*
X156325869Y-112917233D01*
X156325869Y-112917229D01*
X156276833Y-112798846D01*
X156276832Y-112798845D01*
X156276829Y-112798839D01*
X156205644Y-112692304D01*
X156205641Y-112692300D01*
X156115040Y-112601699D01*
X156115036Y-112601696D01*
X156008501Y-112530511D01*
X156008492Y-112530506D01*
X155890112Y-112481472D01*
X155890106Y-112481470D01*
X155764439Y-112456473D01*
X155764437Y-112456473D01*
X155636299Y-112456473D01*
X155636297Y-112456473D01*
X155510629Y-112481470D01*
X155510623Y-112481472D01*
X155392243Y-112530506D01*
X155392234Y-112530511D01*
X155285699Y-112601696D01*
X155285695Y-112601699D01*
X155195094Y-112692300D01*
X155195091Y-112692304D01*
X155123906Y-112798839D01*
X155123901Y-112798848D01*
X155074867Y-112917228D01*
X155074865Y-112917234D01*
X155049868Y-113042901D01*
X155049868Y-113042904D01*
X155049868Y-113171042D01*
X155049868Y-113171044D01*
X155049867Y-113171044D01*
X152115702Y-113171044D01*
X152087465Y-113102873D01*
X152087464Y-113102872D01*
X152087460Y-113102864D01*
X152016276Y-112996331D01*
X152016273Y-112996327D01*
X151925672Y-112905726D01*
X151925668Y-112905723D01*
X151819133Y-112834538D01*
X151819124Y-112834533D01*
X151700744Y-112785499D01*
X151700738Y-112785497D01*
X151575071Y-112760500D01*
X151575069Y-112760500D01*
X151446931Y-112760500D01*
X151446929Y-112760500D01*
X151321261Y-112785497D01*
X151321255Y-112785499D01*
X151202875Y-112834533D01*
X151202866Y-112834538D01*
X151096331Y-112905723D01*
X151096327Y-112905726D01*
X151005726Y-112996327D01*
X151005723Y-112996331D01*
X150934538Y-113102866D01*
X150934533Y-113102875D01*
X150885499Y-113221255D01*
X150885497Y-113221261D01*
X150860500Y-113346928D01*
X150860500Y-113346931D01*
X150860500Y-113475069D01*
X150860500Y-113475071D01*
X150860499Y-113475071D01*
X121477793Y-113475071D01*
X121488845Y-113448389D01*
X121500362Y-113390489D01*
X121515046Y-113316670D01*
X121515050Y-113316649D01*
X121516650Y-113308600D01*
X121519608Y-113293734D01*
X121519608Y-113136050D01*
X121519608Y-113136047D01*
X121488677Y-112980552D01*
X121494904Y-112910960D01*
X121495709Y-112908966D01*
X121546737Y-112785773D01*
X121577500Y-112631118D01*
X121577500Y-112473434D01*
X121577500Y-112473431D01*
X121577499Y-112473429D01*
X121546738Y-112318786D01*
X121546737Y-112318781D01*
X121546737Y-112318779D01*
X121531596Y-112282227D01*
X121524128Y-112212760D01*
X121531596Y-112187326D01*
X121546737Y-112150773D01*
X121577500Y-111996118D01*
X121577500Y-111935153D01*
X152996500Y-111935153D01*
X152996500Y-112092846D01*
X153027261Y-112247489D01*
X153027264Y-112247501D01*
X153087602Y-112393172D01*
X153087609Y-112393185D01*
X153175210Y-112524288D01*
X153175213Y-112524292D01*
X153286707Y-112635786D01*
X153286711Y-112635789D01*
X153417814Y-112723390D01*
X153417827Y-112723397D01*
X153507403Y-112760500D01*
X153563503Y-112783737D01*
X153718153Y-112814499D01*
X153718156Y-112814500D01*
X153718158Y-112814500D01*
X153875844Y-112814500D01*
X153875845Y-112814499D01*
X154030497Y-112783737D01*
X154176179Y-112723394D01*
X154307289Y-112635789D01*
X154418789Y-112524289D01*
X154506394Y-112393179D01*
X154566737Y-112247497D01*
X154588029Y-112140454D01*
X154620413Y-112078544D01*
X154681129Y-112043970D01*
X154685448Y-112043030D01*
X154792497Y-112021737D01*
X154938179Y-111961394D01*
X155069289Y-111873789D01*
X155180789Y-111762289D01*
X155268394Y-111631179D01*
X155328737Y-111485497D01*
X155359500Y-111330842D01*
X155359500Y-111173158D01*
X155359500Y-111173155D01*
X155359499Y-111173153D01*
X155350029Y-111125545D01*
X155328737Y-111018503D01*
X155306483Y-110964776D01*
X155268397Y-110872827D01*
X155268390Y-110872814D01*
X155180789Y-110741711D01*
X155180786Y-110741707D01*
X155069292Y-110630213D01*
X155069288Y-110630210D01*
X154938185Y-110542609D01*
X154938172Y-110542602D01*
X154792501Y-110482264D01*
X154792489Y-110482261D01*
X154637845Y-110451500D01*
X154637842Y-110451500D01*
X154480158Y-110451500D01*
X154480155Y-110451500D01*
X154325510Y-110482261D01*
X154325498Y-110482264D01*
X154179827Y-110542602D01*
X154179814Y-110542609D01*
X154048711Y-110630210D01*
X154048707Y-110630213D01*
X153937213Y-110741707D01*
X153937210Y-110741711D01*
X153849609Y-110872814D01*
X153849602Y-110872827D01*
X153789264Y-111018498D01*
X153789261Y-111018508D01*
X153767970Y-111125545D01*
X153735585Y-111187456D01*
X153674869Y-111222030D01*
X153670545Y-111222970D01*
X153563508Y-111244261D01*
X153563498Y-111244264D01*
X153417827Y-111304602D01*
X153417814Y-111304609D01*
X153286711Y-111392210D01*
X153286707Y-111392213D01*
X153175213Y-111503707D01*
X153175210Y-111503711D01*
X153087609Y-111634814D01*
X153087602Y-111634827D01*
X153027264Y-111780498D01*
X153027261Y-111780510D01*
X152996500Y-111935153D01*
X121577500Y-111935153D01*
X121577500Y-111838434D01*
X121577500Y-111838431D01*
X121577499Y-111838429D01*
X121562354Y-111762289D01*
X121546737Y-111683779D01*
X121534346Y-111653866D01*
X121526878Y-111584399D01*
X121534345Y-111558966D01*
X121552237Y-111515773D01*
X121583000Y-111361118D01*
X121583000Y-111203434D01*
X121583000Y-111203431D01*
X121582999Y-111203429D01*
X121552238Y-111048786D01*
X121552237Y-111048781D01*
X121552237Y-111048779D01*
X121537096Y-111012227D01*
X121529628Y-110942760D01*
X121537096Y-110917326D01*
X121552237Y-110880773D01*
X121583000Y-110726118D01*
X121583000Y-110568434D01*
X121583000Y-110568431D01*
X121582999Y-110568429D01*
X121577862Y-110542602D01*
X121552237Y-110413779D01*
X121552235Y-110413774D01*
X121491897Y-110268103D01*
X121491890Y-110268090D01*
X121404289Y-110136987D01*
X121404286Y-110136983D01*
X121292792Y-110025489D01*
X121292788Y-110025486D01*
X121161685Y-109937885D01*
X121161672Y-109937878D01*
X121016001Y-109877540D01*
X121015989Y-109877537D01*
X120861345Y-109846776D01*
X120861342Y-109846776D01*
X120703658Y-109846776D01*
X120703655Y-109846776D01*
X120549010Y-109877537D01*
X120548998Y-109877540D01*
X120403327Y-109937878D01*
X120403314Y-109937885D01*
X120272211Y-110025486D01*
X120272207Y-110025489D01*
X120160713Y-110136983D01*
X120160710Y-110136987D01*
X120073109Y-110268090D01*
X120073102Y-110268103D01*
X120012764Y-110413774D01*
X120012761Y-110413786D01*
X119982000Y-110568429D01*
X119982000Y-110726122D01*
X120012761Y-110880770D01*
X120012764Y-110880778D01*
X120027902Y-110917326D01*
X120035369Y-110986795D01*
X120027902Y-111012226D01*
X120012764Y-111048773D01*
X120012761Y-111048781D01*
X119982000Y-111203429D01*
X119982000Y-111361122D01*
X120012761Y-111515770D01*
X120012763Y-111515774D01*
X120025152Y-111545685D01*
X120032619Y-111615155D01*
X120025153Y-111640585D01*
X120007262Y-111683781D01*
X120007261Y-111683782D01*
X119976500Y-111838429D01*
X119976500Y-111996122D01*
X120007261Y-112150770D01*
X120007264Y-112150778D01*
X120022402Y-112187326D01*
X120029869Y-112256795D01*
X120022402Y-112282226D01*
X120007264Y-112318773D01*
X120007261Y-112318781D01*
X119976500Y-112473429D01*
X119976500Y-112500711D01*
X119956815Y-112567750D01*
X119904011Y-112613505D01*
X119876692Y-112622328D01*
X119781508Y-112641261D01*
X119781502Y-112641263D01*
X119719028Y-112667140D01*
X119681452Y-112682705D01*
X119611983Y-112690174D01*
X119586549Y-112682705D01*
X119486497Y-112641263D01*
X119486491Y-112641261D01*
X119391308Y-112622328D01*
X119329397Y-112589943D01*
X119294823Y-112529227D01*
X119291500Y-112500711D01*
X119291500Y-112443155D01*
X119291499Y-112443153D01*
X119281557Y-112393172D01*
X119260737Y-112288503D01*
X119238483Y-112234776D01*
X119200397Y-112142827D01*
X119200390Y-112142814D01*
X119112789Y-112011711D01*
X119112786Y-112011707D01*
X119001292Y-111900213D01*
X119001288Y-111900210D01*
X118870185Y-111812609D01*
X118870172Y-111812602D01*
X118724501Y-111752264D01*
X118724489Y-111752261D01*
X118569845Y-111721500D01*
X118569842Y-111721500D01*
X118412158Y-111721500D01*
X118412155Y-111721500D01*
X118257510Y-111752261D01*
X118257498Y-111752264D01*
X118111827Y-111812602D01*
X118111814Y-111812609D01*
X117980711Y-111900210D01*
X117980707Y-111900213D01*
X117869213Y-112011707D01*
X117869210Y-112011711D01*
X117781609Y-112142814D01*
X117781602Y-112142827D01*
X117721264Y-112288498D01*
X117721261Y-112288510D01*
X117690500Y-112443153D01*
X106880500Y-112443153D01*
X106880500Y-109978244D01*
X106900185Y-109911205D01*
X106952989Y-109865450D01*
X107022147Y-109855506D01*
X107085703Y-109884531D01*
X107103767Y-109903934D01*
X107115454Y-109919546D01*
X107115455Y-109919547D01*
X107230664Y-110005793D01*
X107230671Y-110005797D01*
X107365517Y-110056091D01*
X107365516Y-110056091D01*
X107372444Y-110056835D01*
X107425127Y-110062500D01*
X109520872Y-110062499D01*
X109580483Y-110056091D01*
X109715331Y-110005796D01*
X109830546Y-109919546D01*
X109916796Y-109804331D01*
X109967091Y-109669483D01*
X109973500Y-109609873D01*
X109973500Y-109566343D01*
X160379616Y-109566343D01*
X160404614Y-109692010D01*
X160404616Y-109692016D01*
X160453650Y-109810396D01*
X160453655Y-109810405D01*
X160524840Y-109916940D01*
X160524843Y-109916944D01*
X160615444Y-110007545D01*
X160615448Y-110007548D01*
X160721983Y-110078733D01*
X160721989Y-110078736D01*
X160721990Y-110078737D01*
X160840373Y-110127773D01*
X160840377Y-110127773D01*
X160840378Y-110127774D01*
X160966045Y-110152772D01*
X160966048Y-110152772D01*
X161094188Y-110152772D01*
X161178732Y-110135954D01*
X161219861Y-110127773D01*
X161338244Y-110078737D01*
X161444786Y-110007548D01*
X161535393Y-109916941D01*
X161606582Y-109810399D01*
X161655618Y-109692016D01*
X161671958Y-109609872D01*
X161680617Y-109566343D01*
X161680617Y-109438200D01*
X161655619Y-109312533D01*
X161655618Y-109312532D01*
X161655618Y-109312528D01*
X161606582Y-109194145D01*
X161606581Y-109194144D01*
X161606578Y-109194138D01*
X161553871Y-109115257D01*
X161553870Y-109115255D01*
X161535396Y-109087607D01*
X161535390Y-109087599D01*
X161500244Y-109052453D01*
X162971570Y-109052453D01*
X162971570Y-109210146D01*
X163002331Y-109364789D01*
X163002334Y-109364801D01*
X163062672Y-109510472D01*
X163062679Y-109510485D01*
X163150280Y-109641588D01*
X163150283Y-109641592D01*
X163261777Y-109753086D01*
X163261781Y-109753089D01*
X163392884Y-109840690D01*
X163392897Y-109840697D01*
X163538568Y-109901035D01*
X163538573Y-109901037D01*
X163693223Y-109931799D01*
X163693226Y-109931800D01*
X163693228Y-109931800D01*
X163850914Y-109931800D01*
X163850915Y-109931799D01*
X164005567Y-109901037D01*
X164059771Y-109878584D01*
X164129238Y-109871116D01*
X164154666Y-109878582D01*
X164211045Y-109901935D01*
X164365695Y-109932697D01*
X164365698Y-109932698D01*
X164365700Y-109932698D01*
X164523386Y-109932698D01*
X164523387Y-109932697D01*
X164678039Y-109901935D01*
X164823721Y-109841592D01*
X164954831Y-109753987D01*
X165066331Y-109642487D01*
X165150125Y-109517080D01*
X165892276Y-109517080D01*
X165892276Y-109668612D01*
X165898547Y-109692016D01*
X165931495Y-109814982D01*
X165949852Y-109846776D01*
X166007261Y-109946211D01*
X166114411Y-110053361D01*
X166228057Y-110118975D01*
X166243297Y-110127774D01*
X166245641Y-110129127D01*
X166392010Y-110168346D01*
X166392012Y-110168346D01*
X166543540Y-110168346D01*
X166543542Y-110168346D01*
X166689911Y-110129127D01*
X166821141Y-110053361D01*
X166928291Y-109946211D01*
X167004057Y-109814981D01*
X167043276Y-109668612D01*
X167043276Y-109517080D01*
X167004057Y-109370711D01*
X166928291Y-109239481D01*
X166821141Y-109132331D01*
X166743663Y-109087599D01*
X166689912Y-109056565D01*
X166616726Y-109036955D01*
X166543542Y-109017346D01*
X166392010Y-109017346D01*
X166245639Y-109056565D01*
X166114411Y-109132331D01*
X166114408Y-109132333D01*
X166007263Y-109239478D01*
X166007261Y-109239481D01*
X165931495Y-109370709D01*
X165907169Y-109461498D01*
X165892276Y-109517080D01*
X165150125Y-109517080D01*
X165153936Y-109511377D01*
X165214279Y-109365695D01*
X165245042Y-109211040D01*
X165245042Y-109053356D01*
X165245042Y-109053353D01*
X165245041Y-109053351D01*
X165237879Y-109017346D01*
X165214279Y-108898701D01*
X165213905Y-108897798D01*
X165153939Y-108753025D01*
X165153932Y-108753012D01*
X165066331Y-108621909D01*
X165066328Y-108621905D01*
X164954834Y-108510411D01*
X164954830Y-108510408D01*
X164823727Y-108422807D01*
X164823714Y-108422800D01*
X164678043Y-108362462D01*
X164678031Y-108362459D01*
X164523387Y-108331698D01*
X164523384Y-108331698D01*
X164365700Y-108331698D01*
X164365697Y-108331698D01*
X164211047Y-108362459D01*
X164211039Y-108362462D01*
X164156838Y-108384912D01*
X164087369Y-108392379D01*
X164061937Y-108384912D01*
X164005567Y-108361563D01*
X164005563Y-108361562D01*
X164005558Y-108361560D01*
X163850915Y-108330800D01*
X163850912Y-108330800D01*
X163693228Y-108330800D01*
X163693225Y-108330800D01*
X163538580Y-108361561D01*
X163538568Y-108361564D01*
X163392897Y-108421902D01*
X163392884Y-108421909D01*
X163261781Y-108509510D01*
X163261777Y-108509513D01*
X163150283Y-108621007D01*
X163150280Y-108621011D01*
X163062679Y-108752114D01*
X163062672Y-108752127D01*
X163002334Y-108897798D01*
X163002331Y-108897810D01*
X162971570Y-109052453D01*
X161500244Y-109052453D01*
X161444789Y-108996998D01*
X161444785Y-108996995D01*
X161338250Y-108925810D01*
X161338241Y-108925805D01*
X161219861Y-108876771D01*
X161219855Y-108876769D01*
X161094188Y-108851772D01*
X161094186Y-108851772D01*
X160966048Y-108851772D01*
X160966046Y-108851772D01*
X160840378Y-108876769D01*
X160840372Y-108876771D01*
X160721992Y-108925805D01*
X160721983Y-108925810D01*
X160615448Y-108996995D01*
X160615444Y-108996998D01*
X160524843Y-109087599D01*
X160524840Y-109087603D01*
X160453655Y-109194138D01*
X160453650Y-109194147D01*
X160404616Y-109312527D01*
X160404614Y-109312533D01*
X160379617Y-109438200D01*
X160379617Y-109438203D01*
X160379617Y-109566341D01*
X160379617Y-109566343D01*
X160379616Y-109566343D01*
X109973500Y-109566343D01*
X109973499Y-109087607D01*
X109973499Y-108614129D01*
X109973498Y-108614123D01*
X109967091Y-108554516D01*
X109916797Y-108419671D01*
X109916793Y-108419664D01*
X109830547Y-108304455D01*
X109830544Y-108304452D01*
X109715335Y-108218206D01*
X109715328Y-108218202D01*
X109580482Y-108167908D01*
X109580483Y-108167908D01*
X109520883Y-108161501D01*
X109520881Y-108161500D01*
X109520873Y-108161500D01*
X109520864Y-108161500D01*
X107425129Y-108161500D01*
X107425123Y-108161501D01*
X107365516Y-108167908D01*
X107230671Y-108218202D01*
X107230664Y-108218206D01*
X107115456Y-108304451D01*
X107115454Y-108304454D01*
X107103764Y-108320069D01*
X107047831Y-108361938D01*
X106978139Y-108366921D01*
X106916817Y-108333434D01*
X106883333Y-108272111D01*
X106880500Y-108245755D01*
X106880500Y-105818790D01*
X111923000Y-105818790D01*
X111923000Y-106105209D01*
X111955066Y-106389801D01*
X111955068Y-106389817D01*
X112018799Y-106669042D01*
X112018803Y-106669054D01*
X112113396Y-106939383D01*
X112237662Y-107197424D01*
X112390042Y-107439935D01*
X112501608Y-107579836D01*
X113357728Y-106723716D01*
X113443278Y-106841466D01*
X113593534Y-106991722D01*
X113711282Y-107077270D01*
X112855162Y-107933390D01*
X112995064Y-108044957D01*
X113237575Y-108197337D01*
X113495616Y-108321603D01*
X113765945Y-108416196D01*
X113765957Y-108416200D01*
X114045182Y-108479931D01*
X114045198Y-108479933D01*
X114329790Y-108511999D01*
X114329792Y-108512000D01*
X114616208Y-108512000D01*
X114616209Y-108511999D01*
X114900801Y-108479933D01*
X114900817Y-108479931D01*
X115180042Y-108416200D01*
X115180054Y-108416196D01*
X115450383Y-108321603D01*
X115708424Y-108197337D01*
X115950935Y-108044958D01*
X116090836Y-107933389D01*
X115234717Y-107077271D01*
X115352466Y-106991722D01*
X115502722Y-106841466D01*
X115588270Y-106723717D01*
X116444389Y-107579836D01*
X116555958Y-107439935D01*
X116708337Y-107197424D01*
X116832603Y-106939383D01*
X116906517Y-106728153D01*
X149264500Y-106728153D01*
X149264500Y-106885846D01*
X149295261Y-107040489D01*
X149295264Y-107040501D01*
X149355602Y-107186172D01*
X149355609Y-107186185D01*
X149443210Y-107317288D01*
X149443213Y-107317292D01*
X149554707Y-107428786D01*
X149554711Y-107428789D01*
X149685814Y-107516390D01*
X149685827Y-107516397D01*
X149831498Y-107576735D01*
X149831503Y-107576737D01*
X149986153Y-107607499D01*
X149986156Y-107607500D01*
X149986158Y-107607500D01*
X150143844Y-107607500D01*
X150143845Y-107607499D01*
X150298497Y-107576737D01*
X150444179Y-107516394D01*
X150575289Y-107428789D01*
X150686789Y-107317289D01*
X150774394Y-107186179D01*
X150834737Y-107040497D01*
X150865500Y-106885842D01*
X150865500Y-106780942D01*
X161395467Y-106780942D01*
X161420465Y-106906609D01*
X161420467Y-106906615D01*
X161469501Y-107024995D01*
X161469506Y-107025004D01*
X161540691Y-107131539D01*
X161540694Y-107131543D01*
X161631295Y-107222144D01*
X161631299Y-107222147D01*
X161737834Y-107293332D01*
X161737840Y-107293335D01*
X161737841Y-107293336D01*
X161856224Y-107342372D01*
X161856228Y-107342372D01*
X161856229Y-107342373D01*
X161981896Y-107367371D01*
X161981899Y-107367371D01*
X162110039Y-107367371D01*
X162194583Y-107350553D01*
X162235712Y-107342372D01*
X162354095Y-107293336D01*
X162460637Y-107222147D01*
X162551244Y-107131540D01*
X162622433Y-107024998D01*
X162671469Y-106906615D01*
X162696468Y-106780940D01*
X162696468Y-106652802D01*
X162696468Y-106652799D01*
X162671470Y-106527132D01*
X162671469Y-106527131D01*
X162671469Y-106527127D01*
X162633542Y-106435563D01*
X162622434Y-106408746D01*
X162622429Y-106408737D01*
X162551244Y-106302202D01*
X162551241Y-106302198D01*
X162460640Y-106211597D01*
X162460636Y-106211594D01*
X162354101Y-106140409D01*
X162354092Y-106140404D01*
X162235712Y-106091370D01*
X162235706Y-106091368D01*
X162110039Y-106066371D01*
X162110037Y-106066371D01*
X161981899Y-106066371D01*
X161981897Y-106066371D01*
X161856229Y-106091368D01*
X161856223Y-106091370D01*
X161737843Y-106140404D01*
X161737834Y-106140409D01*
X161631299Y-106211594D01*
X161631295Y-106211597D01*
X161540694Y-106302198D01*
X161540691Y-106302202D01*
X161469506Y-106408737D01*
X161469501Y-106408746D01*
X161420467Y-106527126D01*
X161420465Y-106527132D01*
X161395468Y-106652799D01*
X161395468Y-106652802D01*
X161395468Y-106780940D01*
X161395468Y-106780942D01*
X161395467Y-106780942D01*
X150865500Y-106780942D01*
X150865500Y-106728158D01*
X150865500Y-106728155D01*
X150854111Y-106670902D01*
X150854111Y-106670901D01*
X150834738Y-106573510D01*
X150834737Y-106573503D01*
X150815527Y-106527126D01*
X150774397Y-106427827D01*
X150774390Y-106427814D01*
X150686789Y-106296711D01*
X150686786Y-106296707D01*
X150575292Y-106185213D01*
X150575288Y-106185210D01*
X150444185Y-106097609D01*
X150444172Y-106097602D01*
X150298501Y-106037264D01*
X150298489Y-106037261D01*
X150143845Y-106006500D01*
X150143842Y-106006500D01*
X149986158Y-106006500D01*
X149986155Y-106006500D01*
X149831510Y-106037261D01*
X149831498Y-106037264D01*
X149685827Y-106097602D01*
X149685814Y-106097609D01*
X149554711Y-106185210D01*
X149554707Y-106185213D01*
X149443213Y-106296707D01*
X149443210Y-106296711D01*
X149355609Y-106427814D01*
X149355602Y-106427827D01*
X149295264Y-106573498D01*
X149295261Y-106573510D01*
X149264500Y-106728153D01*
X116906517Y-106728153D01*
X116922978Y-106681111D01*
X116927196Y-106669054D01*
X116927200Y-106669042D01*
X116990931Y-106389817D01*
X116990933Y-106389801D01*
X117022999Y-106105209D01*
X117023000Y-106105207D01*
X117023000Y-105855071D01*
X167497499Y-105855071D01*
X167522497Y-105980738D01*
X167522499Y-105980744D01*
X167571533Y-106099124D01*
X167571538Y-106099133D01*
X167642723Y-106205668D01*
X167642726Y-106205672D01*
X167733327Y-106296273D01*
X167733331Y-106296276D01*
X167839866Y-106367461D01*
X167839872Y-106367464D01*
X167839873Y-106367465D01*
X167958256Y-106416501D01*
X167958260Y-106416501D01*
X167958261Y-106416502D01*
X168083928Y-106441500D01*
X168083931Y-106441500D01*
X168212071Y-106441500D01*
X168296615Y-106424682D01*
X168337744Y-106416501D01*
X168456127Y-106367465D01*
X168562669Y-106296276D01*
X168653276Y-106205669D01*
X168724465Y-106099127D01*
X168773501Y-105980744D01*
X168798500Y-105855069D01*
X168798500Y-105726931D01*
X168798500Y-105726928D01*
X168773502Y-105601261D01*
X168773501Y-105601260D01*
X168773501Y-105601256D01*
X168724465Y-105482873D01*
X168724464Y-105482872D01*
X168724461Y-105482866D01*
X168653276Y-105376331D01*
X168653273Y-105376327D01*
X168562672Y-105285726D01*
X168562668Y-105285723D01*
X168456133Y-105214538D01*
X168456124Y-105214533D01*
X168337744Y-105165499D01*
X168337738Y-105165497D01*
X168212071Y-105140500D01*
X168212069Y-105140500D01*
X168083931Y-105140500D01*
X168083929Y-105140500D01*
X167958261Y-105165497D01*
X167958255Y-105165499D01*
X167839875Y-105214533D01*
X167839866Y-105214538D01*
X167733331Y-105285723D01*
X167733327Y-105285726D01*
X167642726Y-105376327D01*
X167642723Y-105376331D01*
X167571538Y-105482866D01*
X167571533Y-105482875D01*
X167522499Y-105601255D01*
X167522497Y-105601261D01*
X167497500Y-105726928D01*
X167497500Y-105726931D01*
X167497500Y-105855069D01*
X167497500Y-105855071D01*
X167497499Y-105855071D01*
X117023000Y-105855071D01*
X117023000Y-105818792D01*
X117022999Y-105818788D01*
X117013528Y-105734722D01*
X116990933Y-105534198D01*
X116990931Y-105534182D01*
X116927200Y-105254957D01*
X116927196Y-105254945D01*
X116832603Y-104984616D01*
X116708337Y-104726575D01*
X116555957Y-104484064D01*
X116444390Y-104344162D01*
X115588270Y-105200281D01*
X115502722Y-105082534D01*
X115352466Y-104932278D01*
X115234716Y-104846728D01*
X116090836Y-103990608D01*
X115950935Y-103879042D01*
X115708424Y-103726662D01*
X115450383Y-103602396D01*
X115180054Y-103507803D01*
X115180042Y-103507799D01*
X114900817Y-103444068D01*
X114900801Y-103444066D01*
X114616209Y-103412000D01*
X114329790Y-103412000D01*
X114045198Y-103444066D01*
X114045182Y-103444068D01*
X113765957Y-103507799D01*
X113765945Y-103507803D01*
X113495616Y-103602396D01*
X113237575Y-103726662D01*
X112995070Y-103879038D01*
X112855163Y-103990609D01*
X113711282Y-104846728D01*
X113593534Y-104932278D01*
X113443278Y-105082534D01*
X113357728Y-105200282D01*
X112501609Y-104344163D01*
X112390038Y-104484070D01*
X112237662Y-104726575D01*
X112113396Y-104984616D01*
X112018803Y-105254945D01*
X112018799Y-105254957D01*
X111955068Y-105534182D01*
X111955066Y-105534198D01*
X111923000Y-105818790D01*
X106880500Y-105818790D01*
X106880500Y-102934071D01*
X159496499Y-102934071D01*
X159521497Y-103059738D01*
X159521499Y-103059744D01*
X159570533Y-103178124D01*
X159570538Y-103178133D01*
X159641723Y-103284668D01*
X159641726Y-103284672D01*
X159732327Y-103375273D01*
X159732331Y-103375276D01*
X159838866Y-103446461D01*
X159838872Y-103446464D01*
X159838873Y-103446465D01*
X159957256Y-103495501D01*
X159957260Y-103495501D01*
X159957261Y-103495502D01*
X160082928Y-103520500D01*
X160082931Y-103520500D01*
X160211070Y-103520500D01*
X160286563Y-103505483D01*
X160356154Y-103511710D01*
X160411332Y-103554572D01*
X160434577Y-103620462D01*
X160425316Y-103674552D01*
X160404617Y-103724523D01*
X160404614Y-103724533D01*
X160379617Y-103850200D01*
X160379617Y-103850203D01*
X160379617Y-103978341D01*
X160379617Y-103978343D01*
X160379616Y-103978343D01*
X160404614Y-104104010D01*
X160404616Y-104104016D01*
X160453650Y-104222396D01*
X160453655Y-104222405D01*
X160524840Y-104328940D01*
X160524843Y-104328944D01*
X160615444Y-104419545D01*
X160615448Y-104419548D01*
X160721983Y-104490733D01*
X160721989Y-104490736D01*
X160721990Y-104490737D01*
X160840373Y-104539773D01*
X160840377Y-104539773D01*
X160840378Y-104539774D01*
X160966045Y-104564772D01*
X160966048Y-104564772D01*
X161094188Y-104564772D01*
X161178732Y-104547954D01*
X161219861Y-104539773D01*
X161338244Y-104490737D01*
X161444786Y-104419548D01*
X161535393Y-104328941D01*
X161606582Y-104222399D01*
X161608757Y-104217149D01*
X162981555Y-104217149D01*
X162981555Y-104374842D01*
X163012316Y-104529485D01*
X163012319Y-104529497D01*
X163072657Y-104675168D01*
X163072664Y-104675181D01*
X163160265Y-104806284D01*
X163160268Y-104806288D01*
X163271762Y-104917782D01*
X163271766Y-104917785D01*
X163402869Y-105005386D01*
X163402882Y-105005393D01*
X163548553Y-105065731D01*
X163548558Y-105065733D01*
X163703208Y-105096495D01*
X163703211Y-105096496D01*
X163703213Y-105096496D01*
X163860899Y-105096496D01*
X163860900Y-105096495D01*
X164015552Y-105065733D01*
X164069756Y-105043280D01*
X164139223Y-105035812D01*
X164164651Y-105043278D01*
X164221030Y-105066631D01*
X164375680Y-105097393D01*
X164375683Y-105097394D01*
X164375685Y-105097394D01*
X164533371Y-105097394D01*
X164533372Y-105097393D01*
X164688024Y-105066631D01*
X164833706Y-105006288D01*
X164964816Y-104918683D01*
X165076316Y-104807183D01*
X165163921Y-104676073D01*
X165164291Y-104675181D01*
X165224262Y-104530395D01*
X165224264Y-104530391D01*
X165255027Y-104375736D01*
X165255027Y-104218052D01*
X165255027Y-104218049D01*
X165255026Y-104218047D01*
X165254847Y-104217149D01*
X165224264Y-104063397D01*
X165212494Y-104034981D01*
X165163924Y-103917721D01*
X165163917Y-103917708D01*
X165083826Y-103797844D01*
X165076316Y-103786605D01*
X165076313Y-103786601D01*
X165026792Y-103737080D01*
X165892276Y-103737080D01*
X165892276Y-103888612D01*
X165899835Y-103916823D01*
X165931495Y-104034982D01*
X165947898Y-104063392D01*
X166007261Y-104166211D01*
X166114411Y-104273361D01*
X166245641Y-104349127D01*
X166392010Y-104388346D01*
X166392012Y-104388346D01*
X166543540Y-104388346D01*
X166543542Y-104388346D01*
X166689911Y-104349127D01*
X166821141Y-104273361D01*
X166928291Y-104166211D01*
X167004057Y-104034981D01*
X167043276Y-103888612D01*
X167043276Y-103737080D01*
X167004057Y-103590711D01*
X167001686Y-103586605D01*
X166980326Y-103549608D01*
X166928291Y-103459481D01*
X166821141Y-103352331D01*
X166755526Y-103314448D01*
X166689912Y-103276565D01*
X166616726Y-103256955D01*
X166543542Y-103237346D01*
X166392010Y-103237346D01*
X166245639Y-103276565D01*
X166114411Y-103352331D01*
X166114408Y-103352333D01*
X166007263Y-103459478D01*
X166007261Y-103459481D01*
X165931495Y-103590709D01*
X165895639Y-103724528D01*
X165892276Y-103737080D01*
X165026792Y-103737080D01*
X164964819Y-103675107D01*
X164964815Y-103675104D01*
X164833712Y-103587503D01*
X164833699Y-103587496D01*
X164688028Y-103527158D01*
X164688016Y-103527155D01*
X164533372Y-103496394D01*
X164533369Y-103496394D01*
X164375685Y-103496394D01*
X164375682Y-103496394D01*
X164221032Y-103527155D01*
X164221024Y-103527158D01*
X164166823Y-103549608D01*
X164097354Y-103557075D01*
X164071922Y-103549608D01*
X164015552Y-103526259D01*
X164015548Y-103526258D01*
X164015543Y-103526256D01*
X163860900Y-103495496D01*
X163860897Y-103495496D01*
X163703213Y-103495496D01*
X163703210Y-103495496D01*
X163548565Y-103526257D01*
X163548553Y-103526260D01*
X163402882Y-103586598D01*
X163402869Y-103586605D01*
X163271766Y-103674206D01*
X163271762Y-103674209D01*
X163160268Y-103785703D01*
X163160265Y-103785707D01*
X163072664Y-103916810D01*
X163072657Y-103916823D01*
X163012319Y-104062494D01*
X163012316Y-104062506D01*
X162981555Y-104217149D01*
X161608757Y-104217149D01*
X161629856Y-104166211D01*
X161630934Y-104163609D01*
X161630934Y-104163608D01*
X161655618Y-104104016D01*
X161680617Y-103978341D01*
X161680617Y-103850203D01*
X161680617Y-103850200D01*
X161655619Y-103724533D01*
X161655618Y-103724532D01*
X161655618Y-103724528D01*
X161606582Y-103606145D01*
X161606581Y-103606144D01*
X161606578Y-103606138D01*
X161535393Y-103499603D01*
X161535390Y-103499599D01*
X161444789Y-103408998D01*
X161444785Y-103408995D01*
X161338250Y-103337810D01*
X161338241Y-103337805D01*
X161219861Y-103288771D01*
X161219855Y-103288769D01*
X161094188Y-103263772D01*
X161094186Y-103263772D01*
X160966048Y-103263772D01*
X160966043Y-103263772D01*
X160890552Y-103278788D01*
X160820960Y-103272561D01*
X160765783Y-103229697D01*
X160742539Y-103163807D01*
X160751801Y-103109717D01*
X160772499Y-103059749D01*
X160772499Y-103059748D01*
X160772501Y-103059744D01*
X160797500Y-102934069D01*
X160797500Y-102805931D01*
X160797500Y-102805928D01*
X160772502Y-102680261D01*
X160772501Y-102680260D01*
X160772501Y-102680256D01*
X160723465Y-102561873D01*
X160723464Y-102561872D01*
X160723461Y-102561866D01*
X160652276Y-102455331D01*
X160652273Y-102455327D01*
X160561672Y-102364726D01*
X160561668Y-102364723D01*
X160455133Y-102293538D01*
X160455124Y-102293533D01*
X160336744Y-102244499D01*
X160336738Y-102244497D01*
X160211071Y-102219500D01*
X160211069Y-102219500D01*
X160082931Y-102219500D01*
X160082929Y-102219500D01*
X159957261Y-102244497D01*
X159957255Y-102244499D01*
X159838875Y-102293533D01*
X159838866Y-102293538D01*
X159732331Y-102364723D01*
X159732327Y-102364726D01*
X159641726Y-102455327D01*
X159641723Y-102455331D01*
X159570538Y-102561866D01*
X159570533Y-102561875D01*
X159521499Y-102680255D01*
X159521497Y-102680261D01*
X159496500Y-102805928D01*
X159496500Y-102805931D01*
X159496500Y-102934069D01*
X159496500Y-102934071D01*
X159496499Y-102934071D01*
X106880500Y-102934071D01*
X106880500Y-97666702D01*
X111922500Y-97666702D01*
X111922500Y-99857292D01*
X111922501Y-99857298D01*
X111932718Y-100002027D01*
X111932718Y-100002031D01*
X111932719Y-100002034D01*
X111932720Y-100002038D01*
X111986834Y-100242314D01*
X111986835Y-100242319D01*
X112058466Y-100420298D01*
X112078795Y-100470809D01*
X112206216Y-100681589D01*
X112249645Y-100732646D01*
X112365798Y-100869201D01*
X112475990Y-100962930D01*
X112553411Y-101028784D01*
X112764191Y-101156205D01*
X112992683Y-101248165D01*
X113232966Y-101302281D01*
X113377705Y-101312500D01*
X115568294Y-101312499D01*
X115713034Y-101302281D01*
X115953317Y-101248165D01*
X116181809Y-101156205D01*
X116392589Y-101028784D01*
X116580201Y-100869201D01*
X116739784Y-100681589D01*
X116804247Y-100574953D01*
X147662500Y-100574953D01*
X147662500Y-100732646D01*
X147693261Y-100887289D01*
X147693264Y-100887301D01*
X147753602Y-101032972D01*
X147753609Y-101032985D01*
X147841210Y-101164088D01*
X147841213Y-101164092D01*
X147952707Y-101275586D01*
X147952711Y-101275589D01*
X148083814Y-101363190D01*
X148083827Y-101363197D01*
X148229498Y-101423535D01*
X148229503Y-101423537D01*
X148384153Y-101454299D01*
X148384156Y-101454300D01*
X148384158Y-101454300D01*
X148541844Y-101454300D01*
X148541845Y-101454299D01*
X148696497Y-101423537D01*
X148842179Y-101363194D01*
X148973289Y-101275589D01*
X149084789Y-101164089D01*
X149172394Y-101032979D01*
X149232737Y-100887297D01*
X149263500Y-100732642D01*
X149263500Y-100574958D01*
X149263500Y-100574955D01*
X149263499Y-100574953D01*
X149249528Y-100504716D01*
X149232737Y-100420303D01*
X149232735Y-100420298D01*
X149172397Y-100274627D01*
X149172390Y-100274614D01*
X149084789Y-100143511D01*
X149084786Y-100143507D01*
X148973292Y-100032013D01*
X148973288Y-100032010D01*
X148842185Y-99944409D01*
X148842172Y-99944402D01*
X148696501Y-99884064D01*
X148696489Y-99884061D01*
X148541845Y-99853300D01*
X148541842Y-99853300D01*
X148384158Y-99853300D01*
X148384155Y-99853300D01*
X148229510Y-99884061D01*
X148229498Y-99884064D01*
X148083827Y-99944402D01*
X148083814Y-99944409D01*
X147952711Y-100032010D01*
X147952707Y-100032013D01*
X147841213Y-100143507D01*
X147841210Y-100143511D01*
X147753609Y-100274614D01*
X147753602Y-100274627D01*
X147693264Y-100420298D01*
X147693261Y-100420310D01*
X147662500Y-100574953D01*
X116804247Y-100574953D01*
X116815669Y-100556058D01*
X116846708Y-100504716D01*
X116846709Y-100504714D01*
X116867198Y-100470820D01*
X116867205Y-100470809D01*
X116959165Y-100242317D01*
X117013281Y-100002034D01*
X117023500Y-99857295D01*
X117023499Y-98489071D01*
X143367499Y-98489071D01*
X143392497Y-98614738D01*
X143392499Y-98614744D01*
X143441533Y-98733124D01*
X143441538Y-98733133D01*
X143512723Y-98839668D01*
X143512726Y-98839672D01*
X143603327Y-98930273D01*
X143603331Y-98930276D01*
X143709866Y-99001461D01*
X143709872Y-99001464D01*
X143709873Y-99001465D01*
X143828256Y-99050501D01*
X143828260Y-99050501D01*
X143828261Y-99050502D01*
X143953928Y-99075500D01*
X143953931Y-99075500D01*
X144082071Y-99075500D01*
X144166615Y-99058682D01*
X144207744Y-99050501D01*
X144326127Y-99001465D01*
X144432669Y-98930276D01*
X144523276Y-98839669D01*
X144594465Y-98733127D01*
X144643501Y-98614744D01*
X144668500Y-98489069D01*
X144668500Y-98360931D01*
X144668500Y-98360928D01*
X144643502Y-98235261D01*
X144643501Y-98235260D01*
X144643501Y-98235256D01*
X144594465Y-98116873D01*
X144594464Y-98116872D01*
X144594461Y-98116866D01*
X144523276Y-98010331D01*
X144523273Y-98010327D01*
X144432672Y-97919726D01*
X144432668Y-97919723D01*
X144326133Y-97848538D01*
X144326124Y-97848533D01*
X144207744Y-97799499D01*
X144207738Y-97799497D01*
X144082071Y-97774500D01*
X144082069Y-97774500D01*
X143953931Y-97774500D01*
X143953929Y-97774500D01*
X143828261Y-97799497D01*
X143828255Y-97799499D01*
X143709875Y-97848533D01*
X143709866Y-97848538D01*
X143603331Y-97919723D01*
X143603327Y-97919726D01*
X143512726Y-98010327D01*
X143512723Y-98010331D01*
X143441538Y-98116866D01*
X143441533Y-98116875D01*
X143392499Y-98235255D01*
X143392497Y-98235261D01*
X143367500Y-98360928D01*
X143367500Y-98360931D01*
X143367500Y-98489069D01*
X143367500Y-98489071D01*
X143367499Y-98489071D01*
X117023499Y-98489071D01*
X117023499Y-97666706D01*
X117013281Y-97521966D01*
X116959165Y-97281683D01*
X116867205Y-97053191D01*
X116739784Y-96842411D01*
X116673930Y-96764990D01*
X116580201Y-96654798D01*
X116439948Y-96535500D01*
X116392589Y-96495216D01*
X116267412Y-96419544D01*
X116262913Y-96416824D01*
X116181814Y-96367798D01*
X116181809Y-96367795D01*
X116055088Y-96316794D01*
X147662500Y-96316794D01*
X147662500Y-96474487D01*
X147693261Y-96629130D01*
X147693264Y-96629142D01*
X147753602Y-96774813D01*
X147753609Y-96774826D01*
X147841210Y-96905929D01*
X147841213Y-96905933D01*
X147952707Y-97017427D01*
X147952711Y-97017430D01*
X148083814Y-97105031D01*
X148083827Y-97105038D01*
X148176049Y-97143237D01*
X148229503Y-97165378D01*
X148384153Y-97196140D01*
X148384156Y-97196141D01*
X148384158Y-97196141D01*
X148541844Y-97196141D01*
X148541845Y-97196140D01*
X148696497Y-97165378D01*
X148807424Y-97119430D01*
X148876890Y-97111962D01*
X148939369Y-97143237D01*
X148957976Y-97165101D01*
X148973723Y-97188668D01*
X148973726Y-97188672D01*
X149064327Y-97279273D01*
X149064331Y-97279276D01*
X149170866Y-97350461D01*
X149170872Y-97350464D01*
X149170873Y-97350465D01*
X149289256Y-97399501D01*
X149289260Y-97399501D01*
X149289261Y-97399502D01*
X149414928Y-97424500D01*
X149414931Y-97424500D01*
X149543071Y-97424500D01*
X149627615Y-97407682D01*
X149668744Y-97399501D01*
X149787127Y-97350465D01*
X149893669Y-97279276D01*
X149984276Y-97188669D01*
X150055465Y-97082127D01*
X150104501Y-96963744D01*
X150116001Y-96905930D01*
X150129500Y-96838071D01*
X150129500Y-96783256D01*
X150149185Y-96716217D01*
X150201989Y-96670462D01*
X150271147Y-96660518D01*
X150277678Y-96661636D01*
X150323875Y-96670825D01*
X150385785Y-96703209D01*
X150396500Y-96716033D01*
X150396852Y-96715745D01*
X150400716Y-96720454D01*
X150491313Y-96811051D01*
X150491317Y-96811054D01*
X150597852Y-96882239D01*
X150597858Y-96882242D01*
X150597859Y-96882243D01*
X150716242Y-96931279D01*
X150716246Y-96931279D01*
X150716247Y-96931280D01*
X150841914Y-96956278D01*
X150841917Y-96956278D01*
X150970057Y-96956278D01*
X151095725Y-96931280D01*
X151095725Y-96931279D01*
X151095730Y-96931279D01*
X151127452Y-96918139D01*
X151196922Y-96910669D01*
X151212734Y-96915313D01*
X151212874Y-96914855D01*
X151218700Y-96916622D01*
X151218702Y-96916623D01*
X151218704Y-96916623D01*
X151218706Y-96916624D01*
X151344374Y-96941622D01*
X151344377Y-96941622D01*
X151472517Y-96941622D01*
X151557061Y-96924804D01*
X151598190Y-96916623D01*
X151716573Y-96867587D01*
X151823115Y-96796398D01*
X151913722Y-96705791D01*
X151984911Y-96599249D01*
X152002350Y-96557147D01*
X152046189Y-96502747D01*
X152112483Y-96480681D01*
X152164359Y-96490040D01*
X152213756Y-96510501D01*
X152213760Y-96510501D01*
X152213761Y-96510502D01*
X152339428Y-96535500D01*
X152339431Y-96535500D01*
X152467571Y-96535500D01*
X152552115Y-96518682D01*
X152593244Y-96510501D01*
X152606047Y-96505197D01*
X152675513Y-96497728D01*
X152700947Y-96505195D01*
X152713756Y-96510501D01*
X152713760Y-96510501D01*
X152713761Y-96510502D01*
X152839428Y-96535500D01*
X152839431Y-96535500D01*
X152967571Y-96535500D01*
X153052115Y-96518682D01*
X153093244Y-96510501D01*
X153211627Y-96461465D01*
X153318169Y-96390276D01*
X153408776Y-96299669D01*
X153479965Y-96193127D01*
X153529001Y-96074744D01*
X153554000Y-95949069D01*
X153554000Y-95820931D01*
X153554000Y-95820928D01*
X153529002Y-95695261D01*
X153529001Y-95695260D01*
X153529001Y-95695256D01*
X153479965Y-95576873D01*
X153479964Y-95576872D01*
X153479961Y-95576866D01*
X153408776Y-95470331D01*
X153408773Y-95470327D01*
X153318172Y-95379726D01*
X153318168Y-95379723D01*
X153211633Y-95308538D01*
X153211624Y-95308533D01*
X153093244Y-95259499D01*
X153093238Y-95259497D01*
X152967571Y-95234500D01*
X152967569Y-95234500D01*
X152839431Y-95234500D01*
X152839429Y-95234500D01*
X152713757Y-95259498D01*
X152713755Y-95259498D01*
X152700949Y-95264803D01*
X152631479Y-95272269D01*
X152606051Y-95264803D01*
X152593243Y-95259498D01*
X152467571Y-95234500D01*
X152467569Y-95234500D01*
X152339431Y-95234500D01*
X152339429Y-95234500D01*
X152213761Y-95259497D01*
X152213755Y-95259499D01*
X152095375Y-95308533D01*
X152095366Y-95308538D01*
X151988831Y-95379723D01*
X151988827Y-95379726D01*
X151898226Y-95470327D01*
X151898223Y-95470331D01*
X151827038Y-95576866D01*
X151827030Y-95576881D01*
X151809595Y-95618973D01*
X151765753Y-95673376D01*
X151699459Y-95695440D01*
X151647582Y-95686080D01*
X151633572Y-95680277D01*
X151598190Y-95665621D01*
X151598184Y-95665619D01*
X151472517Y-95640622D01*
X151472515Y-95640622D01*
X151344377Y-95640622D01*
X151344375Y-95640622D01*
X151218708Y-95665619D01*
X151218705Y-95665620D01*
X151218703Y-95665620D01*
X151218702Y-95665621D01*
X151214168Y-95667499D01*
X151186973Y-95678763D01*
X151117503Y-95686229D01*
X151101695Y-95681589D01*
X151101557Y-95682045D01*
X151095724Y-95680275D01*
X151041619Y-95669513D01*
X150979708Y-95637128D01*
X150945134Y-95576412D01*
X150948875Y-95506642D01*
X150962707Y-95479007D01*
X150994700Y-95431127D01*
X151043736Y-95312744D01*
X151059300Y-95234500D01*
X151068735Y-95187071D01*
X151068735Y-95058928D01*
X151043737Y-94933261D01*
X151043736Y-94933260D01*
X151043736Y-94933256D01*
X150994700Y-94814873D01*
X150994699Y-94814872D01*
X150994696Y-94814866D01*
X150923511Y-94708331D01*
X150923508Y-94708327D01*
X150832907Y-94617726D01*
X150832903Y-94617723D01*
X150726368Y-94546538D01*
X150726359Y-94546533D01*
X150607979Y-94497499D01*
X150607973Y-94497497D01*
X150482306Y-94472500D01*
X150482304Y-94472500D01*
X150354166Y-94472500D01*
X150354164Y-94472500D01*
X150251473Y-94492927D01*
X150181881Y-94486700D01*
X150179829Y-94485871D01*
X150133969Y-94466875D01*
X150133959Y-94466872D01*
X150008292Y-94441875D01*
X150008290Y-94441875D01*
X149880152Y-94441875D01*
X149880150Y-94441875D01*
X149754482Y-94466872D01*
X149754476Y-94466874D01*
X149636096Y-94515908D01*
X149636087Y-94515913D01*
X149529552Y-94587098D01*
X149529548Y-94587101D01*
X149438947Y-94677702D01*
X149438944Y-94677706D01*
X149367759Y-94784241D01*
X149367754Y-94784250D01*
X149318720Y-94902630D01*
X149318718Y-94902636D01*
X149293721Y-95028303D01*
X149293721Y-95028306D01*
X149293721Y-95156444D01*
X149293721Y-95156446D01*
X149293720Y-95156446D01*
X149318718Y-95282113D01*
X149318720Y-95282119D01*
X149367754Y-95400499D01*
X149367759Y-95400508D01*
X149438944Y-95507043D01*
X149438947Y-95507047D01*
X149529548Y-95597648D01*
X149529552Y-95597651D01*
X149636087Y-95668836D01*
X149636096Y-95668841D01*
X149712250Y-95700385D01*
X149766653Y-95744226D01*
X149788718Y-95810520D01*
X149786414Y-95839137D01*
X149762141Y-95961164D01*
X149762141Y-96015981D01*
X149742456Y-96083020D01*
X149689652Y-96128775D01*
X149620494Y-96138719D01*
X149613950Y-96137598D01*
X149543073Y-96123500D01*
X149543069Y-96123500D01*
X149414931Y-96123500D01*
X149414929Y-96123500D01*
X149331627Y-96140070D01*
X149262035Y-96133843D01*
X149206858Y-96090980D01*
X149192874Y-96065905D01*
X149172397Y-96016467D01*
X149172390Y-96016455D01*
X149084789Y-95885352D01*
X149084786Y-95885348D01*
X148973292Y-95773854D01*
X148973288Y-95773851D01*
X148842185Y-95686250D01*
X148842172Y-95686243D01*
X148696501Y-95625905D01*
X148696489Y-95625902D01*
X148541845Y-95595141D01*
X148541842Y-95595141D01*
X148384158Y-95595141D01*
X148384155Y-95595141D01*
X148229510Y-95625902D01*
X148229498Y-95625905D01*
X148083827Y-95686243D01*
X148083814Y-95686250D01*
X147952711Y-95773851D01*
X147952707Y-95773854D01*
X147841213Y-95885348D01*
X147841210Y-95885352D01*
X147753609Y-96016455D01*
X147753602Y-96016468D01*
X147693264Y-96162139D01*
X147693261Y-96162151D01*
X147662500Y-96316794D01*
X116055088Y-96316794D01*
X115953318Y-96275835D01*
X115713036Y-96221719D01*
X115713029Y-96221718D01*
X115568296Y-96211500D01*
X113377707Y-96211500D01*
X113377701Y-96211501D01*
X113232972Y-96221718D01*
X113232966Y-96221718D01*
X113232966Y-96221719D01*
X113232963Y-96221719D01*
X113232961Y-96221720D01*
X112992685Y-96275834D01*
X112992680Y-96275835D01*
X112764190Y-96367795D01*
X112764185Y-96367798D01*
X112553417Y-96495212D01*
X112553407Y-96495219D01*
X112365798Y-96654798D01*
X112206219Y-96842407D01*
X112206212Y-96842417D01*
X112078798Y-97053185D01*
X112078795Y-97053190D01*
X111986835Y-97281680D01*
X111986835Y-97281682D01*
X111932719Y-97521963D01*
X111932718Y-97521970D01*
X111922500Y-97666702D01*
X106880500Y-97666702D01*
X106880500Y-96478244D01*
X106900185Y-96411205D01*
X106952989Y-96365450D01*
X107022147Y-96355506D01*
X107085703Y-96384531D01*
X107103767Y-96403934D01*
X107115454Y-96419546D01*
X107115455Y-96419547D01*
X107230664Y-96505793D01*
X107230671Y-96505797D01*
X107365517Y-96556091D01*
X107365516Y-96556091D01*
X107372444Y-96556835D01*
X107425127Y-96562500D01*
X109520872Y-96562499D01*
X109580483Y-96556091D01*
X109715331Y-96505796D01*
X109830546Y-96419546D01*
X109916796Y-96304331D01*
X109967091Y-96169483D01*
X109973500Y-96109873D01*
X109973499Y-95114128D01*
X109967688Y-95060069D01*
X109967091Y-95054516D01*
X109916797Y-94919671D01*
X109916793Y-94919664D01*
X109830547Y-94804455D01*
X109830544Y-94804452D01*
X109715335Y-94718206D01*
X109715328Y-94718202D01*
X109580482Y-94667908D01*
X109580483Y-94667908D01*
X109520883Y-94661501D01*
X109520881Y-94661500D01*
X109520873Y-94661500D01*
X109520864Y-94661500D01*
X107425129Y-94661500D01*
X107425123Y-94661501D01*
X107365516Y-94667908D01*
X107230671Y-94718202D01*
X107230664Y-94718206D01*
X107115456Y-94804451D01*
X107115454Y-94804454D01*
X107103764Y-94820069D01*
X107047831Y-94861938D01*
X106978139Y-94866921D01*
X106916817Y-94833434D01*
X106883333Y-94772111D01*
X106880500Y-94745755D01*
X106880500Y-94027407D01*
X154014905Y-94027407D01*
X154014905Y-94185100D01*
X154045666Y-94339743D01*
X154045668Y-94339751D01*
X154077470Y-94416529D01*
X154087774Y-94441405D01*
X154095242Y-94510875D01*
X154087774Y-94536308D01*
X154054055Y-94617716D01*
X154054053Y-94617721D01*
X154023293Y-94772363D01*
X154023293Y-94930056D01*
X154054054Y-95084699D01*
X154054057Y-95084711D01*
X154111380Y-95223102D01*
X154118849Y-95292571D01*
X154111380Y-95318006D01*
X154055095Y-95453890D01*
X154055092Y-95453902D01*
X154024331Y-95608545D01*
X154024331Y-95766238D01*
X154055092Y-95920881D01*
X154055095Y-95920893D01*
X154115433Y-96066564D01*
X154115440Y-96066577D01*
X154203041Y-96197680D01*
X154203044Y-96197684D01*
X154314538Y-96309178D01*
X154314542Y-96309181D01*
X154445645Y-96396782D01*
X154445658Y-96396789D01*
X154591329Y-96457127D01*
X154591334Y-96457129D01*
X154734175Y-96485542D01*
X154745984Y-96487891D01*
X154745987Y-96487892D01*
X154745989Y-96487892D01*
X154903675Y-96487892D01*
X154903676Y-96487891D01*
X155058328Y-96457129D01*
X155154701Y-96417209D01*
X155224168Y-96409741D01*
X155249600Y-96417208D01*
X155347778Y-96457875D01*
X155498678Y-96487891D01*
X155502428Y-96488637D01*
X155502431Y-96488638D01*
X155502433Y-96488638D01*
X155660119Y-96488638D01*
X155660120Y-96488637D01*
X155814772Y-96457875D01*
X155944998Y-96403934D01*
X155960447Y-96397535D01*
X155960447Y-96397534D01*
X155960454Y-96397532D01*
X156091564Y-96309927D01*
X156203064Y-96198427D01*
X156290669Y-96067317D01*
X156351012Y-95921635D01*
X156381775Y-95766980D01*
X156381775Y-95609296D01*
X156381775Y-95609293D01*
X156381774Y-95609291D01*
X156361436Y-95507047D01*
X156351012Y-95454641D01*
X156293686Y-95316244D01*
X156286218Y-95246778D01*
X156293685Y-95221347D01*
X156349974Y-95085453D01*
X156355023Y-95060071D01*
X160385499Y-95060071D01*
X160410497Y-95185738D01*
X160410499Y-95185744D01*
X160459533Y-95304124D01*
X160459538Y-95304133D01*
X160530723Y-95410668D01*
X160530726Y-95410672D01*
X160621327Y-95501273D01*
X160621331Y-95501276D01*
X160727866Y-95572461D01*
X160727875Y-95572466D01*
X160754692Y-95583574D01*
X160846256Y-95621501D01*
X160846260Y-95621501D01*
X160846261Y-95621502D01*
X160971928Y-95646500D01*
X160971931Y-95646500D01*
X161100071Y-95646500D01*
X161184615Y-95629682D01*
X161225744Y-95621501D01*
X161344127Y-95572465D01*
X161450669Y-95501276D01*
X161541276Y-95410669D01*
X161612465Y-95304127D01*
X161661501Y-95185744D01*
X161681451Y-95085453D01*
X161686500Y-95060071D01*
X161686500Y-94931928D01*
X161661502Y-94806261D01*
X161661501Y-94806260D01*
X161661501Y-94806256D01*
X161612465Y-94687873D01*
X161612464Y-94687872D01*
X161612461Y-94687866D01*
X161576461Y-94633988D01*
X161541276Y-94581331D01*
X161541273Y-94581327D01*
X161531130Y-94571184D01*
X162977276Y-94571184D01*
X162977276Y-94728877D01*
X163008037Y-94883520D01*
X163008040Y-94883532D01*
X163068378Y-95029203D01*
X163068385Y-95029216D01*
X163155986Y-95160319D01*
X163155989Y-95160323D01*
X163267483Y-95271817D01*
X163267487Y-95271820D01*
X163398590Y-95359421D01*
X163398603Y-95359428D01*
X163522309Y-95410668D01*
X163544279Y-95419768D01*
X163672958Y-95445364D01*
X163698929Y-95450530D01*
X163698932Y-95450531D01*
X163698934Y-95450531D01*
X163856620Y-95450531D01*
X163856621Y-95450530D01*
X164011273Y-95419768D01*
X164065477Y-95397315D01*
X164134944Y-95389847D01*
X164160372Y-95397313D01*
X164216751Y-95420666D01*
X164371401Y-95451428D01*
X164371404Y-95451429D01*
X164371406Y-95451429D01*
X164529092Y-95451429D01*
X164529093Y-95451428D01*
X164683745Y-95420666D01*
X164829427Y-95360323D01*
X164960537Y-95272718D01*
X165072037Y-95161218D01*
X165159642Y-95030108D01*
X165165389Y-95016234D01*
X165892500Y-95016234D01*
X165892500Y-95167766D01*
X165910381Y-95234500D01*
X165931719Y-95314136D01*
X165968396Y-95377661D01*
X166007485Y-95445365D01*
X166114635Y-95552515D01*
X166212977Y-95609293D01*
X166241749Y-95625905D01*
X166245865Y-95628281D01*
X166392234Y-95667500D01*
X166392236Y-95667500D01*
X166543764Y-95667500D01*
X166543766Y-95667500D01*
X166690135Y-95628281D01*
X166821365Y-95552515D01*
X166928515Y-95445365D01*
X167004281Y-95314135D01*
X167043500Y-95167766D01*
X167043500Y-95016234D01*
X167004281Y-94869865D01*
X166928515Y-94738635D01*
X166821365Y-94631485D01*
X166734489Y-94581327D01*
X166690136Y-94555719D01*
X166616950Y-94536109D01*
X166543766Y-94516500D01*
X166392234Y-94516500D01*
X166245863Y-94555719D01*
X166114635Y-94631485D01*
X166114632Y-94631487D01*
X166007487Y-94738632D01*
X166007485Y-94738635D01*
X165931719Y-94869863D01*
X165914732Y-94933261D01*
X165892500Y-95016234D01*
X165165389Y-95016234D01*
X165219985Y-94884426D01*
X165250748Y-94729771D01*
X165250748Y-94572087D01*
X165250748Y-94572084D01*
X165250747Y-94572082D01*
X165239574Y-94515913D01*
X165219985Y-94417432D01*
X165188118Y-94340497D01*
X165159645Y-94271756D01*
X165159638Y-94271743D01*
X165072037Y-94140640D01*
X165072034Y-94140636D01*
X164960540Y-94029142D01*
X164960536Y-94029139D01*
X164829433Y-93941538D01*
X164829420Y-93941531D01*
X164683749Y-93881193D01*
X164683737Y-93881190D01*
X164529093Y-93850429D01*
X164529090Y-93850429D01*
X164371406Y-93850429D01*
X164371403Y-93850429D01*
X164216753Y-93881190D01*
X164216745Y-93881193D01*
X164162544Y-93903643D01*
X164093075Y-93911110D01*
X164067643Y-93903643D01*
X164011273Y-93880294D01*
X164011269Y-93880293D01*
X164011264Y-93880291D01*
X163856621Y-93849531D01*
X163856618Y-93849531D01*
X163698934Y-93849531D01*
X163698931Y-93849531D01*
X163544286Y-93880292D01*
X163544274Y-93880295D01*
X163398603Y-93940633D01*
X163398590Y-93940640D01*
X163267487Y-94028241D01*
X163267483Y-94028244D01*
X163155989Y-94139738D01*
X163155986Y-94139742D01*
X163068385Y-94270845D01*
X163068378Y-94270858D01*
X163008040Y-94416529D01*
X163008037Y-94416541D01*
X162977276Y-94571184D01*
X161531130Y-94571184D01*
X161450672Y-94490726D01*
X161450668Y-94490723D01*
X161344133Y-94419538D01*
X161344124Y-94419533D01*
X161225744Y-94370499D01*
X161225738Y-94370497D01*
X161100071Y-94345500D01*
X161100069Y-94345500D01*
X160971931Y-94345500D01*
X160971929Y-94345500D01*
X160846261Y-94370497D01*
X160846255Y-94370499D01*
X160727875Y-94419533D01*
X160727866Y-94419538D01*
X160621331Y-94490723D01*
X160621327Y-94490726D01*
X160530726Y-94581327D01*
X160530723Y-94581331D01*
X160459538Y-94687866D01*
X160459533Y-94687875D01*
X160410499Y-94806255D01*
X160410497Y-94806261D01*
X160385500Y-94931928D01*
X160385500Y-94931931D01*
X160385500Y-95060069D01*
X160385500Y-95060071D01*
X160385499Y-95060071D01*
X156355023Y-95060071D01*
X156380737Y-94930798D01*
X156380737Y-94773114D01*
X156380737Y-94773111D01*
X156380736Y-94773109D01*
X156359810Y-94667908D01*
X156349974Y-94618459D01*
X156307866Y-94516802D01*
X156300398Y-94447334D01*
X156307866Y-94421902D01*
X156341586Y-94340497D01*
X156372349Y-94185842D01*
X156372349Y-94028158D01*
X156372349Y-94028155D01*
X156372348Y-94028153D01*
X156355118Y-93941535D01*
X156341586Y-93873503D01*
X156331657Y-93849531D01*
X156281246Y-93727827D01*
X156281239Y-93727814D01*
X156193638Y-93596711D01*
X156193635Y-93596707D01*
X156082141Y-93485213D01*
X156082137Y-93485210D01*
X155951034Y-93397609D01*
X155951021Y-93397602D01*
X155805350Y-93337264D01*
X155805338Y-93337261D01*
X155650694Y-93306500D01*
X155650691Y-93306500D01*
X155493007Y-93306500D01*
X155493004Y-93306500D01*
X155338360Y-93337260D01*
X155338359Y-93337261D01*
X155338356Y-93337262D01*
X155338352Y-93337263D01*
X155241976Y-93377182D01*
X155172509Y-93384650D01*
X155147075Y-93377181D01*
X155048903Y-93336517D01*
X155048893Y-93336514D01*
X154894250Y-93305754D01*
X154894247Y-93305754D01*
X154736563Y-93305754D01*
X154736560Y-93305754D01*
X154581915Y-93336515D01*
X154581903Y-93336518D01*
X154436232Y-93396856D01*
X154436219Y-93396863D01*
X154305116Y-93484464D01*
X154305112Y-93484467D01*
X154193618Y-93595961D01*
X154193615Y-93595965D01*
X154106014Y-93727068D01*
X154106007Y-93727081D01*
X154045669Y-93872752D01*
X154045666Y-93872764D01*
X154014905Y-94027407D01*
X106880500Y-94027407D01*
X106880500Y-92383428D01*
X133381362Y-92383428D01*
X133381362Y-92541121D01*
X133412123Y-92695764D01*
X133412126Y-92695776D01*
X133472464Y-92841447D01*
X133472471Y-92841460D01*
X133560072Y-92972563D01*
X133560075Y-92972567D01*
X133671569Y-93084061D01*
X133671573Y-93084064D01*
X133802676Y-93171665D01*
X133802689Y-93171672D01*
X133945859Y-93230974D01*
X133948365Y-93232012D01*
X134055628Y-93253348D01*
X134103015Y-93262774D01*
X134103018Y-93262775D01*
X134103020Y-93262775D01*
X134260706Y-93262775D01*
X134260707Y-93262774D01*
X134415359Y-93232012D01*
X134553755Y-93174686D01*
X134623221Y-93167218D01*
X134648654Y-93174686D01*
X134784547Y-93230974D01*
X134939197Y-93261736D01*
X134939200Y-93261737D01*
X134939202Y-93261737D01*
X135096888Y-93261737D01*
X135096889Y-93261736D01*
X135251541Y-93230974D01*
X135353194Y-93188867D01*
X135422664Y-93181399D01*
X135448099Y-93188868D01*
X135529498Y-93222584D01*
X135529503Y-93222586D01*
X135684153Y-93253348D01*
X135684156Y-93253349D01*
X135684158Y-93253349D01*
X135841844Y-93253349D01*
X135841845Y-93253348D01*
X135996497Y-93222586D01*
X136119415Y-93171672D01*
X136142172Y-93162246D01*
X136142172Y-93162245D01*
X136142179Y-93162243D01*
X136273289Y-93074638D01*
X136384789Y-92963138D01*
X136472394Y-92832028D01*
X136532737Y-92686346D01*
X136563500Y-92531691D01*
X136563500Y-92374007D01*
X136563500Y-92374004D01*
X136563499Y-92374002D01*
X136543298Y-92272443D01*
X161386079Y-92272443D01*
X161411077Y-92398110D01*
X161411079Y-92398116D01*
X161460113Y-92516496D01*
X161460118Y-92516505D01*
X161531303Y-92623040D01*
X161531306Y-92623044D01*
X161621907Y-92713645D01*
X161621911Y-92713648D01*
X161728446Y-92784833D01*
X161728452Y-92784836D01*
X161728453Y-92784837D01*
X161846836Y-92833873D01*
X161846840Y-92833873D01*
X161846841Y-92833874D01*
X161972508Y-92858872D01*
X161972511Y-92858872D01*
X162100651Y-92858872D01*
X162188248Y-92841447D01*
X162226324Y-92833873D01*
X162344707Y-92784837D01*
X162451249Y-92713648D01*
X162541856Y-92623041D01*
X162613045Y-92516499D01*
X162662081Y-92398116D01*
X162687080Y-92272441D01*
X162687080Y-92144303D01*
X162687080Y-92144300D01*
X162662082Y-92018633D01*
X162662081Y-92018632D01*
X162662081Y-92018628D01*
X162613045Y-91900245D01*
X162613044Y-91900244D01*
X162613041Y-91900238D01*
X162541856Y-91793703D01*
X162541853Y-91793699D01*
X162451252Y-91703098D01*
X162451248Y-91703095D01*
X162344713Y-91631910D01*
X162344704Y-91631905D01*
X162226324Y-91582871D01*
X162226318Y-91582869D01*
X162100651Y-91557872D01*
X162100649Y-91557872D01*
X161972511Y-91557872D01*
X161972509Y-91557872D01*
X161846841Y-91582869D01*
X161846835Y-91582871D01*
X161728455Y-91631905D01*
X161728446Y-91631910D01*
X161621911Y-91703095D01*
X161621907Y-91703098D01*
X161531306Y-91793699D01*
X161531303Y-91793703D01*
X161460118Y-91900238D01*
X161460113Y-91900247D01*
X161411079Y-92018627D01*
X161411077Y-92018633D01*
X161386080Y-92144300D01*
X161386080Y-92144303D01*
X161386080Y-92272441D01*
X161386080Y-92272443D01*
X161386079Y-92272443D01*
X136543298Y-92272443D01*
X136532737Y-92219352D01*
X136492817Y-92122978D01*
X136485349Y-92053511D01*
X136492816Y-92028080D01*
X136533483Y-91929902D01*
X136564246Y-91775247D01*
X136564246Y-91617563D01*
X136564246Y-91617560D01*
X136564245Y-91617558D01*
X136557345Y-91582869D01*
X136533483Y-91462908D01*
X136533481Y-91462903D01*
X136497929Y-91377071D01*
X167497499Y-91377071D01*
X167522497Y-91502738D01*
X167522499Y-91502744D01*
X167571533Y-91621124D01*
X167571538Y-91621133D01*
X167642723Y-91727668D01*
X167642726Y-91727672D01*
X167733327Y-91818273D01*
X167733331Y-91818276D01*
X167839866Y-91889461D01*
X167839872Y-91889464D01*
X167839873Y-91889465D01*
X167958256Y-91938501D01*
X167958260Y-91938501D01*
X167958261Y-91938502D01*
X168083928Y-91963500D01*
X168083931Y-91963500D01*
X168212071Y-91963500D01*
X168333581Y-91939329D01*
X168337744Y-91938501D01*
X168456127Y-91889465D01*
X168562669Y-91818276D01*
X168653276Y-91727669D01*
X168724465Y-91621127D01*
X168773501Y-91502744D01*
X168798500Y-91377069D01*
X168798500Y-91248931D01*
X168798500Y-91248928D01*
X168773502Y-91123261D01*
X168773501Y-91123260D01*
X168773501Y-91123256D01*
X168724465Y-91004873D01*
X168724464Y-91004872D01*
X168724461Y-91004866D01*
X168653276Y-90898331D01*
X168653273Y-90898327D01*
X168562672Y-90807726D01*
X168562668Y-90807723D01*
X168456133Y-90736538D01*
X168456124Y-90736533D01*
X168337744Y-90687499D01*
X168337738Y-90687497D01*
X168212071Y-90662500D01*
X168212069Y-90662500D01*
X168083931Y-90662500D01*
X168083929Y-90662500D01*
X167958261Y-90687497D01*
X167958255Y-90687499D01*
X167839875Y-90736533D01*
X167839866Y-90736538D01*
X167733331Y-90807723D01*
X167733327Y-90807726D01*
X167642726Y-90898327D01*
X167642723Y-90898331D01*
X167571538Y-91004866D01*
X167571533Y-91004875D01*
X167522499Y-91123255D01*
X167522497Y-91123261D01*
X167497500Y-91248928D01*
X167497500Y-91248931D01*
X167497500Y-91377069D01*
X167497500Y-91377071D01*
X167497499Y-91377071D01*
X136497929Y-91377071D01*
X136473143Y-91317232D01*
X136473138Y-91317223D01*
X136469469Y-91311732D01*
X136469468Y-91311730D01*
X136385535Y-91186116D01*
X136385532Y-91186112D01*
X136274038Y-91074618D01*
X136274034Y-91074615D01*
X136142931Y-90987014D01*
X136142918Y-90987007D01*
X135997247Y-90926669D01*
X135997235Y-90926666D01*
X135842591Y-90895905D01*
X135842588Y-90895905D01*
X135684904Y-90895905D01*
X135684901Y-90895905D01*
X135530256Y-90926666D01*
X135530244Y-90926669D01*
X135428594Y-90968774D01*
X135359125Y-90976243D01*
X135333690Y-90968774D01*
X135252288Y-90935056D01*
X135252278Y-90935053D01*
X135097635Y-90904293D01*
X135097632Y-90904293D01*
X134939948Y-90904293D01*
X134939945Y-90904293D01*
X134785300Y-90935054D01*
X134785288Y-90935057D01*
X134646898Y-90992380D01*
X134577429Y-90999849D01*
X134551994Y-90992380D01*
X134416109Y-90936095D01*
X134416097Y-90936092D01*
X134261453Y-90905331D01*
X134261450Y-90905331D01*
X134103766Y-90905331D01*
X134103763Y-90905331D01*
X133949118Y-90936092D01*
X133949106Y-90936095D01*
X133803435Y-90996433D01*
X133803422Y-90996440D01*
X133672319Y-91084041D01*
X133672315Y-91084044D01*
X133560821Y-91195538D01*
X133560818Y-91195542D01*
X133473217Y-91326645D01*
X133473210Y-91326658D01*
X133412872Y-91472329D01*
X133412869Y-91472341D01*
X133382108Y-91626984D01*
X133382108Y-91784677D01*
X133412868Y-91939319D01*
X133412871Y-91939329D01*
X133452789Y-92035700D01*
X133460258Y-92105169D01*
X133452792Y-92130596D01*
X133412125Y-92228778D01*
X133412124Y-92228782D01*
X133412123Y-92228785D01*
X133412122Y-92228786D01*
X133381362Y-92383428D01*
X106880500Y-92383428D01*
X106880500Y-89834078D01*
X151305662Y-89834078D01*
X151330660Y-89959745D01*
X151330662Y-89959751D01*
X151379696Y-90078131D01*
X151379701Y-90078140D01*
X151450886Y-90184675D01*
X151450889Y-90184679D01*
X151541490Y-90275280D01*
X151541498Y-90275286D01*
X151648025Y-90346465D01*
X151648027Y-90346466D01*
X151648036Y-90346472D01*
X151672951Y-90356792D01*
X151727355Y-90400631D01*
X151749421Y-90466925D01*
X151749500Y-90471353D01*
X151749500Y-90488069D01*
X151749500Y-90488071D01*
X151749499Y-90488071D01*
X151774497Y-90613738D01*
X151774499Y-90613744D01*
X151823533Y-90732124D01*
X151823538Y-90732133D01*
X151894723Y-90838668D01*
X151894726Y-90838672D01*
X151985327Y-90929273D01*
X151985331Y-90929276D01*
X152091866Y-91000461D01*
X152091875Y-91000466D01*
X152118692Y-91011574D01*
X152210256Y-91049501D01*
X152210260Y-91049501D01*
X152210261Y-91049502D01*
X152335928Y-91074500D01*
X152335931Y-91074500D01*
X152464071Y-91074500D01*
X152548615Y-91057682D01*
X152589744Y-91049501D01*
X152708127Y-91000465D01*
X152814669Y-90929276D01*
X152905276Y-90838669D01*
X152976465Y-90732127D01*
X153025501Y-90613744D01*
X153039701Y-90542357D01*
X153050500Y-90488071D01*
X153050500Y-90359928D01*
X153025502Y-90234261D01*
X153025501Y-90234260D01*
X153025501Y-90234256D01*
X152976465Y-90115873D01*
X152976464Y-90115872D01*
X152976461Y-90115866D01*
X152905276Y-90009331D01*
X152905273Y-90009327D01*
X152814672Y-89918726D01*
X152814668Y-89918723D01*
X152708133Y-89847538D01*
X152708121Y-89847532D01*
X152683208Y-89837212D01*
X152628805Y-89793370D01*
X152606742Y-89727075D01*
X152606663Y-89722652D01*
X152606663Y-89705935D01*
X152581665Y-89580268D01*
X152581664Y-89580267D01*
X152581664Y-89580263D01*
X152536849Y-89472071D01*
X152532629Y-89461882D01*
X152532624Y-89461873D01*
X152461439Y-89355338D01*
X152461436Y-89355334D01*
X152370835Y-89264733D01*
X152370831Y-89264730D01*
X152264296Y-89193545D01*
X152264287Y-89193540D01*
X152145907Y-89144506D01*
X152145901Y-89144504D01*
X152020234Y-89119507D01*
X152020232Y-89119507D01*
X151892094Y-89119507D01*
X151892092Y-89119507D01*
X151766424Y-89144504D01*
X151766418Y-89144506D01*
X151648038Y-89193540D01*
X151648029Y-89193545D01*
X151541494Y-89264730D01*
X151541490Y-89264733D01*
X151450889Y-89355334D01*
X151450886Y-89355338D01*
X151379701Y-89461873D01*
X151379696Y-89461882D01*
X151330662Y-89580262D01*
X151330660Y-89580268D01*
X151305663Y-89705935D01*
X151305663Y-89705938D01*
X151305663Y-89834076D01*
X151305663Y-89834078D01*
X151305662Y-89834078D01*
X106880500Y-89834078D01*
X106880500Y-88579462D01*
X131968626Y-88579462D01*
X131993624Y-88705129D01*
X131993626Y-88705135D01*
X132042660Y-88823515D01*
X132042665Y-88823524D01*
X132113850Y-88930059D01*
X132113853Y-88930063D01*
X132204454Y-89020664D01*
X132204458Y-89020667D01*
X132310993Y-89091852D01*
X132311002Y-89091857D01*
X132337819Y-89102965D01*
X132429383Y-89140892D01*
X132429387Y-89140892D01*
X132429388Y-89140893D01*
X132555055Y-89165891D01*
X132555058Y-89165891D01*
X132683198Y-89165891D01*
X132767742Y-89149073D01*
X132808871Y-89140892D01*
X132927254Y-89091856D01*
X133033796Y-89020667D01*
X133124403Y-88930060D01*
X133195592Y-88823518D01*
X133244628Y-88705135D01*
X133256933Y-88643276D01*
X133268798Y-88583628D01*
X135545243Y-88583628D01*
X135570241Y-88709295D01*
X135570243Y-88709301D01*
X135619277Y-88827681D01*
X135619282Y-88827690D01*
X135690467Y-88934225D01*
X135690470Y-88934229D01*
X135781071Y-89024830D01*
X135781075Y-89024833D01*
X135887610Y-89096018D01*
X135887616Y-89096021D01*
X135887617Y-89096022D01*
X136006000Y-89145058D01*
X136006004Y-89145058D01*
X136006005Y-89145059D01*
X136131672Y-89170057D01*
X136131675Y-89170057D01*
X136259815Y-89170057D01*
X136344359Y-89153239D01*
X136385488Y-89145058D01*
X136503871Y-89096022D01*
X136610413Y-89024833D01*
X136701020Y-88934226D01*
X136772209Y-88827684D01*
X136821245Y-88709301D01*
X136835367Y-88638308D01*
X136846244Y-88583628D01*
X136846244Y-88455485D01*
X136821246Y-88329818D01*
X136821245Y-88329817D01*
X136821245Y-88329813D01*
X136772209Y-88211430D01*
X136772208Y-88211429D01*
X136772205Y-88211423D01*
X136701020Y-88104888D01*
X136701017Y-88104884D01*
X136648012Y-88051879D01*
X142239361Y-88051879D01*
X142264359Y-88177546D01*
X142264361Y-88177552D01*
X142313395Y-88295932D01*
X142313400Y-88295941D01*
X142384585Y-88402476D01*
X142384588Y-88402480D01*
X142475189Y-88493081D01*
X142475193Y-88493084D01*
X142581728Y-88564269D01*
X142581734Y-88564272D01*
X142581735Y-88564273D01*
X142700118Y-88613309D01*
X142700122Y-88613309D01*
X142700123Y-88613310D01*
X142825790Y-88638308D01*
X142825793Y-88638308D01*
X142953933Y-88638308D01*
X143038477Y-88621490D01*
X143079606Y-88613309D01*
X143197989Y-88564273D01*
X143304531Y-88493084D01*
X143395138Y-88402477D01*
X143466327Y-88295935D01*
X143505207Y-88202071D01*
X144891499Y-88202071D01*
X144916497Y-88327738D01*
X144916499Y-88327744D01*
X144965533Y-88446124D01*
X144965538Y-88446133D01*
X145036723Y-88552668D01*
X145036726Y-88552672D01*
X145127327Y-88643273D01*
X145127331Y-88643276D01*
X145233866Y-88714461D01*
X145233875Y-88714466D01*
X145260692Y-88725574D01*
X145352256Y-88763501D01*
X145352260Y-88763501D01*
X145352261Y-88763502D01*
X145477928Y-88788500D01*
X145477931Y-88788500D01*
X145606071Y-88788500D01*
X145692773Y-88771253D01*
X145731744Y-88763501D01*
X145850127Y-88714465D01*
X145956669Y-88643276D01*
X146047276Y-88552669D01*
X146118465Y-88446127D01*
X146167501Y-88327744D01*
X146190638Y-88211430D01*
X146192500Y-88202071D01*
X146192500Y-88126153D01*
X154711520Y-88126153D01*
X154711520Y-88283846D01*
X154742281Y-88438489D01*
X154742284Y-88438501D01*
X154802622Y-88584172D01*
X154802629Y-88584185D01*
X154890230Y-88715288D01*
X154890233Y-88715292D01*
X155001727Y-88826786D01*
X155001731Y-88826789D01*
X155132834Y-88914390D01*
X155132847Y-88914397D01*
X155276017Y-88973699D01*
X155278523Y-88974737D01*
X155385786Y-88996073D01*
X155433173Y-89005499D01*
X155433176Y-89005500D01*
X155433178Y-89005500D01*
X155590864Y-89005500D01*
X155590865Y-89005499D01*
X155745517Y-88974737D01*
X155883913Y-88917411D01*
X155953379Y-88909943D01*
X155978812Y-88917411D01*
X156114705Y-88973699D01*
X156269355Y-89004461D01*
X156269358Y-89004462D01*
X156269360Y-89004462D01*
X156427046Y-89004462D01*
X156427047Y-89004461D01*
X156581699Y-88973699D01*
X156683352Y-88931592D01*
X156752822Y-88924124D01*
X156778257Y-88931593D01*
X156859656Y-88965309D01*
X156859661Y-88965311D01*
X157000506Y-88993327D01*
X157014311Y-88996073D01*
X157014314Y-88996074D01*
X157014316Y-88996074D01*
X157172002Y-88996074D01*
X157172003Y-88996073D01*
X157326655Y-88965311D01*
X157449573Y-88914397D01*
X157472330Y-88904971D01*
X157472330Y-88904970D01*
X157472337Y-88904968D01*
X157603447Y-88817363D01*
X157714947Y-88705863D01*
X157802552Y-88574753D01*
X157851711Y-88456071D01*
X159496499Y-88456071D01*
X159521497Y-88581738D01*
X159521499Y-88581744D01*
X159570533Y-88700124D01*
X159570538Y-88700133D01*
X159641723Y-88806668D01*
X159641726Y-88806672D01*
X159732327Y-88897273D01*
X159732331Y-88897276D01*
X159838866Y-88968461D01*
X159838875Y-88968466D01*
X159851509Y-88973699D01*
X159957256Y-89017501D01*
X159957260Y-89017501D01*
X159957261Y-89017502D01*
X160082928Y-89042500D01*
X160082931Y-89042500D01*
X160211070Y-89042500D01*
X160233203Y-89038096D01*
X160280212Y-89028746D01*
X160349803Y-89034973D01*
X160404981Y-89077835D01*
X160428226Y-89143724D01*
X160418966Y-89197813D01*
X160410500Y-89218251D01*
X160410497Y-89218261D01*
X160385500Y-89343928D01*
X160385500Y-89343931D01*
X160385500Y-89472069D01*
X160385500Y-89472071D01*
X160385499Y-89472071D01*
X160410497Y-89597738D01*
X160410499Y-89597744D01*
X160459533Y-89716124D01*
X160459538Y-89716133D01*
X160530723Y-89822668D01*
X160530726Y-89822672D01*
X160621327Y-89913273D01*
X160621331Y-89913276D01*
X160727866Y-89984461D01*
X160727872Y-89984464D01*
X160727873Y-89984465D01*
X160846256Y-90033501D01*
X160846260Y-90033501D01*
X160846261Y-90033502D01*
X160971928Y-90058500D01*
X160971931Y-90058500D01*
X161100071Y-90058500D01*
X161184615Y-90041682D01*
X161225744Y-90033501D01*
X161344127Y-89984465D01*
X161450669Y-89913276D01*
X161541276Y-89822669D01*
X161599266Y-89735880D01*
X162987261Y-89735880D01*
X162987261Y-89893573D01*
X163018022Y-90048216D01*
X163018025Y-90048228D01*
X163078363Y-90193899D01*
X163078370Y-90193912D01*
X163165971Y-90325015D01*
X163165974Y-90325019D01*
X163277468Y-90436513D01*
X163277472Y-90436516D01*
X163408575Y-90524117D01*
X163408588Y-90524124D01*
X163554259Y-90584462D01*
X163554264Y-90584464D01*
X163701433Y-90613738D01*
X163708914Y-90615226D01*
X163708917Y-90615227D01*
X163708919Y-90615227D01*
X163866605Y-90615227D01*
X163866606Y-90615226D01*
X164021258Y-90584464D01*
X164075462Y-90562011D01*
X164144929Y-90554543D01*
X164170357Y-90562009D01*
X164226736Y-90585362D01*
X164381386Y-90616124D01*
X164381389Y-90616125D01*
X164381391Y-90616125D01*
X164539077Y-90616125D01*
X164539078Y-90616124D01*
X164693730Y-90585362D01*
X164839412Y-90525019D01*
X164970522Y-90437414D01*
X165082022Y-90325914D01*
X165169627Y-90194804D01*
X165169997Y-90193912D01*
X165217954Y-90078131D01*
X165229970Y-90049122D01*
X165260733Y-89894467D01*
X165260733Y-89736783D01*
X165260733Y-89736780D01*
X165260732Y-89736778D01*
X165256623Y-89716120D01*
X165229970Y-89582128D01*
X165229200Y-89580268D01*
X165169630Y-89436452D01*
X165169623Y-89436439D01*
X165082022Y-89305335D01*
X165012921Y-89236234D01*
X165892500Y-89236234D01*
X165892500Y-89387765D01*
X165931719Y-89534136D01*
X165958909Y-89581230D01*
X166007485Y-89665365D01*
X166114635Y-89772515D01*
X166221261Y-89834076D01*
X166244567Y-89847532D01*
X166245865Y-89848281D01*
X166392234Y-89887500D01*
X166392236Y-89887500D01*
X166543764Y-89887500D01*
X166543766Y-89887500D01*
X166690135Y-89848281D01*
X166821365Y-89772515D01*
X166928515Y-89665365D01*
X167004281Y-89534135D01*
X167043500Y-89387766D01*
X167043500Y-89236234D01*
X167004281Y-89089865D01*
X166928515Y-88958635D01*
X166821365Y-88851485D01*
X166743740Y-88806668D01*
X166690136Y-88775719D01*
X166616950Y-88756109D01*
X166543766Y-88736500D01*
X166392234Y-88736500D01*
X166245863Y-88775719D01*
X166114635Y-88851485D01*
X166114632Y-88851487D01*
X166007487Y-88958632D01*
X166007485Y-88958635D01*
X165931719Y-89089863D01*
X165892500Y-89236234D01*
X165012921Y-89236234D01*
X164970525Y-89193838D01*
X164970521Y-89193835D01*
X164839418Y-89106234D01*
X164839405Y-89106227D01*
X164693734Y-89045889D01*
X164693722Y-89045886D01*
X164539078Y-89015125D01*
X164539075Y-89015125D01*
X164381391Y-89015125D01*
X164381388Y-89015125D01*
X164226738Y-89045886D01*
X164226730Y-89045889D01*
X164172529Y-89068339D01*
X164103060Y-89075806D01*
X164077628Y-89068339D01*
X164021258Y-89044990D01*
X164021254Y-89044989D01*
X164021249Y-89044987D01*
X163866606Y-89014227D01*
X163866603Y-89014227D01*
X163708919Y-89014227D01*
X163708916Y-89014227D01*
X163554271Y-89044988D01*
X163554259Y-89044991D01*
X163408588Y-89105329D01*
X163408575Y-89105336D01*
X163277472Y-89192937D01*
X163277468Y-89192940D01*
X163165974Y-89304434D01*
X163165971Y-89304438D01*
X163078370Y-89435541D01*
X163078363Y-89435554D01*
X163018025Y-89581225D01*
X163018022Y-89581237D01*
X162987261Y-89735880D01*
X161599266Y-89735880D01*
X161612465Y-89716127D01*
X161612468Y-89716120D01*
X161626460Y-89682341D01*
X161626460Y-89682340D01*
X161661501Y-89597744D01*
X161686500Y-89472069D01*
X161686500Y-89343931D01*
X161686500Y-89343928D01*
X161661502Y-89218261D01*
X161661501Y-89218260D01*
X161661501Y-89218256D01*
X161612465Y-89099873D01*
X161612464Y-89099872D01*
X161612461Y-89099866D01*
X161541276Y-88993331D01*
X161541273Y-88993327D01*
X161450672Y-88902726D01*
X161450668Y-88902723D01*
X161344133Y-88831538D01*
X161344124Y-88831533D01*
X161225744Y-88782499D01*
X161225738Y-88782497D01*
X161100071Y-88757500D01*
X161100069Y-88757500D01*
X160971931Y-88757500D01*
X160971926Y-88757500D01*
X160902786Y-88771253D01*
X160833194Y-88765026D01*
X160778017Y-88722163D01*
X160754773Y-88656273D01*
X160764034Y-88602183D01*
X160772501Y-88581744D01*
X160797500Y-88456069D01*
X160797500Y-88327931D01*
X160797500Y-88327928D01*
X160772502Y-88202261D01*
X160772501Y-88202260D01*
X160772501Y-88202256D01*
X160730444Y-88100722D01*
X160723466Y-88083875D01*
X160723461Y-88083866D01*
X160652276Y-87977331D01*
X160652273Y-87977327D01*
X160561672Y-87886726D01*
X160561668Y-87886723D01*
X160455133Y-87815538D01*
X160455124Y-87815533D01*
X160336744Y-87766499D01*
X160336738Y-87766497D01*
X160211071Y-87741500D01*
X160211069Y-87741500D01*
X160082931Y-87741500D01*
X160082929Y-87741500D01*
X159957261Y-87766497D01*
X159957255Y-87766499D01*
X159838875Y-87815533D01*
X159838866Y-87815538D01*
X159732331Y-87886723D01*
X159732327Y-87886726D01*
X159641726Y-87977327D01*
X159641723Y-87977331D01*
X159570538Y-88083866D01*
X159570533Y-88083875D01*
X159521499Y-88202255D01*
X159521497Y-88202261D01*
X159496500Y-88327928D01*
X159496500Y-88327931D01*
X159496500Y-88456069D01*
X159496500Y-88456071D01*
X159496499Y-88456071D01*
X157851711Y-88456071D01*
X157862895Y-88429071D01*
X157893658Y-88274416D01*
X157893658Y-88116732D01*
X157893658Y-88116729D01*
X157893657Y-88116727D01*
X157887122Y-88083873D01*
X157862895Y-87962077D01*
X157822975Y-87865703D01*
X157815507Y-87796236D01*
X157822974Y-87770805D01*
X157863641Y-87672627D01*
X157894404Y-87517972D01*
X157894404Y-87360288D01*
X157894404Y-87360285D01*
X157894403Y-87360283D01*
X157863642Y-87205640D01*
X157863641Y-87205633D01*
X157807205Y-87069383D01*
X157803301Y-87059957D01*
X157803294Y-87059944D01*
X157715693Y-86928841D01*
X157715690Y-86928837D01*
X157604196Y-86817343D01*
X157604192Y-86817340D01*
X157473089Y-86729739D01*
X157473076Y-86729732D01*
X157327405Y-86669394D01*
X157327393Y-86669391D01*
X157172749Y-86638630D01*
X157172746Y-86638630D01*
X157015062Y-86638630D01*
X157015059Y-86638630D01*
X156860414Y-86669391D01*
X156860402Y-86669394D01*
X156758752Y-86711499D01*
X156689283Y-86718968D01*
X156663848Y-86711499D01*
X156582446Y-86677781D01*
X156582436Y-86677778D01*
X156427793Y-86647018D01*
X156427790Y-86647018D01*
X156270106Y-86647018D01*
X156270103Y-86647018D01*
X156115458Y-86677779D01*
X156115446Y-86677782D01*
X155977056Y-86735105D01*
X155907587Y-86742574D01*
X155882152Y-86735105D01*
X155746267Y-86678820D01*
X155746255Y-86678817D01*
X155591611Y-86648056D01*
X155591608Y-86648056D01*
X155433924Y-86648056D01*
X155433921Y-86648056D01*
X155279276Y-86678817D01*
X155279264Y-86678820D01*
X155133593Y-86739158D01*
X155133580Y-86739165D01*
X155002477Y-86826766D01*
X155002473Y-86826769D01*
X154890979Y-86938263D01*
X154890976Y-86938267D01*
X154803375Y-87069370D01*
X154803368Y-87069383D01*
X154743030Y-87215054D01*
X154743027Y-87215066D01*
X154712266Y-87369709D01*
X154712266Y-87527402D01*
X154743026Y-87682044D01*
X154743029Y-87682054D01*
X154782947Y-87778425D01*
X154790416Y-87847894D01*
X154782950Y-87873321D01*
X154742283Y-87971503D01*
X154742282Y-87971507D01*
X154742281Y-87971510D01*
X154742280Y-87971511D01*
X154711520Y-88126153D01*
X146192500Y-88126153D01*
X146192500Y-88073928D01*
X146167502Y-87948261D01*
X146167501Y-87948260D01*
X146167501Y-87948256D01*
X146118465Y-87829873D01*
X146118464Y-87829872D01*
X146118461Y-87829866D01*
X146047276Y-87723331D01*
X146047273Y-87723327D01*
X145956672Y-87632726D01*
X145956668Y-87632723D01*
X145850133Y-87561538D01*
X145850124Y-87561533D01*
X145731744Y-87512499D01*
X145731738Y-87512497D01*
X145606071Y-87487500D01*
X145606069Y-87487500D01*
X145477931Y-87487500D01*
X145477929Y-87487500D01*
X145352261Y-87512497D01*
X145352255Y-87512499D01*
X145233875Y-87561533D01*
X145233866Y-87561538D01*
X145127331Y-87632723D01*
X145127327Y-87632726D01*
X145036726Y-87723327D01*
X145036723Y-87723331D01*
X144965538Y-87829866D01*
X144965533Y-87829875D01*
X144916499Y-87948255D01*
X144916497Y-87948261D01*
X144891500Y-88073928D01*
X144891500Y-88073931D01*
X144891500Y-88202069D01*
X144891500Y-88202071D01*
X144891499Y-88202071D01*
X143505207Y-88202071D01*
X143515363Y-88177552D01*
X143540362Y-88051877D01*
X143540362Y-87923739D01*
X143540362Y-87923736D01*
X143515364Y-87798069D01*
X143515363Y-87798068D01*
X143515363Y-87798064D01*
X143466327Y-87679681D01*
X143466326Y-87679680D01*
X143466323Y-87679674D01*
X143395138Y-87573139D01*
X143395135Y-87573135D01*
X143304534Y-87482534D01*
X143304530Y-87482531D01*
X143197995Y-87411346D01*
X143197986Y-87411341D01*
X143079606Y-87362307D01*
X143079600Y-87362305D01*
X142953933Y-87337308D01*
X142953931Y-87337308D01*
X142825793Y-87337308D01*
X142825791Y-87337308D01*
X142700123Y-87362305D01*
X142700117Y-87362307D01*
X142581737Y-87411341D01*
X142581728Y-87411346D01*
X142475193Y-87482531D01*
X142475189Y-87482534D01*
X142384588Y-87573135D01*
X142384585Y-87573139D01*
X142313400Y-87679674D01*
X142313395Y-87679683D01*
X142264361Y-87798063D01*
X142264359Y-87798069D01*
X142239362Y-87923736D01*
X142239362Y-87923739D01*
X142239362Y-88051877D01*
X142239362Y-88051879D01*
X142239361Y-88051879D01*
X136648012Y-88051879D01*
X136610413Y-88014280D01*
X136503877Y-87943095D01*
X136503868Y-87943090D01*
X136385488Y-87894056D01*
X136385482Y-87894054D01*
X136259815Y-87869057D01*
X136259813Y-87869057D01*
X136131675Y-87869057D01*
X136131673Y-87869057D01*
X136006005Y-87894054D01*
X136005999Y-87894056D01*
X135887619Y-87943090D01*
X135887610Y-87943095D01*
X135781075Y-88014280D01*
X135781071Y-88014283D01*
X135690470Y-88104884D01*
X135690467Y-88104888D01*
X135619282Y-88211423D01*
X135619277Y-88211432D01*
X135570243Y-88329812D01*
X135570241Y-88329818D01*
X135545244Y-88455485D01*
X135545244Y-88455488D01*
X135545244Y-88583626D01*
X135545244Y-88583628D01*
X135545243Y-88583628D01*
X133268798Y-88583628D01*
X133269627Y-88579462D01*
X133269627Y-88451319D01*
X133244629Y-88325652D01*
X133244628Y-88325651D01*
X133244628Y-88325647D01*
X133206701Y-88234083D01*
X133195593Y-88207266D01*
X133195588Y-88207257D01*
X133124403Y-88100722D01*
X133124400Y-88100718D01*
X133033799Y-88010117D01*
X133033795Y-88010114D01*
X132927260Y-87938929D01*
X132927251Y-87938924D01*
X132808871Y-87889890D01*
X132808865Y-87889888D01*
X132683198Y-87864891D01*
X132683196Y-87864891D01*
X132555058Y-87864891D01*
X132555056Y-87864891D01*
X132429388Y-87889888D01*
X132429382Y-87889890D01*
X132311002Y-87938924D01*
X132310993Y-87938929D01*
X132204458Y-88010114D01*
X132204454Y-88010117D01*
X132113853Y-88100718D01*
X132113850Y-88100722D01*
X132042665Y-88207257D01*
X132042660Y-88207266D01*
X131993626Y-88325646D01*
X131993624Y-88325652D01*
X131968627Y-88451319D01*
X131968627Y-88451322D01*
X131968627Y-88579460D01*
X131968627Y-88579462D01*
X131968626Y-88579462D01*
X106880500Y-88579462D01*
X106880500Y-86297071D01*
X146415499Y-86297071D01*
X146440497Y-86422738D01*
X146440499Y-86422744D01*
X146489533Y-86541124D01*
X146489538Y-86541133D01*
X146560723Y-86647668D01*
X146560726Y-86647672D01*
X146651327Y-86738273D01*
X146651331Y-86738276D01*
X146757866Y-86809461D01*
X146757872Y-86809464D01*
X146757873Y-86809465D01*
X146876256Y-86858501D01*
X146876260Y-86858501D01*
X146876261Y-86858502D01*
X147001928Y-86883500D01*
X147001931Y-86883500D01*
X147130071Y-86883500D01*
X147214615Y-86866682D01*
X147255744Y-86858501D01*
X147374127Y-86809465D01*
X147480669Y-86738276D01*
X147571276Y-86647669D01*
X147642465Y-86541127D01*
X147691501Y-86422744D01*
X147716500Y-86297069D01*
X147716500Y-86168931D01*
X147716500Y-86168928D01*
X147691502Y-86043261D01*
X147691501Y-86043260D01*
X147691501Y-86043256D01*
X147642465Y-85924873D01*
X147642464Y-85924872D01*
X147642461Y-85924866D01*
X147571276Y-85818331D01*
X147571273Y-85818327D01*
X147480672Y-85727726D01*
X147480668Y-85727723D01*
X147374133Y-85656538D01*
X147374124Y-85656533D01*
X147255744Y-85607499D01*
X147255738Y-85607497D01*
X147130071Y-85582500D01*
X147130069Y-85582500D01*
X147001931Y-85582500D01*
X147001929Y-85582500D01*
X146876261Y-85607497D01*
X146876255Y-85607499D01*
X146757875Y-85656533D01*
X146757866Y-85656538D01*
X146651331Y-85727723D01*
X146651327Y-85727726D01*
X146560726Y-85818327D01*
X146560723Y-85818331D01*
X146489538Y-85924866D01*
X146489533Y-85924875D01*
X146440499Y-86043255D01*
X146440497Y-86043261D01*
X146415500Y-86168928D01*
X146415500Y-86168931D01*
X146415500Y-86297069D01*
X146415500Y-86297071D01*
X146415499Y-86297071D01*
X106880500Y-86297071D01*
X106880500Y-84729234D01*
X112392500Y-84729234D01*
X112392500Y-84880765D01*
X112431719Y-85027136D01*
X112469602Y-85092750D01*
X112507485Y-85158365D01*
X112614635Y-85265515D01*
X112745865Y-85341281D01*
X112892234Y-85380500D01*
X112892236Y-85380500D01*
X113043764Y-85380500D01*
X113043766Y-85380500D01*
X113190135Y-85341281D01*
X113321365Y-85265515D01*
X113428515Y-85158365D01*
X113504281Y-85027135D01*
X113508563Y-85011153D01*
X148424500Y-85011153D01*
X148424500Y-85168846D01*
X148455261Y-85323489D01*
X148455264Y-85323501D01*
X148515602Y-85469172D01*
X148515609Y-85469185D01*
X148603210Y-85600288D01*
X148603213Y-85600292D01*
X148714707Y-85711786D01*
X148714711Y-85711789D01*
X148845814Y-85799390D01*
X148845827Y-85799397D01*
X148991498Y-85859735D01*
X148991503Y-85859737D01*
X149146153Y-85890499D01*
X149146156Y-85890500D01*
X149146158Y-85890500D01*
X149303844Y-85890500D01*
X149303845Y-85890499D01*
X149458497Y-85859737D01*
X149604179Y-85799394D01*
X149735289Y-85711789D01*
X149846789Y-85600289D01*
X149934394Y-85469179D01*
X149994737Y-85323497D01*
X150025500Y-85168842D01*
X150025500Y-85011158D01*
X150025500Y-85011155D01*
X150025499Y-85011153D01*
X149994738Y-84856510D01*
X149994737Y-84856503D01*
X149959012Y-84770254D01*
X149934397Y-84710827D01*
X149934390Y-84710814D01*
X149846789Y-84579711D01*
X149846786Y-84579707D01*
X149735292Y-84468213D01*
X149735288Y-84468210D01*
X149604185Y-84380609D01*
X149604172Y-84380602D01*
X149458501Y-84320264D01*
X149458489Y-84320261D01*
X149303845Y-84289500D01*
X149303842Y-84289500D01*
X149146158Y-84289500D01*
X149146155Y-84289500D01*
X148991510Y-84320261D01*
X148991498Y-84320264D01*
X148845827Y-84380602D01*
X148845814Y-84380609D01*
X148714711Y-84468210D01*
X148714707Y-84468213D01*
X148603213Y-84579707D01*
X148603210Y-84579711D01*
X148515609Y-84710814D01*
X148515602Y-84710827D01*
X148455264Y-84856498D01*
X148455261Y-84856510D01*
X148424500Y-85011153D01*
X113508563Y-85011153D01*
X113543500Y-84880766D01*
X113543500Y-84729234D01*
X113504281Y-84582865D01*
X113428515Y-84451635D01*
X113321365Y-84344485D01*
X113226129Y-84289500D01*
X113190136Y-84268719D01*
X113116950Y-84249109D01*
X113043766Y-84229500D01*
X112892234Y-84229500D01*
X112745863Y-84268719D01*
X112614635Y-84344485D01*
X112614632Y-84344487D01*
X112507487Y-84451632D01*
X112507485Y-84451635D01*
X112431719Y-84582863D01*
X112392500Y-84729234D01*
X106880500Y-84729234D01*
X106880500Y-84208823D01*
X131683499Y-84208823D01*
X131708497Y-84334490D01*
X131708499Y-84334496D01*
X131757533Y-84452876D01*
X131757538Y-84452885D01*
X131828723Y-84559420D01*
X131828726Y-84559424D01*
X131919327Y-84650025D01*
X131919331Y-84650028D01*
X132025866Y-84721213D01*
X132025875Y-84721218D01*
X132052692Y-84732326D01*
X132144256Y-84770253D01*
X132144260Y-84770253D01*
X132144261Y-84770254D01*
X132269928Y-84795252D01*
X132269931Y-84795252D01*
X132398071Y-84795252D01*
X132482615Y-84778434D01*
X132523744Y-84770253D01*
X132642127Y-84721217D01*
X132748669Y-84650028D01*
X132839276Y-84559421D01*
X132910465Y-84452879D01*
X132959501Y-84334496D01*
X132972585Y-84268719D01*
X132984500Y-84208823D01*
X132984500Y-84080680D01*
X132959502Y-83955013D01*
X132959501Y-83955012D01*
X132959501Y-83955008D01*
X132910465Y-83836625D01*
X132910464Y-83836624D01*
X132910461Y-83836618D01*
X132839276Y-83730083D01*
X132839273Y-83730079D01*
X132748672Y-83639478D01*
X132748668Y-83639475D01*
X132642133Y-83568290D01*
X132642124Y-83568285D01*
X132523744Y-83519251D01*
X132523738Y-83519249D01*
X132398071Y-83494252D01*
X132398069Y-83494252D01*
X132269931Y-83494252D01*
X132269929Y-83494252D01*
X132144261Y-83519249D01*
X132144255Y-83519251D01*
X132025875Y-83568285D01*
X132025866Y-83568290D01*
X131919331Y-83639475D01*
X131919327Y-83639478D01*
X131828726Y-83730079D01*
X131828723Y-83730083D01*
X131757538Y-83836618D01*
X131757533Y-83836627D01*
X131708499Y-83955007D01*
X131708497Y-83955013D01*
X131683500Y-84080680D01*
X131683500Y-84080683D01*
X131683500Y-84208821D01*
X131683500Y-84208823D01*
X131683499Y-84208823D01*
X106880500Y-84208823D01*
X106880500Y-82344153D01*
X159981500Y-82344153D01*
X159981500Y-82501846D01*
X160012261Y-82656489D01*
X160012263Y-82656497D01*
X160053705Y-82756547D01*
X160061174Y-82826017D01*
X160053705Y-82851453D01*
X160012263Y-82951502D01*
X160012261Y-82951510D01*
X159981500Y-83106153D01*
X159981500Y-83263846D01*
X160012261Y-83418489D01*
X160012263Y-83418497D01*
X160053705Y-83518547D01*
X160061174Y-83588017D01*
X160053705Y-83613453D01*
X160012263Y-83713502D01*
X160012261Y-83713510D01*
X159981500Y-83868153D01*
X159981500Y-84025846D01*
X160012261Y-84180489D01*
X160012264Y-84180501D01*
X160072602Y-84326172D01*
X160072609Y-84326185D01*
X160160210Y-84457288D01*
X160160213Y-84457292D01*
X160271707Y-84568786D01*
X160271711Y-84568789D01*
X160402814Y-84656390D01*
X160402827Y-84656397D01*
X160534220Y-84710821D01*
X160548503Y-84716737D01*
X160703153Y-84747499D01*
X160703156Y-84747500D01*
X160703158Y-84747500D01*
X160860844Y-84747500D01*
X160860845Y-84747499D01*
X161015497Y-84716737D01*
X161115547Y-84675294D01*
X161185017Y-84667826D01*
X161210450Y-84675294D01*
X161310503Y-84716737D01*
X161465153Y-84747499D01*
X161465156Y-84747500D01*
X161465158Y-84747500D01*
X161622844Y-84747500D01*
X161622845Y-84747499D01*
X161777497Y-84716737D01*
X161923179Y-84656394D01*
X162054289Y-84568789D01*
X162165789Y-84457289D01*
X162253394Y-84326179D01*
X162255845Y-84320263D01*
X162268587Y-84289500D01*
X162313737Y-84180497D01*
X162344500Y-84025842D01*
X162344500Y-83868158D01*
X162344500Y-83868155D01*
X162344499Y-83868153D01*
X162313738Y-83713510D01*
X162313737Y-83713503D01*
X162272294Y-83613452D01*
X162264826Y-83543983D01*
X162272295Y-83518547D01*
X162306688Y-83435514D01*
X162313737Y-83418497D01*
X162344500Y-83263842D01*
X162344500Y-83106158D01*
X162344500Y-83106155D01*
X162344499Y-83106153D01*
X162313738Y-82951510D01*
X162313737Y-82951503D01*
X162272294Y-82851452D01*
X162264826Y-82781983D01*
X162272295Y-82756547D01*
X162313737Y-82656497D01*
X162344500Y-82501842D01*
X162344500Y-82344158D01*
X162344500Y-82344155D01*
X162344499Y-82344153D01*
X162326491Y-82253621D01*
X162313737Y-82189503D01*
X162304485Y-82167166D01*
X162253397Y-82043827D01*
X162253390Y-82043814D01*
X162165789Y-81912711D01*
X162165786Y-81912707D01*
X162054292Y-81801213D01*
X162054288Y-81801210D01*
X161923185Y-81713609D01*
X161923172Y-81713602D01*
X161777501Y-81653264D01*
X161777489Y-81653261D01*
X161622845Y-81622500D01*
X161622842Y-81622500D01*
X161465158Y-81622500D01*
X161465155Y-81622500D01*
X161310510Y-81653261D01*
X161310502Y-81653263D01*
X161286802Y-81663080D01*
X161210452Y-81694705D01*
X161140983Y-81702174D01*
X161115549Y-81694705D01*
X161015497Y-81653263D01*
X161015489Y-81653261D01*
X160860845Y-81622500D01*
X160860842Y-81622500D01*
X160703158Y-81622500D01*
X160703155Y-81622500D01*
X160548510Y-81653261D01*
X160548498Y-81653264D01*
X160402827Y-81713602D01*
X160402814Y-81713609D01*
X160271711Y-81801210D01*
X160271707Y-81801213D01*
X160160213Y-81912707D01*
X160160210Y-81912711D01*
X160072609Y-82043814D01*
X160072602Y-82043827D01*
X160012264Y-82189498D01*
X160012261Y-82189510D01*
X159981500Y-82344153D01*
X106880500Y-82344153D01*
X106880500Y-81318581D01*
X133051601Y-81318581D01*
X133051601Y-81476274D01*
X133082362Y-81630917D01*
X133082365Y-81630929D01*
X133142703Y-81776600D01*
X133142710Y-81776613D01*
X133230311Y-81907716D01*
X133230314Y-81907720D01*
X133341808Y-82019214D01*
X133341812Y-82019217D01*
X133472915Y-82106818D01*
X133472928Y-82106825D01*
X133616098Y-82166127D01*
X133618604Y-82167165D01*
X133765804Y-82196445D01*
X133773254Y-82197927D01*
X133773257Y-82197928D01*
X133773259Y-82197928D01*
X133930945Y-82197928D01*
X133930946Y-82197927D01*
X134085598Y-82167165D01*
X134223994Y-82109839D01*
X134293460Y-82102371D01*
X134318893Y-82109839D01*
X134454786Y-82166127D01*
X134607204Y-82196445D01*
X134609436Y-82196889D01*
X134609439Y-82196890D01*
X134609441Y-82196890D01*
X134767127Y-82196890D01*
X134767128Y-82196889D01*
X134921780Y-82166127D01*
X135023433Y-82124020D01*
X135092903Y-82116552D01*
X135118338Y-82124021D01*
X135199737Y-82157737D01*
X135199742Y-82157739D01*
X135354392Y-82188501D01*
X135354395Y-82188502D01*
X135354397Y-82188502D01*
X135512083Y-82188502D01*
X135512084Y-82188501D01*
X135666736Y-82157739D01*
X135789654Y-82106825D01*
X135812411Y-82097399D01*
X135812411Y-82097398D01*
X135812418Y-82097396D01*
X135943528Y-82009791D01*
X136055028Y-81898291D01*
X136142633Y-81767181D01*
X136202976Y-81621499D01*
X136233739Y-81466844D01*
X136233739Y-81309160D01*
X136233739Y-81309157D01*
X136233738Y-81309155D01*
X136218292Y-81231502D01*
X136202976Y-81154505D01*
X136163056Y-81058131D01*
X136155588Y-80988664D01*
X136163055Y-80963233D01*
X136203722Y-80865055D01*
X136234485Y-80710400D01*
X136234485Y-80670071D01*
X137779499Y-80670071D01*
X137804497Y-80795738D01*
X137804499Y-80795744D01*
X137853533Y-80914124D01*
X137853538Y-80914133D01*
X137924723Y-81020668D01*
X137924726Y-81020672D01*
X138015327Y-81111273D01*
X138015331Y-81111276D01*
X138121866Y-81182461D01*
X138121875Y-81182466D01*
X138148692Y-81193574D01*
X138240256Y-81231501D01*
X138240260Y-81231501D01*
X138240261Y-81231502D01*
X138365928Y-81256500D01*
X138365931Y-81256500D01*
X138494071Y-81256500D01*
X138578615Y-81239682D01*
X138619744Y-81231501D01*
X138738127Y-81182465D01*
X138738133Y-81182461D01*
X138797862Y-81142552D01*
X138820033Y-81127737D01*
X138844669Y-81111276D01*
X138935276Y-81020669D01*
X139006465Y-80914127D01*
X139055501Y-80795744D01*
X139070602Y-80719830D01*
X139080500Y-80670071D01*
X139080500Y-80541928D01*
X139055502Y-80416261D01*
X139055501Y-80416260D01*
X139055501Y-80416256D01*
X139006465Y-80297873D01*
X139006464Y-80297872D01*
X139006461Y-80297866D01*
X138935276Y-80191331D01*
X138935273Y-80191327D01*
X138844672Y-80100726D01*
X138844668Y-80100723D01*
X138738133Y-80029538D01*
X138738124Y-80029533D01*
X138619744Y-79980499D01*
X138619738Y-79980497D01*
X138494071Y-79955500D01*
X138494069Y-79955500D01*
X138365931Y-79955500D01*
X138365929Y-79955500D01*
X138240261Y-79980497D01*
X138240255Y-79980499D01*
X138121875Y-80029533D01*
X138121866Y-80029538D01*
X138015331Y-80100723D01*
X138015327Y-80100726D01*
X137924726Y-80191327D01*
X137924723Y-80191331D01*
X137853538Y-80297866D01*
X137853533Y-80297875D01*
X137804499Y-80416255D01*
X137804497Y-80416261D01*
X137779500Y-80541928D01*
X137779500Y-80541931D01*
X137779500Y-80670069D01*
X137779500Y-80670071D01*
X137779499Y-80670071D01*
X136234485Y-80670071D01*
X136234485Y-80552716D01*
X136234485Y-80552713D01*
X136234484Y-80552711D01*
X136203723Y-80398068D01*
X136203722Y-80398061D01*
X136183143Y-80348378D01*
X136143382Y-80252385D01*
X136143375Y-80252372D01*
X136055774Y-80121269D01*
X136055771Y-80121265D01*
X135944277Y-80009771D01*
X135944273Y-80009768D01*
X135813170Y-79922167D01*
X135813157Y-79922160D01*
X135667486Y-79861822D01*
X135667474Y-79861819D01*
X135512830Y-79831058D01*
X135512827Y-79831058D01*
X135355143Y-79831058D01*
X135355140Y-79831058D01*
X135200495Y-79861819D01*
X135200483Y-79861822D01*
X135098833Y-79903927D01*
X135029364Y-79911396D01*
X135003929Y-79903927D01*
X134922527Y-79870209D01*
X134922517Y-79870206D01*
X134767874Y-79839446D01*
X134767871Y-79839446D01*
X134610187Y-79839446D01*
X134610184Y-79839446D01*
X134455539Y-79870207D01*
X134455527Y-79870210D01*
X134317137Y-79927533D01*
X134247668Y-79935002D01*
X134222233Y-79927533D01*
X134086348Y-79871248D01*
X134086336Y-79871245D01*
X133931692Y-79840484D01*
X133931689Y-79840484D01*
X133774005Y-79840484D01*
X133774002Y-79840484D01*
X133619357Y-79871245D01*
X133619345Y-79871248D01*
X133473674Y-79931586D01*
X133473661Y-79931593D01*
X133342558Y-80019194D01*
X133342554Y-80019197D01*
X133231060Y-80130691D01*
X133231057Y-80130695D01*
X133143456Y-80261798D01*
X133143449Y-80261811D01*
X133083111Y-80407482D01*
X133083108Y-80407494D01*
X133052347Y-80562137D01*
X133052347Y-80719830D01*
X133083107Y-80874472D01*
X133083110Y-80874482D01*
X133123028Y-80970853D01*
X133130497Y-81040322D01*
X133123031Y-81065749D01*
X133082364Y-81163931D01*
X133082363Y-81163935D01*
X133082362Y-81163938D01*
X133082361Y-81163939D01*
X133051601Y-81318581D01*
X106880500Y-81318581D01*
X106880500Y-78949234D01*
X112392500Y-78949234D01*
X112392500Y-79100766D01*
X112395377Y-79111502D01*
X112431719Y-79247136D01*
X112469602Y-79312750D01*
X112507485Y-79378365D01*
X112614635Y-79485515D01*
X112745865Y-79561281D01*
X112892234Y-79600500D01*
X112892236Y-79600500D01*
X113043764Y-79600500D01*
X113043766Y-79600500D01*
X113190135Y-79561281D01*
X113321365Y-79485515D01*
X113428515Y-79378365D01*
X113504281Y-79247135D01*
X113543500Y-79100766D01*
X113543500Y-78949234D01*
X113504281Y-78802865D01*
X113428515Y-78671635D01*
X113321365Y-78564485D01*
X113296399Y-78550071D01*
X153146499Y-78550071D01*
X153171497Y-78675738D01*
X153171499Y-78675744D01*
X153220533Y-78794124D01*
X153220538Y-78794133D01*
X153291723Y-78900668D01*
X153291726Y-78900672D01*
X153382327Y-78991273D01*
X153382331Y-78991276D01*
X153488866Y-79062461D01*
X153488872Y-79062464D01*
X153488873Y-79062465D01*
X153607256Y-79111501D01*
X153607260Y-79111501D01*
X153607261Y-79111502D01*
X153732928Y-79136500D01*
X153732931Y-79136500D01*
X153861071Y-79136500D01*
X153945615Y-79119682D01*
X153986744Y-79111501D01*
X154105127Y-79062465D01*
X154211669Y-78991276D01*
X154302276Y-78900669D01*
X154373465Y-78794127D01*
X154422501Y-78675744D01*
X154444632Y-78564487D01*
X154447500Y-78550071D01*
X154447500Y-78421928D01*
X154422502Y-78296261D01*
X154422501Y-78296260D01*
X154422501Y-78296256D01*
X154373465Y-78177873D01*
X154373464Y-78177872D01*
X154373461Y-78177866D01*
X154302276Y-78071331D01*
X154302273Y-78071327D01*
X154211672Y-77980726D01*
X154211668Y-77980723D01*
X154105133Y-77909538D01*
X154105124Y-77909533D01*
X153986744Y-77860499D01*
X153986738Y-77860497D01*
X153861071Y-77835500D01*
X153861069Y-77835500D01*
X153732931Y-77835500D01*
X153732929Y-77835500D01*
X153607261Y-77860497D01*
X153607255Y-77860499D01*
X153488875Y-77909533D01*
X153488866Y-77909538D01*
X153382331Y-77980723D01*
X153382327Y-77980726D01*
X153291726Y-78071327D01*
X153291723Y-78071331D01*
X153220538Y-78177866D01*
X153220533Y-78177875D01*
X153171499Y-78296255D01*
X153171497Y-78296261D01*
X153146500Y-78421928D01*
X153146500Y-78421931D01*
X153146500Y-78550069D01*
X153146500Y-78550071D01*
X153146499Y-78550071D01*
X113296399Y-78550071D01*
X113255750Y-78526602D01*
X113190136Y-78488719D01*
X113116950Y-78469109D01*
X113043766Y-78449500D01*
X112892234Y-78449500D01*
X112745863Y-78488719D01*
X112614635Y-78564485D01*
X112614632Y-78564487D01*
X112507487Y-78671632D01*
X112507485Y-78671635D01*
X112431719Y-78802863D01*
X112407898Y-78891767D01*
X112392500Y-78949234D01*
X106880500Y-78949234D01*
X106880500Y-77875461D01*
X131966735Y-77875461D01*
X131991733Y-78001128D01*
X131991735Y-78001134D01*
X132040769Y-78119514D01*
X132040774Y-78119523D01*
X132111959Y-78226058D01*
X132111962Y-78226062D01*
X132202563Y-78316663D01*
X132202567Y-78316666D01*
X132309102Y-78387851D01*
X132309111Y-78387856D01*
X132319169Y-78392022D01*
X132427492Y-78436891D01*
X132427496Y-78436891D01*
X132427497Y-78436892D01*
X132553164Y-78461890D01*
X132553167Y-78461890D01*
X132681307Y-78461890D01*
X132774690Y-78443314D01*
X132806980Y-78436891D01*
X132925363Y-78387855D01*
X133031905Y-78316666D01*
X133122512Y-78226059D01*
X133193701Y-78119517D01*
X133242737Y-78001134D01*
X133266907Y-77879627D01*
X135543352Y-77879627D01*
X135568350Y-78005294D01*
X135568352Y-78005300D01*
X135617386Y-78123680D01*
X135617391Y-78123689D01*
X135688576Y-78230224D01*
X135688579Y-78230228D01*
X135779180Y-78320829D01*
X135779184Y-78320832D01*
X135885719Y-78392017D01*
X135885725Y-78392020D01*
X135885726Y-78392021D01*
X136004109Y-78441057D01*
X136004113Y-78441057D01*
X136004114Y-78441058D01*
X136129781Y-78466056D01*
X136129784Y-78466056D01*
X136257924Y-78466056D01*
X136372210Y-78443322D01*
X136383597Y-78441057D01*
X136501980Y-78392021D01*
X136608522Y-78320832D01*
X136699129Y-78230225D01*
X136770318Y-78123683D01*
X136819354Y-78005300D01*
X136831287Y-77945309D01*
X136844353Y-77879627D01*
X136844353Y-77751484D01*
X136819355Y-77625817D01*
X136819354Y-77625816D01*
X136819354Y-77625812D01*
X136777233Y-77524124D01*
X136770319Y-77507431D01*
X136770314Y-77507422D01*
X136699129Y-77400887D01*
X136699126Y-77400883D01*
X136682122Y-77383879D01*
X142239361Y-77383879D01*
X142264359Y-77509546D01*
X142264361Y-77509552D01*
X142313395Y-77627932D01*
X142313400Y-77627941D01*
X142384585Y-77734476D01*
X142384588Y-77734480D01*
X142475189Y-77825081D01*
X142475193Y-77825084D01*
X142581728Y-77896269D01*
X142581734Y-77896272D01*
X142581735Y-77896273D01*
X142700118Y-77945309D01*
X142700122Y-77945309D01*
X142700123Y-77945310D01*
X142825790Y-77970308D01*
X142825793Y-77970308D01*
X142953933Y-77970308D01*
X143038477Y-77953490D01*
X143079606Y-77945309D01*
X143197989Y-77896273D01*
X143304531Y-77825084D01*
X143395138Y-77734477D01*
X143466327Y-77627935D01*
X143515363Y-77509552D01*
X143523544Y-77468423D01*
X143540362Y-77383879D01*
X143540362Y-77280071D01*
X148955499Y-77280071D01*
X148980497Y-77405738D01*
X148980499Y-77405744D01*
X149029533Y-77524124D01*
X149029538Y-77524133D01*
X149100723Y-77630668D01*
X149100726Y-77630672D01*
X149191327Y-77721273D01*
X149191331Y-77721276D01*
X149297866Y-77792461D01*
X149297875Y-77792466D01*
X149324692Y-77803574D01*
X149416256Y-77841501D01*
X149416260Y-77841501D01*
X149416261Y-77841502D01*
X149541928Y-77866500D01*
X149541931Y-77866500D01*
X149670071Y-77866500D01*
X149754615Y-77849682D01*
X149795744Y-77841501D01*
X149876047Y-77808237D01*
X149945516Y-77800769D01*
X149970950Y-77808237D01*
X150051256Y-77841501D01*
X150051260Y-77841501D01*
X150051261Y-77841502D01*
X150176928Y-77866500D01*
X150176931Y-77866500D01*
X150305071Y-77866500D01*
X150389615Y-77849682D01*
X150430744Y-77841501D01*
X150549127Y-77792465D01*
X150655669Y-77721276D01*
X150746276Y-77630669D01*
X150817465Y-77524127D01*
X150866501Y-77405744D01*
X150885490Y-77310282D01*
X150891500Y-77280071D01*
X150891500Y-77151928D01*
X150866502Y-77026261D01*
X150866501Y-77026260D01*
X150866501Y-77026256D01*
X150839105Y-76960118D01*
X150831637Y-76890651D01*
X150862912Y-76828172D01*
X150923000Y-76792519D01*
X150992826Y-76795012D01*
X151001108Y-76798101D01*
X151067256Y-76825501D01*
X151067260Y-76825501D01*
X151067261Y-76825502D01*
X151192928Y-76850500D01*
X151192931Y-76850500D01*
X151321071Y-76850500D01*
X151433316Y-76828172D01*
X151446744Y-76825501D01*
X151565127Y-76776465D01*
X151671669Y-76705276D01*
X151762276Y-76614669D01*
X151833465Y-76508127D01*
X151882501Y-76389744D01*
X151891799Y-76343000D01*
X151907500Y-76264071D01*
X151907500Y-76135928D01*
X151882502Y-76010261D01*
X151882501Y-76010260D01*
X151882501Y-76010256D01*
X151833465Y-75891873D01*
X151833464Y-75891872D01*
X151833461Y-75891866D01*
X151762276Y-75785331D01*
X151762273Y-75785327D01*
X151671672Y-75694726D01*
X151671668Y-75694723D01*
X151565133Y-75623538D01*
X151565124Y-75623533D01*
X151446744Y-75574499D01*
X151446738Y-75574497D01*
X151321071Y-75549500D01*
X151321069Y-75549500D01*
X151192931Y-75549500D01*
X151192929Y-75549500D01*
X151067261Y-75574497D01*
X151067251Y-75574500D01*
X150986952Y-75607761D01*
X150917482Y-75615230D01*
X150892048Y-75607761D01*
X150811748Y-75574500D01*
X150811738Y-75574497D01*
X150686071Y-75549500D01*
X150686069Y-75549500D01*
X150557931Y-75549500D01*
X150557929Y-75549500D01*
X150432261Y-75574497D01*
X150432255Y-75574499D01*
X150313875Y-75623533D01*
X150313866Y-75623538D01*
X150207331Y-75694723D01*
X150207327Y-75694726D01*
X150116726Y-75785327D01*
X150116723Y-75785331D01*
X150045538Y-75891866D01*
X150045533Y-75891875D01*
X149996499Y-76010255D01*
X149996497Y-76010261D01*
X149971500Y-76135928D01*
X149971500Y-76135931D01*
X149971500Y-76264069D01*
X149971500Y-76264071D01*
X149971499Y-76264071D01*
X149996497Y-76389738D01*
X149996500Y-76389748D01*
X150023893Y-76455880D01*
X150031362Y-76525349D01*
X150000087Y-76587828D01*
X149939998Y-76623480D01*
X149870173Y-76620986D01*
X149861880Y-76617893D01*
X149795748Y-76590500D01*
X149795738Y-76590497D01*
X149670071Y-76565500D01*
X149670069Y-76565500D01*
X149541931Y-76565500D01*
X149541929Y-76565500D01*
X149416261Y-76590497D01*
X149416255Y-76590499D01*
X149297875Y-76639533D01*
X149297866Y-76639538D01*
X149191331Y-76710723D01*
X149191327Y-76710726D01*
X149100726Y-76801327D01*
X149100723Y-76801331D01*
X149029538Y-76907866D01*
X149029533Y-76907875D01*
X148980499Y-77026255D01*
X148980497Y-77026261D01*
X148955500Y-77151928D01*
X148955500Y-77151931D01*
X148955500Y-77280069D01*
X148955500Y-77280071D01*
X148955499Y-77280071D01*
X143540362Y-77280071D01*
X143540362Y-77255736D01*
X143515364Y-77130069D01*
X143515363Y-77130068D01*
X143515363Y-77130064D01*
X143466327Y-77011681D01*
X143466326Y-77011680D01*
X143466323Y-77011674D01*
X143395138Y-76905139D01*
X143395135Y-76905135D01*
X143304534Y-76814534D01*
X143304530Y-76814531D01*
X143197995Y-76743346D01*
X143197986Y-76743341D01*
X143079606Y-76694307D01*
X143079600Y-76694305D01*
X142953933Y-76669308D01*
X142953931Y-76669308D01*
X142825793Y-76669308D01*
X142825791Y-76669308D01*
X142700123Y-76694305D01*
X142700117Y-76694307D01*
X142581737Y-76743341D01*
X142581728Y-76743346D01*
X142475193Y-76814531D01*
X142475189Y-76814534D01*
X142384588Y-76905135D01*
X142384585Y-76905139D01*
X142313400Y-77011674D01*
X142313395Y-77011683D01*
X142264361Y-77130063D01*
X142264359Y-77130069D01*
X142239362Y-77255736D01*
X142239362Y-77255739D01*
X142239362Y-77383877D01*
X142239362Y-77383879D01*
X142239361Y-77383879D01*
X136682122Y-77383879D01*
X136608525Y-77310282D01*
X136608521Y-77310279D01*
X136501986Y-77239094D01*
X136501977Y-77239089D01*
X136383597Y-77190055D01*
X136383591Y-77190053D01*
X136257924Y-77165056D01*
X136257922Y-77165056D01*
X136129784Y-77165056D01*
X136129782Y-77165056D01*
X136004114Y-77190053D01*
X136004108Y-77190055D01*
X135885728Y-77239089D01*
X135885719Y-77239094D01*
X135779184Y-77310279D01*
X135779180Y-77310282D01*
X135688579Y-77400883D01*
X135688576Y-77400887D01*
X135617391Y-77507422D01*
X135617386Y-77507431D01*
X135568352Y-77625811D01*
X135568350Y-77625817D01*
X135543353Y-77751484D01*
X135543353Y-77751487D01*
X135543353Y-77879625D01*
X135543353Y-77879627D01*
X135543352Y-77879627D01*
X133266907Y-77879627D01*
X133267736Y-77875461D01*
X133267736Y-77747318D01*
X133242738Y-77621651D01*
X133242737Y-77621650D01*
X133242737Y-77621646D01*
X133196304Y-77509546D01*
X133193702Y-77503265D01*
X133193697Y-77503256D01*
X133122512Y-77396721D01*
X133122509Y-77396717D01*
X133031908Y-77306116D01*
X133031904Y-77306113D01*
X132925369Y-77234928D01*
X132925360Y-77234923D01*
X132806980Y-77185889D01*
X132806974Y-77185887D01*
X132681307Y-77160890D01*
X132681305Y-77160890D01*
X132553167Y-77160890D01*
X132553165Y-77160890D01*
X132427497Y-77185887D01*
X132427491Y-77185889D01*
X132309111Y-77234923D01*
X132309102Y-77234928D01*
X132202567Y-77306113D01*
X132202563Y-77306116D01*
X132111962Y-77396717D01*
X132111959Y-77396721D01*
X132040774Y-77503256D01*
X132040769Y-77503265D01*
X131991735Y-77621645D01*
X131991733Y-77621651D01*
X131966736Y-77747318D01*
X131966736Y-77747321D01*
X131966736Y-77875459D01*
X131966736Y-77875461D01*
X131966735Y-77875461D01*
X106880500Y-77875461D01*
X106880500Y-76518071D01*
X147304499Y-76518071D01*
X147329497Y-76643738D01*
X147329499Y-76643744D01*
X147378533Y-76762124D01*
X147378538Y-76762133D01*
X147449723Y-76868668D01*
X147449726Y-76868672D01*
X147540327Y-76959273D01*
X147540331Y-76959276D01*
X147646866Y-77030461D01*
X147646875Y-77030466D01*
X147673692Y-77041574D01*
X147765256Y-77079501D01*
X147765260Y-77079501D01*
X147765261Y-77079502D01*
X147890928Y-77104500D01*
X147890931Y-77104500D01*
X148019071Y-77104500D01*
X148103615Y-77087682D01*
X148144744Y-77079501D01*
X148182160Y-77064002D01*
X148261166Y-77031278D01*
X148261166Y-77031277D01*
X148262147Y-77030870D01*
X148263118Y-77030469D01*
X148263120Y-77030467D01*
X148263127Y-77030465D01*
X148369669Y-76959276D01*
X148460276Y-76868669D01*
X148531465Y-76762127D01*
X148580501Y-76643744D01*
X148605500Y-76518069D01*
X148605500Y-76389931D01*
X148605499Y-76389928D01*
X148587217Y-76298019D01*
X148580501Y-76264256D01*
X148580500Y-76264253D01*
X148580001Y-76261745D01*
X148586228Y-76192153D01*
X148629090Y-76136975D01*
X148677422Y-76115936D01*
X148762123Y-76099088D01*
X148880506Y-76050052D01*
X148987048Y-75978863D01*
X149077655Y-75888256D01*
X149148844Y-75781714D01*
X149197880Y-75663331D01*
X149222879Y-75537656D01*
X149222879Y-75409518D01*
X149222879Y-75409515D01*
X149197881Y-75283848D01*
X149197880Y-75283847D01*
X149197880Y-75283843D01*
X149148844Y-75165460D01*
X149148843Y-75165459D01*
X149148840Y-75165453D01*
X149077655Y-75058918D01*
X149077652Y-75058914D01*
X148987051Y-74968313D01*
X148987047Y-74968310D01*
X148880512Y-74897125D01*
X148880503Y-74897120D01*
X148762123Y-74848086D01*
X148762117Y-74848084D01*
X148636450Y-74823087D01*
X148636448Y-74823087D01*
X148508310Y-74823087D01*
X148508308Y-74823087D01*
X148382640Y-74848084D01*
X148382634Y-74848086D01*
X148264254Y-74897120D01*
X148264245Y-74897125D01*
X148157710Y-74968310D01*
X148157706Y-74968313D01*
X148067105Y-75058914D01*
X148067102Y-75058918D01*
X147995917Y-75165453D01*
X147995912Y-75165462D01*
X147946878Y-75283842D01*
X147946876Y-75283848D01*
X147921879Y-75409515D01*
X147921879Y-75409518D01*
X147921879Y-75537656D01*
X147921879Y-75537658D01*
X147921878Y-75537658D01*
X147947377Y-75665842D01*
X147941150Y-75735434D01*
X147898287Y-75790611D01*
X147849952Y-75811651D01*
X147765261Y-75828497D01*
X147765255Y-75828499D01*
X147646875Y-75877533D01*
X147646866Y-75877538D01*
X147540331Y-75948723D01*
X147540327Y-75948726D01*
X147449726Y-76039327D01*
X147449723Y-76039331D01*
X147378538Y-76145866D01*
X147378533Y-76145875D01*
X147329499Y-76264255D01*
X147329497Y-76264261D01*
X147304500Y-76389928D01*
X147304500Y-76389929D01*
X147304500Y-76389931D01*
X147304500Y-76518069D01*
X147304500Y-76518071D01*
X147304499Y-76518071D01*
X106880500Y-76518071D01*
X106880500Y-74867071D01*
X144891499Y-74867071D01*
X144916497Y-74992738D01*
X144916499Y-74992744D01*
X144965533Y-75111124D01*
X144965538Y-75111133D01*
X145036723Y-75217668D01*
X145036726Y-75217672D01*
X145127327Y-75308273D01*
X145127331Y-75308276D01*
X145233866Y-75379461D01*
X145233872Y-75379464D01*
X145233873Y-75379465D01*
X145352256Y-75428501D01*
X145352260Y-75428501D01*
X145352261Y-75428502D01*
X145477928Y-75453500D01*
X145477931Y-75453500D01*
X145606071Y-75453500D01*
X145696493Y-75435513D01*
X145731744Y-75428501D01*
X145850127Y-75379465D01*
X145956669Y-75308276D01*
X146047276Y-75217669D01*
X146118465Y-75111127D01*
X146167501Y-74992744D01*
X146175682Y-74951615D01*
X146192500Y-74867071D01*
X146192500Y-74738928D01*
X146167502Y-74613261D01*
X146167501Y-74613260D01*
X146167501Y-74613256D01*
X146118465Y-74494873D01*
X146118464Y-74494872D01*
X146118461Y-74494866D01*
X146047276Y-74388331D01*
X146047273Y-74388327D01*
X145956672Y-74297726D01*
X145956668Y-74297723D01*
X145850133Y-74226538D01*
X145850124Y-74226533D01*
X145731744Y-74177499D01*
X145731738Y-74177497D01*
X145606071Y-74152500D01*
X145606069Y-74152500D01*
X145477931Y-74152500D01*
X145477929Y-74152500D01*
X145352261Y-74177497D01*
X145352255Y-74177499D01*
X145233875Y-74226533D01*
X145233866Y-74226538D01*
X145127331Y-74297723D01*
X145127327Y-74297726D01*
X145036726Y-74388327D01*
X145036723Y-74388331D01*
X144965538Y-74494866D01*
X144965533Y-74494875D01*
X144916499Y-74613255D01*
X144916497Y-74613261D01*
X144891500Y-74738928D01*
X144891500Y-74738931D01*
X144891500Y-74867069D01*
X144891500Y-74867071D01*
X144891499Y-74867071D01*
X106880500Y-74867071D01*
X106880500Y-73467474D01*
X131727426Y-73467474D01*
X131752424Y-73593141D01*
X131752426Y-73593147D01*
X131801460Y-73711527D01*
X131801465Y-73711536D01*
X131872650Y-73818071D01*
X131872653Y-73818075D01*
X131963254Y-73908676D01*
X131963258Y-73908679D01*
X132069793Y-73979864D01*
X132069799Y-73979867D01*
X132069800Y-73979868D01*
X132188183Y-74028904D01*
X132188187Y-74028904D01*
X132188188Y-74028905D01*
X132313855Y-74053903D01*
X132313858Y-74053903D01*
X132441998Y-74053903D01*
X132526542Y-74037085D01*
X132567671Y-74028904D01*
X132686054Y-73979868D01*
X132792596Y-73908679D01*
X132883203Y-73818072D01*
X132954392Y-73711530D01*
X133003428Y-73593147D01*
X133028427Y-73467472D01*
X133028427Y-73339334D01*
X133028427Y-73339331D01*
X133003429Y-73213664D01*
X133003428Y-73213663D01*
X133003428Y-73213659D01*
X132962986Y-73116023D01*
X158868616Y-73116023D01*
X158868616Y-73273716D01*
X158899377Y-73428359D01*
X158899380Y-73428371D01*
X158959718Y-73574042D01*
X158959725Y-73574055D01*
X159047326Y-73705158D01*
X159047329Y-73705162D01*
X159158823Y-73816656D01*
X159158827Y-73816659D01*
X159289930Y-73904260D01*
X159289943Y-73904267D01*
X159433113Y-73963569D01*
X159435619Y-73964607D01*
X159542882Y-73985943D01*
X159590269Y-73995369D01*
X159590272Y-73995370D01*
X159590274Y-73995370D01*
X159747960Y-73995370D01*
X159747961Y-73995369D01*
X159902613Y-73964607D01*
X160041009Y-73907281D01*
X160110475Y-73899813D01*
X160135908Y-73907281D01*
X160271801Y-73963569D01*
X160426451Y-73994331D01*
X160426454Y-73994332D01*
X160426456Y-73994332D01*
X160584142Y-73994332D01*
X160584143Y-73994331D01*
X160738795Y-73963569D01*
X160840448Y-73921462D01*
X160909918Y-73913994D01*
X160935353Y-73921463D01*
X161016752Y-73955179D01*
X161016757Y-73955181D01*
X161171407Y-73985943D01*
X161171410Y-73985944D01*
X161171412Y-73985944D01*
X161329098Y-73985944D01*
X161329099Y-73985943D01*
X161483751Y-73955181D01*
X161606669Y-73904267D01*
X161629426Y-73894841D01*
X161629426Y-73894840D01*
X161629433Y-73894838D01*
X161760543Y-73807233D01*
X161872043Y-73695733D01*
X161959648Y-73564623D01*
X162019991Y-73418941D01*
X162050754Y-73264286D01*
X162050754Y-73106602D01*
X162050754Y-73106599D01*
X162050753Y-73106597D01*
X162048502Y-73095282D01*
X162019991Y-72951947D01*
X161980071Y-72855573D01*
X161977308Y-72829876D01*
X161970675Y-72804898D01*
X161973296Y-72792558D01*
X161972603Y-72786106D01*
X161976604Y-72770106D01*
X161978143Y-72765327D01*
X162020737Y-72662497D01*
X162029163Y-72620135D01*
X168496500Y-72620135D01*
X168496500Y-74065870D01*
X168496501Y-74065876D01*
X168502908Y-74125483D01*
X168553202Y-74260328D01*
X168553206Y-74260335D01*
X168639452Y-74375544D01*
X168639453Y-74375544D01*
X168639454Y-74375546D01*
X168656533Y-74388331D01*
X168724539Y-74439241D01*
X168766409Y-74495175D01*
X168771393Y-74564867D01*
X168750545Y-74611392D01*
X168666624Y-74726900D01*
X168582620Y-74891764D01*
X168582619Y-74891767D01*
X168525445Y-75067734D01*
X168496500Y-75250486D01*
X168496500Y-75435513D01*
X168525445Y-75618265D01*
X168582619Y-75794232D01*
X168582620Y-75794235D01*
X168632370Y-75891873D01*
X168666622Y-75959096D01*
X168775379Y-76108787D01*
X168906213Y-76239621D01*
X168910421Y-76242678D01*
X168910432Y-76242686D01*
X168953094Y-76298019D01*
X168959069Y-76367633D01*
X168926459Y-76429426D01*
X168910432Y-76443314D01*
X168906210Y-76446381D01*
X168775381Y-76577210D01*
X168775381Y-76577211D01*
X168775379Y-76577213D01*
X168745823Y-76617893D01*
X168666622Y-76726903D01*
X168582620Y-76891764D01*
X168582619Y-76891767D01*
X168525445Y-77067734D01*
X168506731Y-77185889D01*
X168496500Y-77250486D01*
X168496500Y-77435514D01*
X168507231Y-77503265D01*
X168525445Y-77618265D01*
X168582619Y-77794232D01*
X168582620Y-77794235D01*
X168641368Y-77909533D01*
X168666622Y-77959096D01*
X168775379Y-78108787D01*
X168906213Y-78239621D01*
X168910421Y-78242678D01*
X168910432Y-78242686D01*
X168953094Y-78298019D01*
X168959069Y-78367633D01*
X168926459Y-78429426D01*
X168910432Y-78443314D01*
X168906210Y-78446381D01*
X168775381Y-78577210D01*
X168775381Y-78577211D01*
X168775379Y-78577213D01*
X168728672Y-78641499D01*
X168666622Y-78726903D01*
X168582620Y-78891764D01*
X168582619Y-78891767D01*
X168525445Y-79067734D01*
X168518513Y-79111500D01*
X168496500Y-79250486D01*
X168496500Y-79435514D01*
X168510972Y-79526889D01*
X168525445Y-79618265D01*
X168582619Y-79794232D01*
X168582620Y-79794235D01*
X168654345Y-79935002D01*
X168666622Y-79959096D01*
X168775379Y-80108787D01*
X168906213Y-80239621D01*
X168906216Y-80239623D01*
X168980831Y-80293834D01*
X168995806Y-80313254D01*
X169625554Y-80943000D01*
X169619339Y-80943000D01*
X169517606Y-80970259D01*
X169426394Y-81022920D01*
X169351920Y-81097394D01*
X169299259Y-81188606D01*
X169272000Y-81290339D01*
X169272000Y-81296553D01*
X168682015Y-80706568D01*
X168667049Y-80727167D01*
X168583084Y-80891956D01*
X168583083Y-80891959D01*
X168525933Y-81067852D01*
X168497000Y-81250526D01*
X168497000Y-81435473D01*
X168525933Y-81618147D01*
X168583083Y-81794040D01*
X168583084Y-81794043D01*
X168667050Y-81958834D01*
X168682015Y-81979430D01*
X168682016Y-81979431D01*
X169272000Y-81389447D01*
X169272000Y-81395661D01*
X169299259Y-81497394D01*
X169351920Y-81588606D01*
X169426394Y-81663080D01*
X169517606Y-81715741D01*
X169619339Y-81743000D01*
X169625553Y-81743000D01*
X169011355Y-82357196D01*
X168980833Y-82392163D01*
X168906213Y-82446378D01*
X168775381Y-82577210D01*
X168775381Y-82577211D01*
X168775379Y-82577213D01*
X168728672Y-82641499D01*
X168666622Y-82726903D01*
X168582620Y-82891764D01*
X168582619Y-82891767D01*
X168525445Y-83067734D01*
X168496500Y-83250486D01*
X168496500Y-83435513D01*
X168525445Y-83618265D01*
X168582619Y-83794232D01*
X168582620Y-83794235D01*
X168664539Y-83955007D01*
X168666622Y-83959096D01*
X168775379Y-84108787D01*
X168906213Y-84239621D01*
X169055904Y-84348378D01*
X169119147Y-84380602D01*
X169220764Y-84432379D01*
X169220767Y-84432380D01*
X169297431Y-84457289D01*
X169396736Y-84489555D01*
X169579486Y-84518500D01*
X169579487Y-84518500D01*
X169764513Y-84518500D01*
X169764514Y-84518500D01*
X169947264Y-84489555D01*
X170123235Y-84432379D01*
X170288096Y-84348378D01*
X170437787Y-84239621D01*
X170568621Y-84108787D01*
X170677378Y-83959096D01*
X170761379Y-83794235D01*
X170818555Y-83618264D01*
X170847500Y-83435514D01*
X170847500Y-83250486D01*
X170818555Y-83067736D01*
X170761379Y-82891765D01*
X170761379Y-82891764D01*
X170677377Y-82726903D01*
X170568621Y-82577213D01*
X170437787Y-82446379D01*
X170437786Y-82446378D01*
X170363165Y-82392162D01*
X170348190Y-82372742D01*
X169718448Y-81743000D01*
X169724661Y-81743000D01*
X169826394Y-81715741D01*
X169917606Y-81663080D01*
X169992080Y-81588606D01*
X170044741Y-81497394D01*
X170072000Y-81395661D01*
X170072000Y-81389447D01*
X170661983Y-81979430D01*
X170661984Y-81979430D01*
X170676942Y-81958845D01*
X170676947Y-81958836D01*
X170760915Y-81794043D01*
X170760916Y-81794040D01*
X170818066Y-81618147D01*
X170847000Y-81435473D01*
X170847000Y-81250526D01*
X170818066Y-81067852D01*
X170760916Y-80891959D01*
X170760915Y-80891956D01*
X170676949Y-80727165D01*
X170661983Y-80706568D01*
X170072000Y-81296551D01*
X170072000Y-81290339D01*
X170044741Y-81188606D01*
X169992080Y-81097394D01*
X169917606Y-81022920D01*
X169826394Y-80970259D01*
X169724661Y-80943000D01*
X169718447Y-80943000D01*
X170332675Y-80328771D01*
X170363165Y-80293836D01*
X170437787Y-80239621D01*
X170568621Y-80108787D01*
X170677378Y-79959096D01*
X170761379Y-79794235D01*
X170818555Y-79618264D01*
X170847500Y-79435514D01*
X170847500Y-79250486D01*
X170818555Y-79067736D01*
X170761379Y-78891765D01*
X170761379Y-78891764D01*
X170677377Y-78726903D01*
X170568621Y-78577213D01*
X170437787Y-78446379D01*
X170433576Y-78443319D01*
X170390909Y-78387994D01*
X170384926Y-78318381D01*
X170417529Y-78256585D01*
X170433570Y-78242684D01*
X170437787Y-78239621D01*
X170568621Y-78108787D01*
X170677378Y-77959096D01*
X170761379Y-77794235D01*
X170818555Y-77618264D01*
X170847500Y-77435514D01*
X170847500Y-77250486D01*
X170818555Y-77067736D01*
X170783589Y-76960120D01*
X170761380Y-76891767D01*
X170761379Y-76891764D01*
X170718577Y-76807763D01*
X170677378Y-76726904D01*
X170568621Y-76577213D01*
X170437787Y-76446379D01*
X170433576Y-76443319D01*
X170390909Y-76387994D01*
X170384926Y-76318381D01*
X170417529Y-76256585D01*
X170433570Y-76242684D01*
X170437787Y-76239621D01*
X170568621Y-76108787D01*
X170677378Y-75959096D01*
X170761379Y-75794235D01*
X170762557Y-75790611D01*
X170793711Y-75694726D01*
X170818555Y-75618264D01*
X170847500Y-75435514D01*
X170847500Y-75250486D01*
X170818555Y-75067736D01*
X170761379Y-74891765D01*
X170761379Y-74891764D01*
X170683506Y-74738931D01*
X170677378Y-74726904D01*
X170593453Y-74611392D01*
X170569974Y-74545586D01*
X170585799Y-74477532D01*
X170619459Y-74439241D01*
X170704546Y-74375546D01*
X170790796Y-74260331D01*
X170841091Y-74125483D01*
X170847500Y-74065873D01*
X170847499Y-72620128D01*
X170841091Y-72560517D01*
X170824960Y-72517268D01*
X170790797Y-72425671D01*
X170790793Y-72425664D01*
X170704547Y-72310455D01*
X170704544Y-72310452D01*
X170589335Y-72224206D01*
X170589328Y-72224202D01*
X170454482Y-72173908D01*
X170454483Y-72173908D01*
X170394883Y-72167501D01*
X170394881Y-72167500D01*
X170394873Y-72167500D01*
X170394864Y-72167500D01*
X168949129Y-72167500D01*
X168949123Y-72167501D01*
X168889516Y-72173908D01*
X168754671Y-72224202D01*
X168754664Y-72224206D01*
X168639455Y-72310452D01*
X168639452Y-72310455D01*
X168553206Y-72425664D01*
X168553202Y-72425671D01*
X168502908Y-72560517D01*
X168496501Y-72620116D01*
X168496501Y-72620123D01*
X168496500Y-72620135D01*
X162029163Y-72620135D01*
X162041022Y-72560517D01*
X162051500Y-72507844D01*
X162051500Y-72350155D01*
X162051499Y-72350153D01*
X162049904Y-72342133D01*
X162020737Y-72195503D01*
X161964301Y-72059253D01*
X161960397Y-72049827D01*
X161960390Y-72049814D01*
X161872789Y-71918711D01*
X161872786Y-71918707D01*
X161761292Y-71807213D01*
X161761288Y-71807210D01*
X161630185Y-71719609D01*
X161630172Y-71719602D01*
X161484501Y-71659264D01*
X161484489Y-71659261D01*
X161329845Y-71628500D01*
X161329842Y-71628500D01*
X161172158Y-71628500D01*
X161172155Y-71628500D01*
X161017510Y-71659261D01*
X161017498Y-71659264D01*
X160915848Y-71701369D01*
X160846379Y-71708838D01*
X160820944Y-71701369D01*
X160739542Y-71667651D01*
X160739532Y-71667648D01*
X160584889Y-71636888D01*
X160584886Y-71636888D01*
X160427202Y-71636888D01*
X160427199Y-71636888D01*
X160272554Y-71667649D01*
X160272542Y-71667652D01*
X160134152Y-71724975D01*
X160064683Y-71732444D01*
X160039248Y-71724975D01*
X159903363Y-71668690D01*
X159903351Y-71668687D01*
X159748707Y-71637926D01*
X159748704Y-71637926D01*
X159591020Y-71637926D01*
X159591017Y-71637926D01*
X159436372Y-71668687D01*
X159436360Y-71668690D01*
X159290689Y-71729028D01*
X159290676Y-71729035D01*
X159159573Y-71816636D01*
X159159569Y-71816639D01*
X159048075Y-71928133D01*
X159048072Y-71928137D01*
X158960471Y-72059240D01*
X158960464Y-72059253D01*
X158900126Y-72204924D01*
X158900123Y-72204936D01*
X158869362Y-72359579D01*
X158869362Y-72517272D01*
X158900122Y-72671914D01*
X158900125Y-72671924D01*
X158940043Y-72768295D01*
X158947512Y-72837764D01*
X158940046Y-72863191D01*
X158899379Y-72961373D01*
X158899378Y-72961377D01*
X158899377Y-72961380D01*
X158899376Y-72961381D01*
X158868616Y-73116023D01*
X132962986Y-73116023D01*
X132954395Y-73095282D01*
X132954388Y-73095269D01*
X132883203Y-72988734D01*
X132883200Y-72988730D01*
X132792599Y-72898129D01*
X132792595Y-72898126D01*
X132686060Y-72826941D01*
X132686051Y-72826936D01*
X132567671Y-72777902D01*
X132567665Y-72777900D01*
X132441998Y-72752903D01*
X132441996Y-72752903D01*
X132313858Y-72752903D01*
X132313856Y-72752903D01*
X132188188Y-72777900D01*
X132188182Y-72777902D01*
X132069802Y-72826936D01*
X132069793Y-72826941D01*
X131963258Y-72898126D01*
X131963254Y-72898129D01*
X131872653Y-72988730D01*
X131872650Y-72988734D01*
X131801465Y-73095269D01*
X131801460Y-73095278D01*
X131752426Y-73213658D01*
X131752424Y-73213664D01*
X131727427Y-73339331D01*
X131727427Y-73339334D01*
X131727427Y-73467472D01*
X131727427Y-73467474D01*
X131727426Y-73467474D01*
X106880500Y-73467474D01*
X106880500Y-72098071D01*
X151594499Y-72098071D01*
X151619497Y-72223738D01*
X151619499Y-72223744D01*
X151668533Y-72342124D01*
X151668538Y-72342133D01*
X151739723Y-72448668D01*
X151739726Y-72448672D01*
X151830327Y-72539273D01*
X151830331Y-72539276D01*
X151936866Y-72610461D01*
X151936875Y-72610466D01*
X151960189Y-72620123D01*
X152055256Y-72659501D01*
X152055260Y-72659501D01*
X152055261Y-72659502D01*
X152180928Y-72684500D01*
X152180931Y-72684500D01*
X152309071Y-72684500D01*
X152393615Y-72667682D01*
X152434744Y-72659501D01*
X152553127Y-72610465D01*
X152659669Y-72539276D01*
X152750276Y-72448669D01*
X152821465Y-72342127D01*
X152870501Y-72223744D01*
X152895500Y-72098069D01*
X152895500Y-71969931D01*
X152895500Y-71969928D01*
X152870502Y-71844261D01*
X152870501Y-71844260D01*
X152870501Y-71844256D01*
X152821465Y-71725873D01*
X152821464Y-71725872D01*
X152821461Y-71725866D01*
X152750276Y-71619331D01*
X152750273Y-71619327D01*
X152659672Y-71528726D01*
X152659668Y-71528723D01*
X152553133Y-71457538D01*
X152553124Y-71457533D01*
X152434744Y-71408499D01*
X152434738Y-71408497D01*
X152309071Y-71383500D01*
X152309069Y-71383500D01*
X152180931Y-71383500D01*
X152180929Y-71383500D01*
X152055261Y-71408497D01*
X152055255Y-71408499D01*
X151936875Y-71457533D01*
X151936866Y-71457538D01*
X151830331Y-71528723D01*
X151830327Y-71528726D01*
X151739726Y-71619327D01*
X151739723Y-71619331D01*
X151668538Y-71725866D01*
X151668533Y-71725875D01*
X151619499Y-71844255D01*
X151619497Y-71844261D01*
X151594500Y-71969928D01*
X151594500Y-71969931D01*
X151594500Y-72098069D01*
X151594500Y-72098071D01*
X151594499Y-72098071D01*
X106880500Y-72098071D01*
X106880500Y-68458717D01*
X120069545Y-68458717D01*
X120069545Y-68701302D01*
X120101206Y-68941784D01*
X120101207Y-68941788D01*
X120128879Y-69045059D01*
X120163990Y-69176096D01*
X120256813Y-69400190D01*
X120256817Y-69400200D01*
X120378099Y-69610267D01*
X120525765Y-69802709D01*
X120525771Y-69802716D01*
X120697283Y-69974228D01*
X120697290Y-69974234D01*
X120889732Y-70121900D01*
X121099799Y-70243182D01*
X121099800Y-70243182D01*
X121099803Y-70243184D01*
X121323908Y-70336011D01*
X121558212Y-70398793D01*
X121798705Y-70430455D01*
X121798712Y-70430455D01*
X122041268Y-70430455D01*
X122041275Y-70430455D01*
X122281768Y-70398793D01*
X122516072Y-70336011D01*
X122740177Y-70243184D01*
X122950248Y-70121900D01*
X123142691Y-69974233D01*
X123314213Y-69802711D01*
X123461880Y-69610268D01*
X123583164Y-69400197D01*
X123675991Y-69176092D01*
X123738773Y-68941788D01*
X123770435Y-68701295D01*
X123770435Y-68484647D01*
X124264500Y-68484647D01*
X124264500Y-68675352D01*
X124294330Y-68863694D01*
X124353260Y-69045059D01*
X124420028Y-69176096D01*
X124439832Y-69214964D01*
X124551920Y-69369239D01*
X124686761Y-69504080D01*
X124841036Y-69616168D01*
X124921310Y-69657069D01*
X125010940Y-69702739D01*
X125010942Y-69702739D01*
X125010945Y-69702741D01*
X125108158Y-69734327D01*
X125192305Y-69761669D01*
X125380648Y-69791500D01*
X125380653Y-69791500D01*
X125571352Y-69791500D01*
X125759694Y-69761669D01*
X125941055Y-69702741D01*
X126110964Y-69616168D01*
X126265239Y-69504080D01*
X126400080Y-69369239D01*
X126512168Y-69214964D01*
X126598741Y-69045055D01*
X126628069Y-68954791D01*
X126667507Y-68897117D01*
X126731866Y-68869919D01*
X126800712Y-68881834D01*
X126852188Y-68929078D01*
X126863931Y-68954792D01*
X126893260Y-69045059D01*
X126960028Y-69176096D01*
X126979832Y-69214964D01*
X127091920Y-69369239D01*
X127226761Y-69504080D01*
X127381036Y-69616168D01*
X127461310Y-69657069D01*
X127550940Y-69702739D01*
X127550942Y-69702739D01*
X127550945Y-69702741D01*
X127648158Y-69734327D01*
X127732305Y-69761669D01*
X127920648Y-69791500D01*
X127920653Y-69791500D01*
X128111352Y-69791500D01*
X128299694Y-69761669D01*
X128481055Y-69702741D01*
X128650964Y-69616168D01*
X128805239Y-69504080D01*
X128940080Y-69369239D01*
X129052168Y-69214964D01*
X129138741Y-69045055D01*
X129168069Y-68954791D01*
X129207507Y-68897117D01*
X129271866Y-68869919D01*
X129340712Y-68881834D01*
X129392188Y-68929078D01*
X129403931Y-68954792D01*
X129433260Y-69045059D01*
X129500028Y-69176096D01*
X129519832Y-69214964D01*
X129631920Y-69369239D01*
X129766761Y-69504080D01*
X129921036Y-69616168D01*
X130001310Y-69657069D01*
X130090940Y-69702739D01*
X130090942Y-69702739D01*
X130090945Y-69702741D01*
X130188158Y-69734327D01*
X130272305Y-69761669D01*
X130460648Y-69791500D01*
X130460653Y-69791500D01*
X130651352Y-69791500D01*
X130839694Y-69761669D01*
X131021055Y-69702741D01*
X131190964Y-69616168D01*
X131345239Y-69504080D01*
X131480080Y-69369239D01*
X131592168Y-69214964D01*
X131678741Y-69045055D01*
X131708069Y-68954791D01*
X131747507Y-68897117D01*
X131811866Y-68869919D01*
X131880712Y-68881834D01*
X131932188Y-68929078D01*
X131943931Y-68954792D01*
X131973260Y-69045059D01*
X132040028Y-69176096D01*
X132059832Y-69214964D01*
X132171920Y-69369239D01*
X132306761Y-69504080D01*
X132461036Y-69616168D01*
X132541310Y-69657069D01*
X132630940Y-69702739D01*
X132630942Y-69702739D01*
X132630945Y-69702741D01*
X132728158Y-69734327D01*
X132812305Y-69761669D01*
X133000648Y-69791500D01*
X133000653Y-69791500D01*
X133191352Y-69791500D01*
X133379694Y-69761669D01*
X133561055Y-69702741D01*
X133730964Y-69616168D01*
X133885239Y-69504080D01*
X134020080Y-69369239D01*
X134132168Y-69214964D01*
X134218741Y-69045055D01*
X134248069Y-68954791D01*
X134287507Y-68897117D01*
X134351866Y-68869919D01*
X134420712Y-68881834D01*
X134472188Y-68929078D01*
X134483931Y-68954792D01*
X134513260Y-69045059D01*
X134580028Y-69176096D01*
X134599832Y-69214964D01*
X134711920Y-69369239D01*
X134846761Y-69504080D01*
X135001036Y-69616168D01*
X135081310Y-69657069D01*
X135170940Y-69702739D01*
X135170942Y-69702739D01*
X135170945Y-69702741D01*
X135268158Y-69734327D01*
X135352305Y-69761669D01*
X135540648Y-69791500D01*
X135540653Y-69791500D01*
X135731352Y-69791500D01*
X135919694Y-69761669D01*
X136101055Y-69702741D01*
X136270964Y-69616168D01*
X136425239Y-69504080D01*
X136560080Y-69369239D01*
X136672168Y-69214964D01*
X136758741Y-69045055D01*
X136788069Y-68954791D01*
X136827507Y-68897117D01*
X136891866Y-68869919D01*
X136960712Y-68881834D01*
X137012188Y-68929078D01*
X137023931Y-68954792D01*
X137053260Y-69045059D01*
X137120028Y-69176096D01*
X137139832Y-69214964D01*
X137251920Y-69369239D01*
X137386761Y-69504080D01*
X137541036Y-69616168D01*
X137621310Y-69657069D01*
X137710940Y-69702739D01*
X137710942Y-69702739D01*
X137710945Y-69702741D01*
X137808158Y-69734327D01*
X137892305Y-69761669D01*
X138080648Y-69791500D01*
X138080653Y-69791500D01*
X138271352Y-69791500D01*
X138459694Y-69761669D01*
X138641055Y-69702741D01*
X138810964Y-69616168D01*
X138965239Y-69504080D01*
X139100080Y-69369239D01*
X139212168Y-69214964D01*
X139298741Y-69045055D01*
X139328069Y-68954791D01*
X139367507Y-68897117D01*
X139431866Y-68869919D01*
X139500712Y-68881834D01*
X139552188Y-68929078D01*
X139563931Y-68954792D01*
X139593260Y-69045059D01*
X139660028Y-69176096D01*
X139679832Y-69214964D01*
X139791920Y-69369239D01*
X139926761Y-69504080D01*
X140081036Y-69616168D01*
X140161310Y-69657069D01*
X140250940Y-69702739D01*
X140250942Y-69702739D01*
X140250945Y-69702741D01*
X140348158Y-69734327D01*
X140432305Y-69761669D01*
X140620648Y-69791500D01*
X140620653Y-69791500D01*
X140811352Y-69791500D01*
X140999694Y-69761669D01*
X141181055Y-69702741D01*
X141350964Y-69616168D01*
X141505239Y-69504080D01*
X141640080Y-69369239D01*
X141752168Y-69214964D01*
X141838741Y-69045055D01*
X141868069Y-68954791D01*
X141907507Y-68897117D01*
X141971866Y-68869919D01*
X142040712Y-68881834D01*
X142092188Y-68929078D01*
X142103931Y-68954792D01*
X142133260Y-69045059D01*
X142200028Y-69176096D01*
X142219832Y-69214964D01*
X142331920Y-69369239D01*
X142466761Y-69504080D01*
X142621036Y-69616168D01*
X142701310Y-69657069D01*
X142790940Y-69702739D01*
X142790942Y-69702739D01*
X142790945Y-69702741D01*
X142888158Y-69734327D01*
X142972305Y-69761669D01*
X143160648Y-69791500D01*
X143160653Y-69791500D01*
X143351352Y-69791500D01*
X143539694Y-69761669D01*
X143721055Y-69702741D01*
X143890964Y-69616168D01*
X144045239Y-69504080D01*
X144180080Y-69369239D01*
X144292168Y-69214964D01*
X144378741Y-69045055D01*
X144408069Y-68954791D01*
X144447507Y-68897117D01*
X144511866Y-68869919D01*
X144580712Y-68881834D01*
X144632188Y-68929078D01*
X144643931Y-68954792D01*
X144673260Y-69045059D01*
X144740028Y-69176096D01*
X144759832Y-69214964D01*
X144871920Y-69369239D01*
X145006761Y-69504080D01*
X145161036Y-69616168D01*
X145241310Y-69657069D01*
X145330940Y-69702739D01*
X145330942Y-69702739D01*
X145330945Y-69702741D01*
X145428158Y-69734327D01*
X145512305Y-69761669D01*
X145700648Y-69791500D01*
X145700653Y-69791500D01*
X145891352Y-69791500D01*
X146079694Y-69761669D01*
X146261055Y-69702741D01*
X146430964Y-69616168D01*
X146585239Y-69504080D01*
X146720080Y-69369239D01*
X146832168Y-69214964D01*
X146918741Y-69045055D01*
X146948069Y-68954791D01*
X146987507Y-68897117D01*
X147051866Y-68869919D01*
X147120712Y-68881834D01*
X147172188Y-68929078D01*
X147183931Y-68954792D01*
X147213260Y-69045059D01*
X147280028Y-69176096D01*
X147299832Y-69214964D01*
X147411920Y-69369239D01*
X147546761Y-69504080D01*
X147701036Y-69616168D01*
X147781310Y-69657069D01*
X147870940Y-69702739D01*
X147870942Y-69702739D01*
X147870945Y-69702741D01*
X147968158Y-69734327D01*
X148052305Y-69761669D01*
X148240648Y-69791500D01*
X148240653Y-69791500D01*
X148431352Y-69791500D01*
X148619694Y-69761669D01*
X148801055Y-69702741D01*
X148970964Y-69616168D01*
X149125239Y-69504080D01*
X149260080Y-69369239D01*
X149372168Y-69214964D01*
X149458741Y-69045055D01*
X149517669Y-68863694D01*
X149547500Y-68675352D01*
X149547500Y-68484657D01*
X151188490Y-68484657D01*
X151188490Y-68675362D01*
X151218320Y-68863704D01*
X151277250Y-69045069D01*
X151363817Y-69214964D01*
X151363822Y-69214974D01*
X151475910Y-69369249D01*
X151610751Y-69504090D01*
X151765026Y-69616178D01*
X151845300Y-69657079D01*
X151934930Y-69702749D01*
X151934932Y-69702749D01*
X151934935Y-69702751D01*
X152032148Y-69734337D01*
X152116295Y-69761679D01*
X152304638Y-69791510D01*
X152304643Y-69791510D01*
X152495342Y-69791510D01*
X152683684Y-69761679D01*
X152683715Y-69761669D01*
X152865045Y-69702751D01*
X153034954Y-69616178D01*
X153189229Y-69504090D01*
X153324070Y-69369249D01*
X153436158Y-69214974D01*
X153522731Y-69045065D01*
X153552059Y-68954801D01*
X153591497Y-68897127D01*
X153655856Y-68869929D01*
X153724702Y-68881844D01*
X153776178Y-68929088D01*
X153787921Y-68954802D01*
X153817250Y-69045069D01*
X153903817Y-69214964D01*
X153903822Y-69214974D01*
X154015910Y-69369249D01*
X154150751Y-69504090D01*
X154305026Y-69616178D01*
X154385300Y-69657079D01*
X154474930Y-69702749D01*
X154474932Y-69702749D01*
X154474935Y-69702751D01*
X154572148Y-69734337D01*
X154656295Y-69761679D01*
X154844638Y-69791510D01*
X154844643Y-69791510D01*
X155035342Y-69791510D01*
X155223684Y-69761679D01*
X155223715Y-69761669D01*
X155405045Y-69702751D01*
X155574954Y-69616178D01*
X155729229Y-69504090D01*
X155864070Y-69369249D01*
X155976158Y-69214974D01*
X156062731Y-69045065D01*
X156092059Y-68954801D01*
X156131497Y-68897127D01*
X156195856Y-68869929D01*
X156264702Y-68881844D01*
X156316178Y-68929088D01*
X156327921Y-68954802D01*
X156357250Y-69045069D01*
X156443817Y-69214964D01*
X156443822Y-69214974D01*
X156555910Y-69369249D01*
X156690751Y-69504090D01*
X156845026Y-69616178D01*
X156925300Y-69657079D01*
X157014930Y-69702749D01*
X157014932Y-69702749D01*
X157014935Y-69702751D01*
X157112148Y-69734337D01*
X157196295Y-69761679D01*
X157384638Y-69791510D01*
X157384643Y-69791510D01*
X157575342Y-69791510D01*
X157763684Y-69761679D01*
X157763715Y-69761669D01*
X157945045Y-69702751D01*
X158114954Y-69616178D01*
X158269229Y-69504090D01*
X158404070Y-69369249D01*
X158516158Y-69214974D01*
X158602731Y-69045065D01*
X158632059Y-68954801D01*
X158671497Y-68897127D01*
X158735856Y-68869929D01*
X158804702Y-68881844D01*
X158856178Y-68929088D01*
X158867921Y-68954802D01*
X158897250Y-69045069D01*
X158983817Y-69214964D01*
X158983822Y-69214974D01*
X159095910Y-69369249D01*
X159230751Y-69504090D01*
X159385026Y-69616178D01*
X159465300Y-69657079D01*
X159554930Y-69702749D01*
X159554932Y-69702749D01*
X159554935Y-69702751D01*
X159652148Y-69734337D01*
X159736295Y-69761679D01*
X159924638Y-69791510D01*
X159924643Y-69791510D01*
X160115342Y-69791510D01*
X160303684Y-69761679D01*
X160303715Y-69761669D01*
X160485045Y-69702751D01*
X160654954Y-69616178D01*
X160809229Y-69504090D01*
X160944070Y-69369249D01*
X161056158Y-69214974D01*
X161142731Y-69045065D01*
X161172059Y-68954801D01*
X161211497Y-68897127D01*
X161275856Y-68869929D01*
X161344702Y-68881844D01*
X161396178Y-68929088D01*
X161407921Y-68954802D01*
X161437250Y-69045069D01*
X161523817Y-69214964D01*
X161523822Y-69214974D01*
X161635910Y-69369249D01*
X161770751Y-69504090D01*
X161925026Y-69616178D01*
X162005300Y-69657079D01*
X162094930Y-69702749D01*
X162094932Y-69702749D01*
X162094935Y-69702751D01*
X162192148Y-69734337D01*
X162276295Y-69761679D01*
X162464638Y-69791510D01*
X162464643Y-69791510D01*
X162655342Y-69791510D01*
X162843684Y-69761679D01*
X162843715Y-69761669D01*
X163025045Y-69702751D01*
X163194954Y-69616178D01*
X163349229Y-69504090D01*
X163484070Y-69369249D01*
X163596158Y-69214974D01*
X163682731Y-69045065D01*
X163712059Y-68954801D01*
X163751497Y-68897127D01*
X163815856Y-68869929D01*
X163884702Y-68881844D01*
X163936178Y-68929088D01*
X163947921Y-68954802D01*
X163977250Y-69045069D01*
X164063817Y-69214964D01*
X164063822Y-69214974D01*
X164175910Y-69369249D01*
X164310751Y-69504090D01*
X164465026Y-69616178D01*
X164545300Y-69657079D01*
X164634930Y-69702749D01*
X164634932Y-69702749D01*
X164634935Y-69702751D01*
X164732148Y-69734337D01*
X164816295Y-69761679D01*
X165004638Y-69791510D01*
X165004643Y-69791510D01*
X165195342Y-69791510D01*
X165383684Y-69761679D01*
X165383715Y-69761669D01*
X165565045Y-69702751D01*
X165734954Y-69616178D01*
X165889229Y-69504090D01*
X166024070Y-69369249D01*
X166136158Y-69214974D01*
X166222731Y-69045065D01*
X166252059Y-68954801D01*
X166291497Y-68897127D01*
X166355856Y-68869929D01*
X166424702Y-68881844D01*
X166476178Y-68929088D01*
X166487921Y-68954802D01*
X166517250Y-69045069D01*
X166603817Y-69214964D01*
X166603822Y-69214974D01*
X166715910Y-69369249D01*
X166850751Y-69504090D01*
X167005026Y-69616178D01*
X167085300Y-69657079D01*
X167174930Y-69702749D01*
X167174932Y-69702749D01*
X167174935Y-69702751D01*
X167272148Y-69734337D01*
X167356295Y-69761679D01*
X167544638Y-69791510D01*
X167544643Y-69791510D01*
X167735342Y-69791510D01*
X167923684Y-69761679D01*
X167923715Y-69761669D01*
X168105045Y-69702751D01*
X168274954Y-69616178D01*
X168429229Y-69504090D01*
X168564070Y-69369249D01*
X168676158Y-69214974D01*
X168762731Y-69045065D01*
X168792059Y-68954801D01*
X168831497Y-68897127D01*
X168895856Y-68869929D01*
X168964702Y-68881844D01*
X169016178Y-68929088D01*
X169027921Y-68954802D01*
X169057250Y-69045069D01*
X169143817Y-69214964D01*
X169143822Y-69214974D01*
X169255910Y-69369249D01*
X169390751Y-69504090D01*
X169545026Y-69616178D01*
X169625300Y-69657079D01*
X169714930Y-69702749D01*
X169714932Y-69702749D01*
X169714935Y-69702751D01*
X169812148Y-69734337D01*
X169896295Y-69761679D01*
X170084638Y-69791510D01*
X170084643Y-69791510D01*
X170275342Y-69791510D01*
X170463684Y-69761679D01*
X170463715Y-69761669D01*
X170645045Y-69702751D01*
X170814954Y-69616178D01*
X170969229Y-69504090D01*
X171104070Y-69369249D01*
X171216158Y-69214974D01*
X171302731Y-69045065D01*
X171361659Y-68863704D01*
X171387381Y-68701302D01*
X171391490Y-68675362D01*
X171391490Y-68484657D01*
X171361659Y-68296315D01*
X171302729Y-68114950D01*
X171216157Y-67945045D01*
X171104070Y-67790771D01*
X170969229Y-67655930D01*
X170814954Y-67543842D01*
X170814934Y-67543832D01*
X170645049Y-67457270D01*
X170463684Y-67398340D01*
X170275342Y-67368510D01*
X170275337Y-67368510D01*
X170084643Y-67368510D01*
X170084638Y-67368510D01*
X169896295Y-67398340D01*
X169714930Y-67457270D01*
X169545025Y-67543842D01*
X169457005Y-67607793D01*
X169390751Y-67655930D01*
X169390749Y-67655932D01*
X169390748Y-67655932D01*
X169255912Y-67790768D01*
X169255912Y-67790769D01*
X169255910Y-67790771D01*
X169207773Y-67857025D01*
X169143822Y-67945045D01*
X169057250Y-68114950D01*
X169027921Y-68205217D01*
X168988483Y-68262892D01*
X168924124Y-68290090D01*
X168855278Y-68278175D01*
X168803802Y-68230931D01*
X168792059Y-68205217D01*
X168762729Y-68114950D01*
X168676157Y-67945045D01*
X168564070Y-67790771D01*
X168429229Y-67655930D01*
X168274954Y-67543842D01*
X168274934Y-67543832D01*
X168105049Y-67457270D01*
X167923684Y-67398340D01*
X167735342Y-67368510D01*
X167735337Y-67368510D01*
X167544643Y-67368510D01*
X167544638Y-67368510D01*
X167356295Y-67398340D01*
X167174930Y-67457270D01*
X167005025Y-67543842D01*
X166917005Y-67607793D01*
X166850751Y-67655930D01*
X166850749Y-67655932D01*
X166850748Y-67655932D01*
X166715912Y-67790768D01*
X166715912Y-67790769D01*
X166715910Y-67790771D01*
X166667773Y-67857025D01*
X166603822Y-67945045D01*
X166517250Y-68114950D01*
X166487921Y-68205217D01*
X166448483Y-68262892D01*
X166384124Y-68290090D01*
X166315278Y-68278175D01*
X166263802Y-68230931D01*
X166252059Y-68205217D01*
X166222729Y-68114950D01*
X166136157Y-67945045D01*
X166024070Y-67790771D01*
X165889229Y-67655930D01*
X165734954Y-67543842D01*
X165734934Y-67543832D01*
X165565049Y-67457270D01*
X165383684Y-67398340D01*
X165195342Y-67368510D01*
X165195337Y-67368510D01*
X165004643Y-67368510D01*
X165004638Y-67368510D01*
X164816295Y-67398340D01*
X164634930Y-67457270D01*
X164465025Y-67543842D01*
X164377005Y-67607793D01*
X164310751Y-67655930D01*
X164310749Y-67655932D01*
X164310748Y-67655932D01*
X164175912Y-67790768D01*
X164175912Y-67790769D01*
X164175910Y-67790771D01*
X164127773Y-67857025D01*
X164063822Y-67945045D01*
X163977250Y-68114950D01*
X163947921Y-68205217D01*
X163908483Y-68262892D01*
X163844124Y-68290090D01*
X163775278Y-68278175D01*
X163723802Y-68230931D01*
X163712059Y-68205217D01*
X163682729Y-68114950D01*
X163596157Y-67945045D01*
X163484070Y-67790771D01*
X163349229Y-67655930D01*
X163194954Y-67543842D01*
X163194934Y-67543832D01*
X163025049Y-67457270D01*
X162843684Y-67398340D01*
X162655342Y-67368510D01*
X162655337Y-67368510D01*
X162464643Y-67368510D01*
X162464638Y-67368510D01*
X162276295Y-67398340D01*
X162094930Y-67457270D01*
X161925025Y-67543842D01*
X161837005Y-67607793D01*
X161770751Y-67655930D01*
X161770749Y-67655932D01*
X161770748Y-67655932D01*
X161635912Y-67790768D01*
X161635912Y-67790769D01*
X161635910Y-67790771D01*
X161587773Y-67857025D01*
X161523822Y-67945045D01*
X161437250Y-68114950D01*
X161407921Y-68205217D01*
X161368483Y-68262892D01*
X161304124Y-68290090D01*
X161235278Y-68278175D01*
X161183802Y-68230931D01*
X161172059Y-68205217D01*
X161142729Y-68114950D01*
X161056157Y-67945045D01*
X160944070Y-67790771D01*
X160809229Y-67655930D01*
X160654954Y-67543842D01*
X160654934Y-67543832D01*
X160485049Y-67457270D01*
X160303684Y-67398340D01*
X160115342Y-67368510D01*
X160115337Y-67368510D01*
X159924643Y-67368510D01*
X159924638Y-67368510D01*
X159736295Y-67398340D01*
X159554930Y-67457270D01*
X159385025Y-67543842D01*
X159297005Y-67607793D01*
X159230751Y-67655930D01*
X159230749Y-67655932D01*
X159230748Y-67655932D01*
X159095912Y-67790768D01*
X159095912Y-67790769D01*
X159095910Y-67790771D01*
X159047773Y-67857025D01*
X158983822Y-67945045D01*
X158897250Y-68114950D01*
X158867921Y-68205217D01*
X158828483Y-68262892D01*
X158764124Y-68290090D01*
X158695278Y-68278175D01*
X158643802Y-68230931D01*
X158632059Y-68205217D01*
X158602729Y-68114950D01*
X158516157Y-67945045D01*
X158404070Y-67790771D01*
X158269229Y-67655930D01*
X158114954Y-67543842D01*
X158114934Y-67543832D01*
X157945049Y-67457270D01*
X157763684Y-67398340D01*
X157575342Y-67368510D01*
X157575337Y-67368510D01*
X157384643Y-67368510D01*
X157384638Y-67368510D01*
X157196295Y-67398340D01*
X157014930Y-67457270D01*
X156845025Y-67543842D01*
X156757005Y-67607793D01*
X156690751Y-67655930D01*
X156690749Y-67655932D01*
X156690748Y-67655932D01*
X156555912Y-67790768D01*
X156555912Y-67790769D01*
X156555910Y-67790771D01*
X156507773Y-67857025D01*
X156443822Y-67945045D01*
X156357250Y-68114950D01*
X156327921Y-68205217D01*
X156288483Y-68262892D01*
X156224124Y-68290090D01*
X156155278Y-68278175D01*
X156103802Y-68230931D01*
X156092059Y-68205217D01*
X156062729Y-68114950D01*
X155976157Y-67945045D01*
X155864070Y-67790771D01*
X155729229Y-67655930D01*
X155574954Y-67543842D01*
X155574934Y-67543832D01*
X155405049Y-67457270D01*
X155223684Y-67398340D01*
X155035342Y-67368510D01*
X155035337Y-67368510D01*
X154844643Y-67368510D01*
X154844638Y-67368510D01*
X154656295Y-67398340D01*
X154474930Y-67457270D01*
X154305025Y-67543842D01*
X154217005Y-67607793D01*
X154150751Y-67655930D01*
X154150749Y-67655932D01*
X154150748Y-67655932D01*
X154015912Y-67790768D01*
X154015912Y-67790769D01*
X154015910Y-67790771D01*
X153967773Y-67857025D01*
X153903822Y-67945045D01*
X153817250Y-68114950D01*
X153787921Y-68205217D01*
X153748483Y-68262892D01*
X153684124Y-68290090D01*
X153615278Y-68278175D01*
X153563802Y-68230931D01*
X153552059Y-68205217D01*
X153522729Y-68114950D01*
X153436157Y-67945045D01*
X153324070Y-67790771D01*
X153189229Y-67655930D01*
X153034954Y-67543842D01*
X153034934Y-67543832D01*
X152865049Y-67457270D01*
X152683684Y-67398340D01*
X152495342Y-67368510D01*
X152495337Y-67368510D01*
X152304643Y-67368510D01*
X152304638Y-67368510D01*
X152116295Y-67398340D01*
X151934930Y-67457270D01*
X151765025Y-67543842D01*
X151677005Y-67607793D01*
X151610751Y-67655930D01*
X151610749Y-67655932D01*
X151610748Y-67655932D01*
X151475912Y-67790768D01*
X151475912Y-67790769D01*
X151475910Y-67790771D01*
X151427773Y-67857025D01*
X151363822Y-67945045D01*
X151277250Y-68114950D01*
X151218320Y-68296315D01*
X151188490Y-68484657D01*
X149547500Y-68484657D01*
X149547500Y-68484647D01*
X149517669Y-68296305D01*
X149458744Y-68114955D01*
X149458741Y-68114945D01*
X149458739Y-68114942D01*
X149458739Y-68114940D01*
X149372173Y-67945046D01*
X149372168Y-67945036D01*
X149260080Y-67790761D01*
X149125239Y-67655920D01*
X148970964Y-67543832D01*
X148801059Y-67457260D01*
X148619694Y-67398330D01*
X148431352Y-67368500D01*
X148431347Y-67368500D01*
X148240653Y-67368500D01*
X148240648Y-67368500D01*
X148052305Y-67398330D01*
X147870940Y-67457260D01*
X147701035Y-67543832D01*
X147613015Y-67607783D01*
X147546761Y-67655920D01*
X147546759Y-67655922D01*
X147546758Y-67655922D01*
X147411922Y-67790758D01*
X147411922Y-67790759D01*
X147411920Y-67790761D01*
X147411913Y-67790771D01*
X147299832Y-67945035D01*
X147213260Y-68114940D01*
X147183931Y-68205207D01*
X147144493Y-68262882D01*
X147080134Y-68290080D01*
X147011288Y-68278165D01*
X146959812Y-68230921D01*
X146948069Y-68205207D01*
X146918744Y-68114955D01*
X146918741Y-68114945D01*
X146918739Y-68114942D01*
X146918739Y-68114940D01*
X146832173Y-67945046D01*
X146832168Y-67945036D01*
X146720080Y-67790761D01*
X146585239Y-67655920D01*
X146430964Y-67543832D01*
X146261059Y-67457260D01*
X146079694Y-67398330D01*
X145891352Y-67368500D01*
X145891347Y-67368500D01*
X145700653Y-67368500D01*
X145700648Y-67368500D01*
X145512305Y-67398330D01*
X145330940Y-67457260D01*
X145161035Y-67543832D01*
X145073015Y-67607783D01*
X145006761Y-67655920D01*
X145006759Y-67655922D01*
X145006758Y-67655922D01*
X144871922Y-67790758D01*
X144871922Y-67790759D01*
X144871920Y-67790761D01*
X144871913Y-67790771D01*
X144759832Y-67945035D01*
X144673260Y-68114940D01*
X144643931Y-68205207D01*
X144604493Y-68262882D01*
X144540134Y-68290080D01*
X144471288Y-68278165D01*
X144419812Y-68230921D01*
X144408069Y-68205207D01*
X144378744Y-68114955D01*
X144378741Y-68114945D01*
X144378739Y-68114942D01*
X144378739Y-68114940D01*
X144292173Y-67945046D01*
X144292168Y-67945036D01*
X144180080Y-67790761D01*
X144045239Y-67655920D01*
X143890964Y-67543832D01*
X143721059Y-67457260D01*
X143539694Y-67398330D01*
X143351352Y-67368500D01*
X143351347Y-67368500D01*
X143160653Y-67368500D01*
X143160648Y-67368500D01*
X142972305Y-67398330D01*
X142790940Y-67457260D01*
X142621035Y-67543832D01*
X142533015Y-67607783D01*
X142466761Y-67655920D01*
X142466759Y-67655922D01*
X142466758Y-67655922D01*
X142331922Y-67790758D01*
X142331922Y-67790759D01*
X142331920Y-67790761D01*
X142331913Y-67790771D01*
X142219832Y-67945035D01*
X142133260Y-68114940D01*
X142103931Y-68205207D01*
X142064493Y-68262882D01*
X142000134Y-68290080D01*
X141931288Y-68278165D01*
X141879812Y-68230921D01*
X141868069Y-68205207D01*
X141838744Y-68114955D01*
X141838741Y-68114945D01*
X141838739Y-68114942D01*
X141838739Y-68114940D01*
X141752173Y-67945046D01*
X141752168Y-67945036D01*
X141640080Y-67790761D01*
X141505239Y-67655920D01*
X141350964Y-67543832D01*
X141181059Y-67457260D01*
X140999694Y-67398330D01*
X140811352Y-67368500D01*
X140811347Y-67368500D01*
X140620653Y-67368500D01*
X140620648Y-67368500D01*
X140432305Y-67398330D01*
X140250940Y-67457260D01*
X140081035Y-67543832D01*
X139993015Y-67607783D01*
X139926761Y-67655920D01*
X139926759Y-67655922D01*
X139926758Y-67655922D01*
X139791922Y-67790758D01*
X139791922Y-67790759D01*
X139791920Y-67790761D01*
X139791913Y-67790771D01*
X139679832Y-67945035D01*
X139593260Y-68114940D01*
X139563931Y-68205207D01*
X139524493Y-68262882D01*
X139460134Y-68290080D01*
X139391288Y-68278165D01*
X139339812Y-68230921D01*
X139328069Y-68205207D01*
X139298744Y-68114955D01*
X139298741Y-68114945D01*
X139298739Y-68114942D01*
X139298739Y-68114940D01*
X139212173Y-67945046D01*
X139212168Y-67945036D01*
X139100080Y-67790761D01*
X138965239Y-67655920D01*
X138810964Y-67543832D01*
X138641059Y-67457260D01*
X138459694Y-67398330D01*
X138271352Y-67368500D01*
X138271347Y-67368500D01*
X138080653Y-67368500D01*
X138080648Y-67368500D01*
X137892305Y-67398330D01*
X137710940Y-67457260D01*
X137541035Y-67543832D01*
X137453015Y-67607783D01*
X137386761Y-67655920D01*
X137386759Y-67655922D01*
X137386758Y-67655922D01*
X137251922Y-67790758D01*
X137251922Y-67790759D01*
X137251920Y-67790761D01*
X137251913Y-67790771D01*
X137139832Y-67945035D01*
X137053260Y-68114940D01*
X137023931Y-68205207D01*
X136984493Y-68262882D01*
X136920134Y-68290080D01*
X136851288Y-68278165D01*
X136799812Y-68230921D01*
X136788069Y-68205207D01*
X136758744Y-68114955D01*
X136758741Y-68114945D01*
X136758739Y-68114942D01*
X136758739Y-68114940D01*
X136672173Y-67945046D01*
X136672168Y-67945036D01*
X136560080Y-67790761D01*
X136425239Y-67655920D01*
X136270964Y-67543832D01*
X136101059Y-67457260D01*
X135919694Y-67398330D01*
X135731352Y-67368500D01*
X135731347Y-67368500D01*
X135540653Y-67368500D01*
X135540648Y-67368500D01*
X135352305Y-67398330D01*
X135170940Y-67457260D01*
X135001035Y-67543832D01*
X134913015Y-67607783D01*
X134846761Y-67655920D01*
X134846759Y-67655922D01*
X134846758Y-67655922D01*
X134711922Y-67790758D01*
X134711922Y-67790759D01*
X134711920Y-67790761D01*
X134711913Y-67790771D01*
X134599832Y-67945035D01*
X134513260Y-68114940D01*
X134483931Y-68205207D01*
X134444493Y-68262882D01*
X134380134Y-68290080D01*
X134311288Y-68278165D01*
X134259812Y-68230921D01*
X134248069Y-68205207D01*
X134218744Y-68114955D01*
X134218741Y-68114945D01*
X134218739Y-68114942D01*
X134218739Y-68114940D01*
X134132173Y-67945046D01*
X134132168Y-67945036D01*
X134020080Y-67790761D01*
X133885239Y-67655920D01*
X133730964Y-67543832D01*
X133561059Y-67457260D01*
X133379694Y-67398330D01*
X133191352Y-67368500D01*
X133191347Y-67368500D01*
X133000653Y-67368500D01*
X133000648Y-67368500D01*
X132812305Y-67398330D01*
X132630940Y-67457260D01*
X132461035Y-67543832D01*
X132373015Y-67607783D01*
X132306761Y-67655920D01*
X132306759Y-67655922D01*
X132306758Y-67655922D01*
X132171922Y-67790758D01*
X132171922Y-67790759D01*
X132171920Y-67790761D01*
X132171913Y-67790771D01*
X132059832Y-67945035D01*
X131973260Y-68114940D01*
X131943931Y-68205207D01*
X131904493Y-68262882D01*
X131840134Y-68290080D01*
X131771288Y-68278165D01*
X131719812Y-68230921D01*
X131708069Y-68205207D01*
X131678744Y-68114955D01*
X131678741Y-68114945D01*
X131678739Y-68114942D01*
X131678739Y-68114940D01*
X131592173Y-67945046D01*
X131592168Y-67945036D01*
X131480080Y-67790761D01*
X131345239Y-67655920D01*
X131190964Y-67543832D01*
X131021059Y-67457260D01*
X130839694Y-67398330D01*
X130651352Y-67368500D01*
X130651347Y-67368500D01*
X130460653Y-67368500D01*
X130460648Y-67368500D01*
X130272305Y-67398330D01*
X130090940Y-67457260D01*
X129921035Y-67543832D01*
X129833015Y-67607783D01*
X129766761Y-67655920D01*
X129766759Y-67655922D01*
X129766758Y-67655922D01*
X129631922Y-67790758D01*
X129631922Y-67790759D01*
X129631920Y-67790761D01*
X129631913Y-67790771D01*
X129519832Y-67945035D01*
X129433260Y-68114940D01*
X129403931Y-68205207D01*
X129364493Y-68262882D01*
X129300134Y-68290080D01*
X129231288Y-68278165D01*
X129179812Y-68230921D01*
X129168069Y-68205207D01*
X129138744Y-68114955D01*
X129138741Y-68114945D01*
X129138739Y-68114942D01*
X129138739Y-68114940D01*
X129052173Y-67945046D01*
X129052168Y-67945036D01*
X128940080Y-67790761D01*
X128805239Y-67655920D01*
X128650964Y-67543832D01*
X128481059Y-67457260D01*
X128299694Y-67398330D01*
X128111352Y-67368500D01*
X128111347Y-67368500D01*
X127920653Y-67368500D01*
X127920648Y-67368500D01*
X127732305Y-67398330D01*
X127550940Y-67457260D01*
X127381035Y-67543832D01*
X127293015Y-67607783D01*
X127226761Y-67655920D01*
X127226759Y-67655922D01*
X127226758Y-67655922D01*
X127091922Y-67790758D01*
X127091922Y-67790759D01*
X127091920Y-67790761D01*
X127091913Y-67790771D01*
X126979832Y-67945035D01*
X126893260Y-68114940D01*
X126863931Y-68205207D01*
X126824493Y-68262882D01*
X126760134Y-68290080D01*
X126691288Y-68278165D01*
X126639812Y-68230921D01*
X126628069Y-68205207D01*
X126598744Y-68114955D01*
X126598741Y-68114945D01*
X126598739Y-68114942D01*
X126598739Y-68114940D01*
X126512173Y-67945046D01*
X126512168Y-67945036D01*
X126400080Y-67790761D01*
X126265239Y-67655920D01*
X126110964Y-67543832D01*
X125941059Y-67457260D01*
X125759694Y-67398330D01*
X125571352Y-67368500D01*
X125571347Y-67368500D01*
X125380653Y-67368500D01*
X125380648Y-67368500D01*
X125192305Y-67398330D01*
X125010940Y-67457260D01*
X124841035Y-67543832D01*
X124753015Y-67607783D01*
X124686761Y-67655920D01*
X124686759Y-67655922D01*
X124686758Y-67655922D01*
X124551922Y-67790758D01*
X124551922Y-67790759D01*
X124551920Y-67790761D01*
X124551913Y-67790771D01*
X124439832Y-67945035D01*
X124353260Y-68114940D01*
X124294330Y-68296305D01*
X124264500Y-68484647D01*
X123770435Y-68484647D01*
X123770435Y-68458725D01*
X123738773Y-68218232D01*
X123675991Y-67983928D01*
X123583164Y-67759823D01*
X123461880Y-67549752D01*
X123390908Y-67457260D01*
X123314214Y-67357310D01*
X123314208Y-67357303D01*
X123142696Y-67185791D01*
X123142689Y-67185785D01*
X122950247Y-67038119D01*
X122740180Y-66916837D01*
X122740170Y-66916833D01*
X122516076Y-66824010D01*
X122281764Y-66761226D01*
X122041282Y-66729565D01*
X122041275Y-66729565D01*
X121798705Y-66729565D01*
X121798697Y-66729565D01*
X121558215Y-66761226D01*
X121323903Y-66824010D01*
X121099809Y-66916833D01*
X121099799Y-66916837D01*
X120889732Y-67038119D01*
X120697290Y-67185785D01*
X120697283Y-67185791D01*
X120525771Y-67357303D01*
X120525765Y-67357310D01*
X120378099Y-67549752D01*
X120256817Y-67759819D01*
X120256813Y-67759829D01*
X120163990Y-67983923D01*
X120101206Y-68218235D01*
X120069545Y-68458717D01*
X106880500Y-68458717D01*
X106880500Y-67062092D01*
X106881097Y-67049938D01*
X106889930Y-66960259D01*
X106894973Y-66909054D01*
X106899715Y-66885219D01*
X106939034Y-66755604D01*
X106948336Y-66733147D01*
X106950251Y-66729565D01*
X107012182Y-66613698D01*
X107025679Y-66593498D01*
X107111611Y-66488790D01*
X107128790Y-66471611D01*
X107233498Y-66385679D01*
X107253698Y-66372182D01*
X107373149Y-66308334D01*
X107395604Y-66299034D01*
X107525219Y-66259715D01*
X107549054Y-66254973D01*
X107689939Y-66241097D01*
X107702093Y-66240500D01*
X107735882Y-66240500D01*
X171664118Y-66240500D01*
X171697907Y-66240500D01*
X171710061Y-66241097D01*
G37*
%TD.AperFunction*%
%TD*%
M02*
