M48
; DRILL file KiCad 10.0.5 date 2026-08-08T19:15:11
; FORMAT={-:-/ absolute / metric / decimal}
; #@! TF.CreationDate,2026-08-08T19:15:11+01:00
; #@! TF.GenerationSoftware,Kicad,Pcbnew,10.0.5
; #@! TF.FileFunction,Plated,1,4,PTH
FMAT,2
METRIC
; #@! TA.AperFunction,Plated,PTH,ViaDrill
T1C0.300
; #@! TA.AperFunction,Plated,PTH,ComponentDrill
T2C0.600
; #@! TA.AperFunction,Plated,PTH,ComponentDrill
T3C0.800
; #@! TA.AperFunction,Plated,PTH,ComponentDrill
T4C0.850
; #@! TA.AperFunction,Plated,PTH,ComponentDrill
T5C2.700
%
G90
G05
T1
X108.0Y-68.0
X108.0Y-70.0
X108.0Y-72.0
X108.0Y-74.0
X108.0Y-80.0
X108.0Y-82.0
X108.0Y-84.0
X108.0Y-90.0
X108.0Y-92.0
X108.0Y-94.0
X108.0Y-98.0
X108.0Y-100.0
X108.0Y-102.0
X108.0Y-104.0
X108.0Y-106.0
X108.0Y-112.0
X108.0Y-114.0
X108.0Y-116.0
X108.0Y-118.0
X110.0Y-68.0
X110.0Y-70.0
X110.0Y-72.0
X110.0Y-74.0
X110.0Y-90.0
X110.0Y-92.0
X110.0Y-94.0
X110.0Y-98.0
X110.0Y-100.0
X110.0Y-102.0
X110.0Y-104.0
X110.0Y-106.0
X110.0Y-108.0
X110.0Y-112.0
X110.0Y-114.0
X110.0Y-116.0
X110.0Y-118.0
X110.687Y-80.966
X110.687Y-84.015
X112.0Y-68.0
X112.0Y-70.0
X112.0Y-72.0
X112.0Y-92.0
X112.0Y-94.0
X112.0Y-96.0
X112.0Y-102.0
X112.0Y-104.0
X112.0Y-108.0
X112.0Y-110.0
X112.0Y-112.0
X112.0Y-114.0
X112.0Y-116.0
X112.0Y-118.0
X112.649Y-89.281
X112.649Y-90.297
X114.0Y-68.0
X114.0Y-70.0
X114.0Y-92.0
X114.0Y-94.0
X114.0Y-102.0
X114.0Y-110.0
X114.0Y-116.0
X114.0Y-118.0
X114.046Y-75.184
X115.039Y-78.677
X115.061Y-85.098
X115.443Y-72.517
X115.443Y-73.533
X116.0Y-68.0
X116.0Y-70.0
X116.0Y-92.0
X116.0Y-94.0
X116.0Y-102.0
X116.0Y-110.0
X116.0Y-116.0
X116.0Y-118.0
X116.152Y-111.552
X118.0Y-68.0
X118.0Y-70.0
X118.0Y-72.0
X118.0Y-74.0
X118.0Y-76.0
X118.0Y-78.0
X118.0Y-84.0
X118.0Y-86.0
X118.0Y-88.0
X118.0Y-90.0
X118.0Y-92.0
X118.0Y-94.0
X118.0Y-96.0
X118.0Y-98.0
X118.0Y-104.0
X118.0Y-116.0
X118.0Y-118.0
X118.491Y-112.522
X118.618Y-113.157
X119.253Y-113.411
X120.0Y-70.0
X120.0Y-72.0
X120.0Y-74.0
X120.0Y-76.0
X120.0Y-78.0
X120.0Y-84.0
X120.0Y-86.0
X120.0Y-88.0
X120.0Y-90.0
X120.0Y-92.0
X120.0Y-94.0
X120.0Y-96.0
X120.0Y-98.0
X120.0Y-104.0
X120.015Y-113.411
X120.719Y-113.215
X120.777Y-111.917
X120.777Y-112.552
X120.782Y-110.647
X120.782Y-111.282
X122.0Y-72.0
X122.0Y-74.0
X122.0Y-76.0
X122.0Y-78.0
X122.0Y-84.0
X122.0Y-86.0
X122.0Y-88.0
X122.0Y-90.0
X122.0Y-92.0
X122.0Y-94.0
X122.0Y-96.0
X122.0Y-98.0
X122.0Y-100.0
X122.0Y-102.0
X122.0Y-104.0
X122.0Y-106.0
X122.0Y-114.0
X123.317Y-106.68
X124.0Y-70.0
X124.0Y-72.0
X124.0Y-74.0
X124.0Y-76.0
X124.0Y-78.0
X124.0Y-80.0
X124.0Y-86.0
X124.0Y-88.0
X124.0Y-90.0
X124.0Y-92.0
X124.0Y-94.0
X124.0Y-96.0
X124.0Y-98.0
X124.0Y-100.0
X124.0Y-102.0
X124.0Y-104.0
X124.0Y-114.0
X124.0Y-116.0
X124.0Y-118.0
X126.0Y-70.0
X126.0Y-72.0
X126.0Y-74.0
X126.0Y-76.0
X126.0Y-78.0
X126.0Y-80.0
X126.0Y-82.0
X126.0Y-102.0
X126.0Y-104.0
X126.0Y-116.0
X126.0Y-118.0
X126.238Y-108.966
X128.0Y-72.0
X128.0Y-74.0
X128.0Y-76.0
X128.0Y-78.0
X128.0Y-80.0
X128.0Y-82.0
X128.0Y-84.0
X128.0Y-104.0
X128.0Y-106.0
X128.0Y-108.0
X128.0Y-110.0
X128.0Y-112.0
X128.0Y-116.0
X128.0Y-118.0
X129.744Y-90.536
X129.745Y-89.779
X129.769Y-79.692
X129.77Y-78.935
X130.0Y-70.0
X130.0Y-72.0
X130.0Y-76.0
X130.0Y-78.0
X130.0Y-82.0
X130.0Y-84.0
X130.0Y-86.0
X130.0Y-88.0
X130.0Y-92.0
X130.0Y-94.0
X130.0Y-96.0
X130.0Y-98.0
X130.0Y-106.0
X130.0Y-108.0
X130.0Y-110.0
X130.0Y-112.0
X130.0Y-116.0
X130.0Y-118.0
X130.565Y-84.59
X130.581Y-90.535
X130.581Y-89.778
X130.605Y-79.691
X130.606Y-78.934
X130.683Y-73.914
X131.326Y-90.526
X131.326Y-89.77
X131.35Y-79.682
X131.351Y-78.926
X132.0Y-70.0
X132.0Y-92.0
X132.0Y-94.0
X132.0Y-96.0
X132.0Y-98.0
X132.0Y-100.0
X132.0Y-106.0
X132.0Y-108.0
X132.0Y-110.0
X132.0Y-112.0
X132.0Y-116.0
X132.0Y-118.0
X132.334Y-83.693
X132.378Y-72.825
X132.6Y-77.794
X132.604Y-88.5
X133.852Y-81.397
X133.853Y-80.641
X134.0Y-70.0
X134.0Y-94.0
X134.0Y-96.0
X134.0Y-98.0
X134.0Y-100.0
X134.0Y-102.0
X134.0Y-106.0
X134.0Y-108.0
X134.0Y-110.0
X134.0Y-112.0
X134.182Y-92.462
X134.183Y-91.706
X134.688Y-81.396
X134.689Y-80.64
X135.018Y-92.461
X135.019Y-91.705
X135.433Y-81.388
X135.434Y-80.632
X135.763Y-92.453
X135.764Y-91.696
X135.89Y-79.59
X135.96Y-77.794
X136.0Y-94.0
X136.0Y-96.0
X136.0Y-98.0
X136.0Y-100.0
X136.0Y-102.0
X136.0Y-106.0
X136.0Y-108.0
X136.0Y-110.0
X136.0Y-112.0
X136.0Y-118.0
X136.009Y-88.511
X136.346Y-82.518
X136.383Y-71.796
X138.0Y-72.0
X138.0Y-90.0
X138.0Y-92.0
X138.0Y-94.0
X138.0Y-96.0
X138.0Y-98.0
X138.0Y-100.0
X138.0Y-102.0
X138.0Y-106.0
X138.0Y-108.0
X138.0Y-110.0
X138.0Y-112.0
X138.557Y-80.598
X138.582Y-77.808
X138.596Y-88.526
X139.446Y-71.882
X139.446Y-82.55
X139.512Y-85.372
X139.521Y-74.544
X140.0Y-70.0
X140.0Y-78.0
X140.0Y-90.0
X140.0Y-92.0
X140.0Y-94.0
X140.0Y-96.0
X140.0Y-98.0
X140.0Y-100.0
X140.0Y-102.0
X140.0Y-106.0
X140.0Y-108.0
X140.0Y-110.0
X140.0Y-112.0
X140.081Y-80.01
X140.335Y-82.55
X140.348Y-85.371
X140.357Y-74.543
X142.0Y-70.0
X142.0Y-92.0
X142.0Y-94.0
X142.0Y-96.0
X142.0Y-100.0
X142.0Y-102.0
X142.0Y-106.0
X142.0Y-108.0
X142.0Y-110.0
X142.0Y-112.0
X142.464Y-85.372
X142.474Y-74.544
X142.494Y-82.55
X142.621Y-71.882
X142.684Y-77.914
X142.875Y-88.265
X143.3Y-85.371
X143.31Y-74.543
X143.383Y-82.55
X143.891Y-98.425
X144.0Y-70.0
X144.0Y-72.0
X144.0Y-78.0
X144.0Y-92.0
X144.0Y-94.0
X144.0Y-102.0
X144.0Y-106.0
X144.0Y-108.0
X144.0Y-110.0
X144.0Y-112.0
X144.399Y-81.788
X144.653Y-100.457
X144.653Y-101.473
X144.78Y-96.393
X144.78Y-97.409
X144.78Y-98.425
X145.542Y-74.803
X145.8Y-88.803
X146.0Y-72.0
X146.0Y-106.0
X146.0Y-108.0
X146.0Y-110.0
X146.0Y-112.0
X146.0Y-118.0
X147.19Y-118.619
X147.289Y-75.76
X147.447Y-85.852
X147.575Y-105.157
X147.921Y-118.619
X147.955Y-76.835
X148.0Y-106.0
X148.0Y-108.0
X148.0Y-110.0
X148.0Y-112.0
X148.463Y-96.396
X148.463Y-100.654
X148.572Y-75.827
X148.59Y-72.517
X148.652Y-118.619
X149.225Y-85.09
X149.225Y-85.979
X149.225Y-91.567
X149.352Y-77.216
X149.383Y-118.606
X149.479Y-96.774
X149.611Y-100.95
X149.987Y-73.025
X150.0Y-68.0
X150.0Y-70.0
X150.0Y-80.0
X150.0Y-90.0
X150.0Y-108.0
X150.0Y-110.0
X150.0Y-112.0
X150.065Y-106.807
X150.114Y-118.625
X150.241Y-77.216
X150.495Y-92.71
X150.622Y-75.565
X150.868Y-95.286
X151.32Y-76.136
X151.384Y-89.535
X151.392Y-96.159
X151.678Y-79.714
X151.765Y-106.172
X151.765Y-113.107
X151.903Y-95.681
X152.0Y-110.0
X152.0Y-112.0
X152.4Y-90.424
X152.403Y-94.869
X152.734Y-71.634
X152.781Y-83.947
X152.903Y-95.758
X153.207Y-105.487
X153.543Y-116.84
X153.543Y-117.602
X153.797Y-78.486
X153.797Y-112.014
X153.797Y-113.107
X154.0Y-90.0
X154.0Y-108.0
X154.051Y-96.52
X154.051Y-101.219
X154.239Y-105.484
X154.305Y-85.979
X154.305Y-91.511
X154.305Y-116.84
X154.305Y-117.602
X154.559Y-111.252
X154.815Y-94.106
X154.824Y-94.851
X154.825Y-95.687
X155.067Y-116.84
X155.067Y-117.602
X155.278Y-105.466
X155.512Y-88.205
X155.513Y-87.449
X155.572Y-94.107
X155.58Y-94.852
X155.581Y-95.688
X155.702Y-114.173
X156.0Y-78.0
X156.0Y-86.0
X156.0Y-90.0
X156.0Y-108.0
X156.0Y-112.0
X156.348Y-88.204
X156.349Y-87.448
X157.093Y-88.196
X157.094Y-87.439
X157.48Y-112.141
X158.0Y-72.0
X158.0Y-74.0
X158.0Y-76.0
X158.0Y-78.0
X158.0Y-86.0
X158.0Y-90.0
X158.369Y-114.173
X159.669Y-73.195
X159.67Y-72.438
X160.0Y-76.0
X160.0Y-78.0
X160.0Y-96.0
X160.0Y-98.0
X160.147Y-88.392
X160.147Y-102.743
X160.505Y-73.194
X160.506Y-72.437
X160.782Y-82.423
X160.782Y-83.185
X160.782Y-83.947
X161.03Y-109.502
X161.036Y-89.408
X161.036Y-94.996
X161.036Y-103.886
X161.25Y-73.185
X161.251Y-72.429
X161.544Y-82.423
X161.544Y-83.185
X161.544Y-83.947
X162.0Y-96.0
X162.0Y-98.0
X162.0Y-112.0
X162.0Y-114.0
X162.052Y-106.703
X162.052Y-92.202
X162.052Y-92.964
X162.052Y-107.442
X162.179Y-88.9
X162.179Y-103.378
X162.179Y-110.871
X162.714Y-88.352
X162.758Y-102.743
X162.928Y-74.602
X163.737Y-102.727
X163.742Y-88.336
X163.765Y-74.601
X163.766Y-103.503
X163.772Y-89.022
X163.772Y-109.131
X163.778Y-94.65
X163.782Y-104.296
X163.788Y-89.815
X163.788Y-109.924
X163.794Y-95.443
X163.83Y-78.74
X164.0Y-98.0
X164.0Y-112.0
X164.0Y-114.0
X164.0Y-118.0
X164.438Y-103.504
X164.444Y-89.022
X164.445Y-109.132
X164.45Y-94.651
X164.455Y-104.297
X164.46Y-89.816
X164.461Y-109.925
X164.466Y-95.444
X164.606Y-80.834
X164.606Y-81.596
X165.368Y-80.834
X165.368Y-81.596
X165.902Y-74.602
X166.0Y-114.0
X166.738Y-74.601
X167.767Y-89.915
X167.767Y-92.964
X167.894Y-104.266
X167.894Y-107.315
X168.0Y-74.0
X168.0Y-86.0
X168.0Y-88.0
X168.0Y-94.0
X168.0Y-96.0
X168.0Y-100.0
X168.0Y-110.0
X168.0Y-114.0
X168.108Y-105.781
X168.148Y-91.313
X170.0Y-114.0
T3
X169.672Y-73.343
X169.672Y-75.343
X169.672Y-77.343
X169.672Y-79.343
X169.672Y-81.343
X169.672Y-83.343
T4
X125.476Y-68.58
X128.016Y-68.58
X130.556Y-68.58
X133.096Y-68.58
X134.62Y-116.84
X135.636Y-68.58
X137.16Y-116.84
X138.176Y-68.58
X139.7Y-116.84
X140.716Y-68.58
X142.24Y-116.84
X143.256Y-68.58
X144.78Y-116.84
X145.796Y-68.58
X147.32Y-116.84
X148.336Y-68.58
X149.86Y-116.84
X152.4Y-68.58
X152.4Y-116.84
X154.94Y-68.58
X157.48Y-68.58
X157.48Y-116.84
X160.02Y-68.58
X160.02Y-116.84
X162.56Y-68.58
X162.56Y-116.84
X165.1Y-68.58
X165.1Y-116.84
X167.64Y-68.58
X167.64Y-116.84
X170.18Y-68.58
X170.18Y-116.84
T5
X114.473Y-98.762
X114.473Y-105.962
T2
X107.923Y-95.612G85X109.023Y-95.612
G05
X107.923Y-109.112G85X109.023Y-109.112
G05
M30
