%TF.GenerationSoftware,KiCad,Pcbnew,10.0.3*%
%TF.CreationDate,2026-08-08T19:49:16+01:00*%
%TF.ProjectId,ldo,6c646f2e-6b69-4636-9164-5f7063625858,rev?*%
%TF.SameCoordinates,Original*%
%TF.FileFunction,Copper,L3,Inr*%
%TF.FilePolarity,Positive*%
%FSLAX46Y46*%
G04 Gerber Fmt 4.6, Leading zero omitted, Abs format (unit mm)*
G04 Created by KiCad (PCBNEW 10.0.3) date 2026-08-08 19:49:16*
%MOMM*%
%LPD*%
G01*
G04 APERTURE LIST*
%TA.AperFunction,ComponentPad*%
%ADD10O,2.900000X1.200000*%
%TD*%
%TA.AperFunction,ViaPad*%
%ADD11C,0.600000*%
%TD*%
G04 APERTURE END LIST*
D10*
%TO.N,N/C*%
%TO.C,J2*%
X61214000Y-71678000D03*
X61214000Y-58878000D03*
%TD*%
D11*
%TO.N,GND*%
X51816000Y-61087000D03*
X58166000Y-72263000D03*
X62230000Y-69088000D03*
X51054000Y-68072000D03*
X53233175Y-59079029D03*
X50713284Y-60071000D03*
X51816000Y-62865000D03*
X54483000Y-67437000D03*
X60325000Y-65278000D03*
X47625000Y-69977000D03*
X55626000Y-72221046D03*
X56896000Y-60452000D03*
X55626000Y-70739000D03*
X50713284Y-62081430D03*
X50992139Y-72242616D03*
X55372000Y-61778000D03*
X50713284Y-59033430D03*
X42037000Y-58191548D03*
X53594000Y-61087000D03*
X59944000Y-69088000D03*
X41947972Y-72355790D03*
X53233175Y-60095029D03*
X43372360Y-65278000D03*
X47752000Y-61341000D03*
X49730591Y-71291256D03*
X59944000Y-61468000D03*
X47498680Y-69214320D03*
X44450000Y-68199000D03*
X48672113Y-71802484D03*
X53594000Y-62865000D03*
X46068259Y-72389632D03*
X46157287Y-58225390D03*
X54678877Y-61790051D03*
X47752000Y-61962473D03*
X58166000Y-70739000D03*
X50713284Y-61065430D03*
X62230000Y-61468000D03*
X52451000Y-68072000D03*
X44450000Y-62357000D03*
%TO.N,/USB_CC2*%
X45593000Y-66040000D03*
X48922061Y-63596444D03*
%TO.N,VIN*%
X49491242Y-69165151D03*
X53086000Y-71374000D03*
%TO.N,5V*%
X53848000Y-68848046D03*
%TO.N,/D+*%
X49402109Y-64769109D03*
X48006000Y-66167000D03*
%TD*%
%TA.AperFunction,Conductor*%
%TO.N,GND*%
G36*
X59594835Y-57878185D02*
G01*
X59640590Y-57930989D01*
X59650534Y-58000147D01*
X59621509Y-58063703D01*
X59615477Y-58070181D01*
X59524588Y-58161069D01*
X59524588Y-58161070D01*
X59524586Y-58161072D01*
X59480859Y-58221256D01*
X59422768Y-58301211D01*
X59344128Y-58455552D01*
X59290597Y-58620302D01*
X59263500Y-58791389D01*
X59263500Y-58964611D01*
X59290598Y-59135701D01*
X59344127Y-59300445D01*
X59422768Y-59454788D01*
X59524586Y-59594928D01*
X59647072Y-59717414D01*
X59787212Y-59819232D01*
X59941555Y-59897873D01*
X60106299Y-59951402D01*
X60277389Y-59978500D01*
X60277390Y-59978500D01*
X62150610Y-59978500D01*
X62150611Y-59978500D01*
X62321701Y-59951402D01*
X62486445Y-59897873D01*
X62611205Y-59834304D01*
X62679875Y-59821409D01*
X62744615Y-59847685D01*
X62784872Y-59904792D01*
X62791500Y-59944790D01*
X62791500Y-70611209D01*
X62771815Y-70678248D01*
X62719011Y-70724003D01*
X62649853Y-70733947D01*
X62611206Y-70721694D01*
X62486450Y-70658129D01*
X62486447Y-70658128D01*
X62486445Y-70658127D01*
X62321701Y-70604598D01*
X62321699Y-70604597D01*
X62321698Y-70604597D01*
X62190271Y-70583781D01*
X62150611Y-70577500D01*
X60277389Y-70577500D01*
X60237728Y-70583781D01*
X60106302Y-70604597D01*
X59941552Y-70658128D01*
X59787211Y-70736768D01*
X59707256Y-70794859D01*
X59647072Y-70838586D01*
X59647070Y-70838588D01*
X59647069Y-70838588D01*
X59524588Y-70961069D01*
X59524588Y-70961070D01*
X59524586Y-70961072D01*
X59480859Y-71021256D01*
X59422768Y-71101211D01*
X59344128Y-71255552D01*
X59290597Y-71420302D01*
X59263500Y-71591389D01*
X59263500Y-71764610D01*
X59282455Y-71884292D01*
X59290598Y-71935701D01*
X59344127Y-72100445D01*
X59422768Y-72254788D01*
X59524586Y-72394928D01*
X59524588Y-72394930D01*
X59615477Y-72485819D01*
X59648962Y-72547142D01*
X59643978Y-72616834D01*
X59602106Y-72672767D01*
X59536642Y-72697184D01*
X59527796Y-72697500D01*
X41218500Y-72697500D01*
X41151461Y-72677815D01*
X41105706Y-72625011D01*
X41094500Y-72573500D01*
X41094500Y-71295153D01*
X52285500Y-71295153D01*
X52285500Y-71452846D01*
X52316261Y-71607489D01*
X52316264Y-71607501D01*
X52376602Y-71753172D01*
X52376609Y-71753185D01*
X52464210Y-71884288D01*
X52464213Y-71884292D01*
X52575707Y-71995786D01*
X52575711Y-71995789D01*
X52706814Y-72083390D01*
X52706827Y-72083397D01*
X52852498Y-72143735D01*
X52852503Y-72143737D01*
X53007153Y-72174499D01*
X53007156Y-72174500D01*
X53007158Y-72174500D01*
X53164844Y-72174500D01*
X53164845Y-72174499D01*
X53319497Y-72143737D01*
X53465179Y-72083394D01*
X53596289Y-71995789D01*
X53707789Y-71884289D01*
X53795394Y-71753179D01*
X53855737Y-71607497D01*
X53886500Y-71452842D01*
X53886500Y-71295158D01*
X53886500Y-71295155D01*
X53886499Y-71295153D01*
X53855738Y-71140510D01*
X53855737Y-71140503D01*
X53839462Y-71101211D01*
X53795397Y-70994827D01*
X53795390Y-70994814D01*
X53707789Y-70863711D01*
X53707786Y-70863707D01*
X53596292Y-70752213D01*
X53596288Y-70752210D01*
X53465185Y-70664609D01*
X53465172Y-70664602D01*
X53319501Y-70604264D01*
X53319489Y-70604261D01*
X53164845Y-70573500D01*
X53164842Y-70573500D01*
X53007158Y-70573500D01*
X53007155Y-70573500D01*
X52852510Y-70604261D01*
X52852498Y-70604264D01*
X52706827Y-70664602D01*
X52706814Y-70664609D01*
X52575711Y-70752210D01*
X52575707Y-70752213D01*
X52464213Y-70863707D01*
X52464210Y-70863711D01*
X52376609Y-70994814D01*
X52376602Y-70994827D01*
X52316264Y-71140498D01*
X52316261Y-71140510D01*
X52285500Y-71295153D01*
X41094500Y-71295153D01*
X41094500Y-69086304D01*
X48690742Y-69086304D01*
X48690742Y-69243997D01*
X48721503Y-69398640D01*
X48721506Y-69398652D01*
X48781844Y-69544323D01*
X48781851Y-69544336D01*
X48869452Y-69675439D01*
X48869455Y-69675443D01*
X48980949Y-69786937D01*
X48980953Y-69786940D01*
X49112056Y-69874541D01*
X49112069Y-69874548D01*
X49257740Y-69934886D01*
X49257745Y-69934888D01*
X49412395Y-69965650D01*
X49412398Y-69965651D01*
X49412400Y-69965651D01*
X49570086Y-69965651D01*
X49570087Y-69965650D01*
X49724739Y-69934888D01*
X49870421Y-69874545D01*
X50001531Y-69786940D01*
X50113031Y-69675440D01*
X50200636Y-69544330D01*
X50260979Y-69398648D01*
X50291742Y-69243993D01*
X50291742Y-69086309D01*
X50291742Y-69086306D01*
X50291741Y-69086304D01*
X50260980Y-68931661D01*
X50260979Y-68931654D01*
X50259005Y-68926888D01*
X50210823Y-68810564D01*
X50200637Y-68785975D01*
X50200636Y-68785972D01*
X50200634Y-68785969D01*
X50200632Y-68785965D01*
X50189429Y-68769199D01*
X53047500Y-68769199D01*
X53047500Y-68926892D01*
X53078261Y-69081535D01*
X53078264Y-69081547D01*
X53138602Y-69227218D01*
X53138609Y-69227231D01*
X53226210Y-69358334D01*
X53226213Y-69358338D01*
X53337707Y-69469832D01*
X53337711Y-69469835D01*
X53468814Y-69557436D01*
X53468827Y-69557443D01*
X53614498Y-69617781D01*
X53614503Y-69617783D01*
X53769153Y-69648545D01*
X53769156Y-69648546D01*
X53769158Y-69648546D01*
X53926844Y-69648546D01*
X53926845Y-69648545D01*
X54081497Y-69617783D01*
X54227179Y-69557440D01*
X54358289Y-69469835D01*
X54469789Y-69358335D01*
X54557394Y-69227225D01*
X54617737Y-69081543D01*
X54648500Y-68926888D01*
X54648500Y-68769204D01*
X54648500Y-68769201D01*
X54648499Y-68769199D01*
X54620515Y-68628515D01*
X54617737Y-68614549D01*
X54617735Y-68614544D01*
X54557397Y-68468873D01*
X54557390Y-68468860D01*
X54469789Y-68337757D01*
X54469786Y-68337753D01*
X54358292Y-68226259D01*
X54358288Y-68226256D01*
X54227185Y-68138655D01*
X54227172Y-68138648D01*
X54081501Y-68078310D01*
X54081489Y-68078307D01*
X53926845Y-68047546D01*
X53926842Y-68047546D01*
X53769158Y-68047546D01*
X53769155Y-68047546D01*
X53614510Y-68078307D01*
X53614498Y-68078310D01*
X53468827Y-68138648D01*
X53468814Y-68138655D01*
X53337711Y-68226256D01*
X53337707Y-68226259D01*
X53226213Y-68337753D01*
X53226210Y-68337757D01*
X53138609Y-68468860D01*
X53138602Y-68468873D01*
X53078264Y-68614544D01*
X53078261Y-68614556D01*
X53047500Y-68769199D01*
X50189429Y-68769199D01*
X50113031Y-68654862D01*
X50113028Y-68654858D01*
X50001534Y-68543364D01*
X50001530Y-68543361D01*
X49870427Y-68455760D01*
X49870414Y-68455753D01*
X49724743Y-68395415D01*
X49724731Y-68395412D01*
X49570087Y-68364651D01*
X49570084Y-68364651D01*
X49412400Y-68364651D01*
X49412397Y-68364651D01*
X49257752Y-68395412D01*
X49257740Y-68395415D01*
X49112069Y-68455753D01*
X49112056Y-68455760D01*
X48980953Y-68543361D01*
X48980949Y-68543364D01*
X48869455Y-68654858D01*
X48869452Y-68654862D01*
X48781851Y-68785965D01*
X48781844Y-68785978D01*
X48721506Y-68931649D01*
X48721503Y-68931661D01*
X48690742Y-69086304D01*
X41094500Y-69086304D01*
X41094500Y-68092234D01*
X45111860Y-68092234D01*
X45111860Y-68243765D01*
X45151079Y-68390136D01*
X45154127Y-68395415D01*
X45226845Y-68521365D01*
X45333995Y-68628515D01*
X45465225Y-68704281D01*
X45611594Y-68743500D01*
X45611596Y-68743500D01*
X45763124Y-68743500D01*
X45763126Y-68743500D01*
X45909495Y-68704281D01*
X46040725Y-68628515D01*
X46147875Y-68521365D01*
X46223641Y-68390135D01*
X46262860Y-68243766D01*
X46262860Y-68092234D01*
X46223641Y-67945865D01*
X46147875Y-67814635D01*
X46040725Y-67707485D01*
X45971469Y-67667500D01*
X45909496Y-67631719D01*
X45836310Y-67612109D01*
X45763126Y-67592500D01*
X45611594Y-67592500D01*
X45465223Y-67631719D01*
X45333995Y-67707485D01*
X45333992Y-67707487D01*
X45226847Y-67814632D01*
X45226845Y-67814635D01*
X45151079Y-67945863D01*
X45111860Y-68092234D01*
X41094500Y-68092234D01*
X41094500Y-65961153D01*
X44792500Y-65961153D01*
X44792500Y-66118846D01*
X44823261Y-66273489D01*
X44823264Y-66273501D01*
X44883602Y-66419172D01*
X44883609Y-66419185D01*
X44971210Y-66550288D01*
X44971213Y-66550292D01*
X45082707Y-66661786D01*
X45082711Y-66661789D01*
X45213814Y-66749390D01*
X45213827Y-66749397D01*
X45359498Y-66809735D01*
X45359503Y-66809737D01*
X45514153Y-66840499D01*
X45514156Y-66840500D01*
X45514158Y-66840500D01*
X45671844Y-66840500D01*
X45671845Y-66840499D01*
X45826497Y-66809737D01*
X45972179Y-66749394D01*
X46103289Y-66661789D01*
X46214789Y-66550289D01*
X46275042Y-66460114D01*
X46305779Y-66414114D01*
X46307250Y-66415096D01*
X46350339Y-66371222D01*
X46418475Y-66355754D01*
X46484157Y-66379578D01*
X46526532Y-66435131D01*
X46533220Y-66460114D01*
X46542447Y-66518369D01*
X46615433Y-66742996D01*
X46722657Y-66953433D01*
X46861483Y-67144510D01*
X47028490Y-67311517D01*
X47219567Y-67450343D01*
X47318991Y-67501002D01*
X47430003Y-67557566D01*
X47430005Y-67557566D01*
X47430008Y-67557568D01*
X47537517Y-67592500D01*
X47654631Y-67630553D01*
X47887903Y-67667500D01*
X47887908Y-67667500D01*
X48124097Y-67667500D01*
X48357368Y-67630553D01*
X48581992Y-67557568D01*
X48792433Y-67450343D01*
X48983510Y-67311517D01*
X49150517Y-67144510D01*
X49289343Y-66953433D01*
X49396568Y-66742992D01*
X49469553Y-66518368D01*
X49494570Y-66360418D01*
X49524499Y-66297283D01*
X49583811Y-66260352D01*
X49597646Y-66257343D01*
X49753477Y-66232662D01*
X49978101Y-66159677D01*
X50188542Y-66052452D01*
X50379619Y-65913626D01*
X50546626Y-65746619D01*
X50685452Y-65555542D01*
X50792677Y-65345101D01*
X50865662Y-65120477D01*
X50902609Y-64887206D01*
X50902609Y-64651011D01*
X50865662Y-64417740D01*
X50792675Y-64193112D01*
X50685451Y-63982675D01*
X50664603Y-63953980D01*
X50546626Y-63791599D01*
X50379619Y-63624592D01*
X50188542Y-63485766D01*
X49978101Y-63378541D01*
X49753477Y-63305556D01*
X49744275Y-63304098D01*
X49730611Y-63301934D01*
X49667477Y-63272003D01*
X49635450Y-63226910D01*
X49631455Y-63217265D01*
X49631453Y-63217261D01*
X49543850Y-63086155D01*
X49543847Y-63086151D01*
X49432353Y-62974657D01*
X49432349Y-62974654D01*
X49301246Y-62887053D01*
X49301233Y-62887046D01*
X49155562Y-62826708D01*
X49155550Y-62826705D01*
X49000906Y-62795944D01*
X49000903Y-62795944D01*
X48843219Y-62795944D01*
X48843216Y-62795944D01*
X48688571Y-62826705D01*
X48688559Y-62826708D01*
X48542888Y-62887046D01*
X48542875Y-62887053D01*
X48411772Y-62974654D01*
X48411768Y-62974657D01*
X48300274Y-63086151D01*
X48300271Y-63086155D01*
X48212670Y-63217258D01*
X48212663Y-63217271D01*
X48152325Y-63362942D01*
X48152322Y-63362954D01*
X48121561Y-63517597D01*
X48121561Y-63675290D01*
X48152322Y-63829933D01*
X48152324Y-63829941D01*
X48153858Y-63833644D01*
X48154083Y-63835738D01*
X48154092Y-63835768D01*
X48154086Y-63835769D01*
X48161325Y-63903114D01*
X48139614Y-63953980D01*
X48118768Y-63982672D01*
X48011542Y-64193112D01*
X47938556Y-64417739D01*
X47913538Y-64575691D01*
X47883608Y-64638825D01*
X47824296Y-64675756D01*
X47810463Y-64678765D01*
X47654631Y-64703446D01*
X47430003Y-64776433D01*
X47219566Y-64883657D01*
X47110550Y-64962862D01*
X47028490Y-65022483D01*
X47028488Y-65022485D01*
X47028487Y-65022485D01*
X46861485Y-65189487D01*
X46861485Y-65189488D01*
X46861483Y-65189490D01*
X46802799Y-65270261D01*
X46722657Y-65380566D01*
X46615433Y-65591003D01*
X46568975Y-65733986D01*
X46529537Y-65791661D01*
X46465178Y-65818859D01*
X46396332Y-65806944D01*
X46344856Y-65759699D01*
X46336483Y-65743119D01*
X46302397Y-65660827D01*
X46302390Y-65660814D01*
X46214789Y-65529711D01*
X46214786Y-65529707D01*
X46103292Y-65418213D01*
X46103288Y-65418210D01*
X45972185Y-65330609D01*
X45972172Y-65330602D01*
X45826501Y-65270264D01*
X45826489Y-65270261D01*
X45671845Y-65239500D01*
X45671842Y-65239500D01*
X45514158Y-65239500D01*
X45514155Y-65239500D01*
X45359510Y-65270261D01*
X45359498Y-65270264D01*
X45213827Y-65330602D01*
X45213814Y-65330609D01*
X45082711Y-65418210D01*
X45082707Y-65418213D01*
X44971213Y-65529707D01*
X44971210Y-65529711D01*
X44883609Y-65660814D01*
X44883602Y-65660827D01*
X44823264Y-65806498D01*
X44823261Y-65806510D01*
X44792500Y-65961153D01*
X41094500Y-65961153D01*
X41094500Y-62312234D01*
X45111860Y-62312234D01*
X45111860Y-62463765D01*
X45151079Y-62610136D01*
X45188962Y-62675750D01*
X45226845Y-62741365D01*
X45333995Y-62848515D01*
X45465225Y-62924281D01*
X45611594Y-62963500D01*
X45611596Y-62963500D01*
X45763124Y-62963500D01*
X45763126Y-62963500D01*
X45909495Y-62924281D01*
X46040725Y-62848515D01*
X46147875Y-62741365D01*
X46223641Y-62610135D01*
X46262860Y-62463766D01*
X46262860Y-62312234D01*
X46223641Y-62165865D01*
X46147875Y-62034635D01*
X46040725Y-61927485D01*
X45975110Y-61889602D01*
X45909496Y-61851719D01*
X45836310Y-61832109D01*
X45763126Y-61812500D01*
X45611594Y-61812500D01*
X45465223Y-61851719D01*
X45333995Y-61927485D01*
X45333992Y-61927487D01*
X45226847Y-62034632D01*
X45226845Y-62034635D01*
X45151079Y-62165863D01*
X45111860Y-62312234D01*
X41094500Y-62312234D01*
X41094500Y-57982500D01*
X41114185Y-57915461D01*
X41166989Y-57869706D01*
X41218500Y-57858500D01*
X59527796Y-57858500D01*
X59594835Y-57878185D01*
G37*
%TD.AperFunction*%
%TD*%
M02*
