%TF.GenerationSoftware,KiCad,Pcbnew,10.0.3*%
%TF.CreationDate,2026-08-08T19:49:17+01:00*%
%TF.ProjectId,ldo,6c646f2e-6b69-4636-9164-5f7063625858,rev?*%
%TF.SameCoordinates,Original*%
%TF.FileFunction,Paste,Top*%
%TF.FilePolarity,Positive*%
%FSLAX46Y46*%
G04 Gerber Fmt 4.6, Leading zero omitted, Abs format (unit mm)*
G04 Created by KiCad (PCBNEW 10.0.3) date 2026-08-08 19:49:17*
%MOMM*%
%LPD*%
G01*
G04 APERTURE LIST*
G04 Aperture macros list*
%AMRoundRect*
0 Rectangle with rounded corners*
0 $1 Rounding radius*
0 $2 $3 $4 $5 $6 $7 $8 $9 X,Y pos of 4 corners*
0 Add a 4 corners polygon primitive as box body*
4,1,4,$2,$3,$4,$5,$6,$7,$8,$9,$2,$3,0*
0 Add four circle primitives for the rounded corners*
1,1,$1+$1,$2,$3*
1,1,$1+$1,$4,$5*
1,1,$1+$1,$6,$7*
1,1,$1+$1,$8,$9*
0 Add four rect primitives between the rounded corners*
20,1,$1+$1,$2,$3,$4,$5,0*
20,1,$1+$1,$4,$5,$6,$7,0*
20,1,$1+$1,$6,$7,$8,$9,0*
20,1,$1+$1,$8,$9,$2,$3,0*%
G04 Aperture macros list end*
%ADD10RoundRect,0.140000X0.140000X0.170000X-0.140000X0.170000X-0.140000X-0.170000X0.140000X-0.170000X0*%
%ADD11RoundRect,0.140000X-0.140000X-0.170000X0.140000X-0.170000X0.140000X0.170000X-0.140000X0.170000X0*%
%ADD12RoundRect,0.225000X-0.250000X0.225000X-0.250000X-0.225000X0.250000X-0.225000X0.250000X0.225000X0*%
%ADD13O,2.900000X1.200000*%
%ADD14RoundRect,0.325000X1.175000X-0.325000X1.175000X0.325000X-1.175000X0.325000X-1.175000X-0.325000X0*%
%ADD15RoundRect,0.150000X-0.425000X0.150000X-0.425000X-0.150000X0.425000X-0.150000X0.425000X0.150000X0*%
%ADD16RoundRect,0.075000X-0.500000X0.075000X-0.500000X-0.075000X0.500000X-0.075000X0.500000X0.075000X0*%
%ADD17RoundRect,0.250000X-0.750000X0.840000X-0.750000X-0.840000X0.750000X-0.840000X0.750000X0.840000X0*%
%ADD18RoundRect,0.167500X-0.167500X-0.312500X0.167500X-0.312500X0.167500X0.312500X-0.167500X0.312500X0*%
%ADD19RoundRect,0.062500X-0.362500X-0.062500X0.362500X-0.062500X0.362500X0.062500X-0.362500X0.062500X0*%
G04 APERTURE END LIST*
D10*
%TO.C,R6*%
X52773137Y-72221046D03*
X51813137Y-72221046D03*
%TD*%
D11*
%TO.C,R2*%
X48923000Y-62103000D03*
X49883000Y-62103000D03*
%TD*%
%TO.C,C3*%
X48923000Y-60071000D03*
X49883000Y-60071000D03*
%TD*%
D12*
%TO.C,C1*%
X48689831Y-69165151D03*
X48689831Y-70715151D03*
%TD*%
%TO.C,C2*%
X54579137Y-69160046D03*
X54579137Y-70710046D03*
%TD*%
D11*
%TO.C,R7*%
X48923000Y-59055000D03*
X49883000Y-59055000D03*
%TD*%
%TO.C,R1*%
X48923000Y-61087000D03*
X49883000Y-61087000D03*
%TD*%
D13*
%TO.C,J2*%
X61214000Y-71678000D03*
X61214000Y-58878000D03*
D14*
X57514000Y-68778000D03*
X57514000Y-66278000D03*
X57514000Y-64278000D03*
X57514000Y-61778000D03*
%TD*%
D15*
%TO.C,J1*%
X46762360Y-62078000D03*
X46762360Y-62878000D03*
D16*
X46762360Y-64028000D03*
X46762360Y-65028000D03*
X46762360Y-65528000D03*
X46762360Y-66528000D03*
D15*
X46762360Y-67678000D03*
X46762360Y-68478000D03*
X46762360Y-68478000D03*
X46762360Y-67678000D03*
D16*
X46762360Y-67028000D03*
X46762360Y-66028000D03*
X46762360Y-64528000D03*
X46762360Y-63528000D03*
D15*
X46762360Y-62878000D03*
X46762360Y-62078000D03*
D17*
X46187360Y-60168000D03*
X42257360Y-60168000D03*
X46187360Y-70388000D03*
X42257360Y-70388000D03*
%TD*%
D11*
%TO.C,C5*%
X53845137Y-72221046D03*
X54805137Y-72221046D03*
%TD*%
D10*
%TO.C,C4*%
X54963000Y-59055000D03*
X54003000Y-59055000D03*
%TD*%
D18*
%TO.C,U2*%
X51219137Y-69253046D03*
X51219137Y-70443046D03*
X52039137Y-69253046D03*
X52039137Y-70443046D03*
D19*
X50179137Y-68848046D03*
X50179137Y-69348046D03*
X50179137Y-69848046D03*
X50179137Y-70348046D03*
X50179137Y-70848046D03*
X53079137Y-70848046D03*
X53079137Y-70348046D03*
X53079137Y-69848046D03*
X53079137Y-69348046D03*
X53079137Y-68848046D03*
%TD*%
D11*
%TO.C,R8*%
X54007727Y-60093257D03*
X54967727Y-60093257D03*
%TD*%
M02*
