%TF.GenerationSoftware,KiCad,Pcbnew,10.0.3*%
%TF.CreationDate,2026-08-08T19:49:16+01:00*%
%TF.ProjectId,ldo,6c646f2e-6b69-4636-9164-5f7063625858,rev?*%
%TF.SameCoordinates,Original*%
%TF.FileFunction,Copper,L1,Top*%
%TF.FilePolarity,Positive*%
%FSLAX46Y46*%
G04 Gerber Fmt 4.6, Leading zero omitted, Abs format (unit mm)*
G04 Created by KiCad (PCBNEW 10.0.3) date 2026-08-08 19:49:16*
%MOMM*%
%LPD*%
G01*
G04 APERTURE LIST*
G04 Aperture macros list*
%AMRoundRect*
0 Rectangle with rounded corners*
0 $1 Rounding radius*
0 $2 $3 $4 $5 $6 $7 $8 $9 X,Y pos of 4 corners*
0 Add a 4 corners polygon primitive as box body*
4,1,4,$2,$3,$4,$5,$6,$7,$8,$9,$2,$3,0*
0 Add four circle primitives for the rounded corners*
1,1,$1+$1,$2,$3*
1,1,$1+$1,$4,$5*
1,1,$1+$1,$6,$7*
1,1,$1+$1,$8,$9*
0 Add four rect primitives between the rounded corners*
20,1,$1+$1,$2,$3,$4,$5,0*
20,1,$1+$1,$4,$5,$6,$7,0*
20,1,$1+$1,$6,$7,$8,$9,0*
20,1,$1+$1,$8,$9,$2,$3,0*%
G04 Aperture macros list end*
%TA.AperFunction,SMDPad,CuDef*%
%ADD10RoundRect,0.140000X0.140000X0.170000X-0.140000X0.170000X-0.140000X-0.170000X0.140000X-0.170000X0*%
%TD*%
%TA.AperFunction,SMDPad,CuDef*%
%ADD11RoundRect,0.140000X-0.140000X-0.170000X0.140000X-0.170000X0.140000X0.170000X-0.140000X0.170000X0*%
%TD*%
%TA.AperFunction,SMDPad,CuDef*%
%ADD12RoundRect,0.225000X-0.250000X0.225000X-0.250000X-0.225000X0.250000X-0.225000X0.250000X0.225000X0*%
%TD*%
%TA.AperFunction,SMDPad,CuDef*%
%ADD13RoundRect,0.325000X1.175000X-0.325000X1.175000X0.325000X-1.175000X0.325000X-1.175000X-0.325000X0*%
%TD*%
%TA.AperFunction,ComponentPad*%
%ADD14O,2.900000X1.200000*%
%TD*%
%TA.AperFunction,SMDPad,CuDef*%
%ADD15RoundRect,0.150000X-0.425000X0.150000X-0.425000X-0.150000X0.425000X-0.150000X0.425000X0.150000X0*%
%TD*%
%TA.AperFunction,SMDPad,CuDef*%
%ADD16RoundRect,0.075000X-0.500000X0.075000X-0.500000X-0.075000X0.500000X-0.075000X0.500000X0.075000X0*%
%TD*%
%TA.AperFunction,SMDPad,CuDef*%
%ADD17RoundRect,0.250000X-0.750000X0.840000X-0.750000X-0.840000X0.750000X-0.840000X0.750000X0.840000X0*%
%TD*%
%TA.AperFunction,SMDPad,CuDef*%
%ADD18RoundRect,0.062500X-0.362500X-0.062500X0.362500X-0.062500X0.362500X0.062500X-0.362500X0.062500X0*%
%TD*%
%TA.AperFunction,HeatsinkPad*%
%ADD19R,1.650000X2.380000*%
%TD*%
%TA.AperFunction,ViaPad*%
%ADD20C,0.600000*%
%TD*%
%TA.AperFunction,Conductor*%
%ADD21C,0.200000*%
%TD*%
%TA.AperFunction,Conductor*%
%ADD22C,0.600000*%
%TD*%
%TA.AperFunction,Conductor*%
%ADD23C,0.500000*%
%TD*%
%TA.AperFunction,Conductor*%
%ADD24C,0.400000*%
%TD*%
%TA.AperFunction,Conductor*%
%ADD25C,0.332000*%
%TD*%
G04 APERTURE END LIST*
D10*
%TO.P,R6,1*%
%TO.N,Net-(U2-SET)*%
X52773137Y-72221046D03*
%TO.P,R6,2*%
%TO.N,GND*%
X51813137Y-72221046D03*
%TD*%
D11*
%TO.P,R2,1*%
%TO.N,/USB_CC2*%
X48923000Y-62103000D03*
%TO.P,R2,2*%
%TO.N,GND*%
X49883000Y-62103000D03*
%TD*%
%TO.P,C3,1*%
%TO.N,Net-(J1-SHIELD)*%
X48923000Y-60071000D03*
%TO.P,C3,2*%
%TO.N,GND*%
X49883000Y-60071000D03*
%TD*%
D12*
%TO.P,C1,1*%
%TO.N,VIN*%
X48689831Y-69165151D03*
%TO.P,C1,2*%
%TO.N,GND*%
X48689831Y-70715151D03*
%TD*%
%TO.P,C2,1*%
%TO.N,5V*%
X54579137Y-69160046D03*
%TO.P,C2,2*%
%TO.N,GND*%
X54579137Y-70710046D03*
%TD*%
D11*
%TO.P,R7,1*%
%TO.N,Net-(J1-SHIELD)*%
X48923000Y-59055000D03*
%TO.P,R7,2*%
%TO.N,GND*%
X49883000Y-59055000D03*
%TD*%
%TO.P,R1,1*%
%TO.N,/USB_CC1*%
X48923000Y-61087000D03*
%TO.P,R1,2*%
%TO.N,GND*%
X49883000Y-61087000D03*
%TD*%
D13*
%TO.P,J2,1,VBUS_1*%
%TO.N,5V*%
X57514000Y-68778000D03*
%TO.P,J2,2,D-_2*%
%TO.N,/D-*%
X57514000Y-66278000D03*
%TO.P,J2,3,D+_3*%
%TO.N,/D+*%
X57514000Y-64278000D03*
%TO.P,J2,4,GND_4*%
%TO.N,GND*%
X57514000Y-61778000D03*
D14*
%TO.P,J2,SH*%
%TO.N,N/C*%
X61214000Y-71678000D03*
X61214000Y-58878000D03*
%TD*%
D15*
%TO.P,J1,A1,GND_A1*%
%TO.N,GND*%
X46762360Y-62078000D03*
%TO.P,J1,A4,VBUS_A4*%
%TO.N,VIN*%
X46762360Y-62878000D03*
D16*
%TO.P,J1,A5,CC1_A5*%
%TO.N,/USB_CC1*%
X46762360Y-64028000D03*
%TO.P,J1,A6,D+_A6*%
%TO.N,/D+*%
X46762360Y-65028000D03*
%TO.P,J1,A7,D-_A7*%
%TO.N,/D-*%
X46762360Y-65528000D03*
%TO.P,J1,A8,SBU1_A8*%
%TO.N,unconnected-(J1-SBU1-PadA8)*%
X46762360Y-66528000D03*
D15*
%TO.P,J1,A9,VBUS_A9*%
%TO.N,VIN*%
X46762360Y-67678000D03*
%TO.P,J1,A12,GND_A12*%
%TO.N,GND*%
X46762360Y-68478000D03*
%TO.P,J1,B1,GND_B1*%
X46762360Y-68478000D03*
%TO.P,J1,B4,VBUS_B4*%
%TO.N,VIN*%
X46762360Y-67678000D03*
D16*
%TO.P,J1,B5,CC2_B5*%
%TO.N,/USB_CC2*%
X46762360Y-67028000D03*
%TO.P,J1,B6,D+_B6*%
%TO.N,/D+*%
X46762360Y-66028000D03*
%TO.P,J1,B7,D-_B7*%
%TO.N,/D-*%
X46762360Y-64528000D03*
%TO.P,J1,B8,SBU2_B8*%
%TO.N,unconnected-(J1-SBU2-PadB8)*%
X46762360Y-63528000D03*
D15*
%TO.P,J1,B9,VBUS_B9*%
%TO.N,VIN*%
X46762360Y-62878000D03*
%TO.P,J1,B12,GND_B12*%
%TO.N,GND*%
X46762360Y-62078000D03*
D17*
%TO.P,J1,SH,SHIELD_SH*%
%TO.N,Net-(J1-SHIELD)*%
X46187360Y-60168000D03*
X42257360Y-60168000D03*
X46187360Y-70388000D03*
X42257360Y-70388000D03*
%TD*%
D11*
%TO.P,C5,1*%
%TO.N,Net-(U2-SET)*%
X53845137Y-72221046D03*
%TO.P,C5,2*%
%TO.N,GND*%
X54805137Y-72221046D03*
%TD*%
D10*
%TO.P,C4,1*%
%TO.N,Net-(J2-Shield)*%
X54963000Y-59055000D03*
%TO.P,C4,2*%
%TO.N,GND*%
X54003000Y-59055000D03*
%TD*%
D18*
%TO.P,U2,1,IN_1*%
%TO.N,VIN*%
X50179137Y-68848046D03*
%TO.P,U2,2,IN_2*%
X50179137Y-69348046D03*
%TO.P,U2,3,EN/UV_3*%
X50179137Y-69848046D03*
%TO.P,U2,4,PG_4*%
%TO.N,unconnected-(U2-PG-Pad4)*%
X50179137Y-70348046D03*
%TO.P,U2,5,ILIM_5*%
%TO.N,GND*%
X50179137Y-70848046D03*
%TO.P,U2,6,PGFB_6*%
%TO.N,VIN*%
X53079137Y-70848046D03*
%TO.P,U2,7,SET_7*%
%TO.N,Net-(U2-SET)*%
X53079137Y-70348046D03*
%TO.P,U2,8,GND_8*%
%TO.N,GND*%
X53079137Y-69848046D03*
%TO.P,U2,9,OUTS_9*%
%TO.N,5V*%
X53079137Y-69348046D03*
%TO.P,U2,10,OUT_10*%
X53079137Y-68848046D03*
D19*
%TO.P,U2,11,GND_11*%
%TO.N,GND*%
X51629137Y-69848046D03*
%TD*%
D11*
%TO.P,R8,1*%
%TO.N,GND*%
X54007727Y-60093257D03*
%TO.P,R8,2*%
%TO.N,Net-(J2-Shield)*%
X54967727Y-60093257D03*
%TD*%
D20*
%TO.N,GND*%
X51816000Y-61087000D03*
X58166000Y-72263000D03*
X62230000Y-69088000D03*
X51054000Y-68072000D03*
X53233175Y-59079029D03*
X50713284Y-60071000D03*
X51816000Y-62865000D03*
X54483000Y-67437000D03*
X60325000Y-65278000D03*
X47625000Y-69977000D03*
X55626000Y-72221046D03*
X56896000Y-60452000D03*
X55626000Y-70739000D03*
X50713284Y-62081430D03*
X50992139Y-72242616D03*
X55372000Y-61778000D03*
X50713284Y-59033430D03*
X42037000Y-58191548D03*
X53594000Y-61087000D03*
X59944000Y-69088000D03*
X41947972Y-72355790D03*
X53233175Y-60095029D03*
X43372360Y-65278000D03*
X47752000Y-61341000D03*
X49730591Y-71291256D03*
X59944000Y-61468000D03*
X47498680Y-69214320D03*
X44450000Y-68199000D03*
X48672113Y-71802484D03*
X53594000Y-62865000D03*
X46068259Y-72389632D03*
X46157287Y-58225390D03*
X54678877Y-61790051D03*
X47752000Y-61962473D03*
X58166000Y-70739000D03*
X50713284Y-61065430D03*
X62230000Y-61468000D03*
X52451000Y-68072000D03*
X44450000Y-62357000D03*
%TO.N,/USB_CC2*%
X45593000Y-66040000D03*
X48922061Y-63596444D03*
%TO.N,VIN*%
X49491242Y-69165151D03*
X53086000Y-71374000D03*
%TO.N,5V*%
X53848000Y-68848046D03*
%TO.N,/D+*%
X49402109Y-64769109D03*
X48006000Y-66167000D03*
%TD*%
%TO.N,Net-(U2-SET)*%
D21*
X53845137Y-70816082D02*
X53845137Y-72221046D01*
X52773137Y-72221046D02*
X53845137Y-72221046D01*
X53377101Y-70348046D02*
X53845137Y-70816082D01*
X53079137Y-70348046D02*
X53377101Y-70348046D01*
%TO.N,GND*%
D22*
X47636473Y-62078000D02*
X47752000Y-61962473D01*
X54690928Y-61778000D02*
X54678877Y-61790051D01*
D21*
X54579137Y-70710046D02*
X53717137Y-69848046D01*
X49892286Y-61087000D02*
X50691714Y-61087000D01*
X49730591Y-71291256D02*
X49735927Y-71291256D01*
D22*
X57514000Y-61778000D02*
X54690928Y-61778000D01*
D21*
X49892286Y-59055000D02*
X50691714Y-59055000D01*
D22*
X46762360Y-62078000D02*
X47636473Y-62078000D01*
D21*
X49852002Y-60092570D02*
X50651430Y-60092570D01*
X53717137Y-69848046D02*
X53079137Y-69848046D01*
D22*
X47625000Y-69340640D02*
X47625000Y-69977000D01*
X46793526Y-68478000D02*
X47514263Y-69198737D01*
X46762360Y-68478000D02*
X46793526Y-68478000D01*
D21*
X48689831Y-71784766D02*
X48672113Y-71802484D01*
X54054173Y-60073459D02*
X53254745Y-60073459D01*
X51813137Y-72221046D02*
X51013709Y-72221046D01*
X51629137Y-69848046D02*
X53079137Y-69848046D01*
X54551137Y-70739000D02*
X55626000Y-70739000D01*
X51013709Y-72221046D02*
X50992139Y-72242616D01*
D22*
X47752000Y-61341000D02*
X47752000Y-61962473D01*
D21*
X54054173Y-59057459D02*
X53254745Y-59057459D01*
X54805137Y-72221046D02*
X55626000Y-72221046D01*
X49892286Y-62103000D02*
X50691714Y-62103000D01*
D22*
X47498680Y-69214320D02*
X47625000Y-69340640D01*
D21*
X48689831Y-70715151D02*
X48689831Y-71784766D01*
X49735927Y-71291256D02*
X50179137Y-70848046D01*
%TO.N,/USB_CC2*%
X46296372Y-67028000D02*
X46762360Y-67028000D01*
X48923000Y-63091000D02*
X48923000Y-62103000D01*
X48922061Y-63091939D02*
X48923000Y-63091000D01*
X45593000Y-66324628D02*
X46296372Y-67028000D01*
X45593000Y-66040000D02*
X45593000Y-66324628D01*
X48922061Y-63596444D02*
X48922061Y-63091939D01*
%TO.N,Net-(J1-SHIELD)*%
X46187360Y-70388000D02*
X42257360Y-70388000D01*
X48923000Y-60071000D02*
X46284360Y-60071000D01*
X42257360Y-60168000D02*
X42257360Y-70388000D01*
X46284360Y-60071000D02*
X46187360Y-60168000D01*
X46217360Y-70358000D02*
X46187360Y-70388000D01*
X48923000Y-60071000D02*
X48923000Y-59055000D01*
X42257360Y-60168000D02*
X46187360Y-60168000D01*
%TO.N,VIN*%
D23*
X48689831Y-68715151D02*
X48689831Y-69165151D01*
D21*
X53079137Y-71367137D02*
X53079137Y-70848046D01*
D23*
X46862360Y-67778000D02*
X47752680Y-67778000D01*
D24*
X46304950Y-62878000D02*
X44912360Y-64270590D01*
X49491242Y-69165151D02*
X49499137Y-69173046D01*
X50179137Y-68848046D02*
X50179137Y-69173046D01*
D23*
X47752680Y-67778000D02*
X48689831Y-68715151D01*
D21*
X53086000Y-71374000D02*
X53079137Y-71367137D01*
D24*
X46293376Y-67678000D02*
X46762360Y-67678000D01*
X48689831Y-69165151D02*
X49491242Y-69165151D01*
X44912360Y-64270590D02*
X44912360Y-66296984D01*
D23*
X46762360Y-67678000D02*
X46862360Y-67778000D01*
D24*
X50179137Y-69173046D02*
X50179137Y-69848046D01*
X44912360Y-66296984D02*
X46293376Y-67678000D01*
X46762360Y-62878000D02*
X46304950Y-62878000D01*
X49499137Y-69173046D02*
X50179137Y-69173046D01*
%TO.N,5V*%
X53079137Y-68848046D02*
X53848000Y-68848046D01*
D23*
X53848000Y-68848046D02*
X54267137Y-68848046D01*
X54267137Y-68848046D02*
X54579137Y-69160046D01*
X53848000Y-68848046D02*
X57443954Y-68848046D01*
D21*
X53079137Y-69348046D02*
X54391137Y-69348046D01*
X54391137Y-69348046D02*
X54579137Y-69160046D01*
D23*
X57443954Y-68848046D02*
X57514000Y-68778000D01*
%TO.N,/USB_CC1*%
D21*
X48443000Y-63063000D02*
X48443000Y-61567000D01*
X48443000Y-61567000D02*
X48923000Y-61087000D01*
X47478000Y-64028000D02*
X48443000Y-63063000D01*
X46762360Y-64028000D02*
X47478000Y-64028000D01*
%TO.N,/D-*%
D25*
X56546594Y-66278000D02*
X56181443Y-66278000D01*
X46203034Y-64528000D02*
X45921360Y-64809674D01*
X56181443Y-66278000D02*
X55435443Y-65532000D01*
X46203034Y-65528000D02*
X46762360Y-65528000D01*
X55435443Y-65532000D02*
X47244000Y-65532000D01*
X47240000Y-65528000D02*
X46762360Y-65528000D01*
X47244000Y-65532000D02*
X47240000Y-65528000D01*
X45921360Y-64809674D02*
X45921360Y-65246326D01*
X45921360Y-65246326D02*
X46203034Y-65528000D01*
X46762360Y-64528000D02*
X46203034Y-64528000D01*
%TO.N,/D+*%
X48006000Y-66167000D02*
X47867000Y-66028000D01*
X49402109Y-64769109D02*
X49657000Y-65024000D01*
X46762360Y-65028000D02*
X49143218Y-65028000D01*
X47867000Y-66028000D02*
X46762360Y-66028000D01*
X49143218Y-65028000D02*
X50034000Y-65028000D01*
X55499000Y-65024000D02*
X56245000Y-64278000D01*
X56245000Y-64278000D02*
X56309202Y-64278000D01*
D21*
X57438000Y-63968000D02*
X57652000Y-63968000D01*
D25*
X50034000Y-65028000D02*
X50038000Y-65024000D01*
X49143218Y-65028000D02*
X49402109Y-64769109D01*
X49657000Y-65024000D02*
X50038000Y-65024000D01*
X50038000Y-65024000D02*
X55499000Y-65024000D01*
%TO.N,Net-(J2-Shield)*%
D21*
X58039000Y-59055000D02*
X58928000Y-59944000D01*
X54967727Y-60093257D02*
X54967727Y-59059727D01*
X58928000Y-59944000D02*
X61214000Y-59944000D01*
X54963000Y-59055000D02*
X58039000Y-59055000D01*
X61214000Y-59944000D02*
X61214000Y-58878000D01*
X54967727Y-59059727D02*
X54963000Y-59055000D01*
X61214000Y-71678000D02*
X61214000Y-59944000D01*
%TD*%
%TA.AperFunction,Conductor*%
%TO.N,GND*%
G36*
X54809701Y-66918185D02*
G01*
X54855456Y-66970989D01*
X54863632Y-66995255D01*
X54877835Y-67058317D01*
X54877835Y-67058319D01*
X54912525Y-67144511D01*
X54969795Y-67286809D01*
X55097216Y-67497589D01*
X55097219Y-67497592D01*
X55256798Y-67685201D01*
X55334993Y-67751713D01*
X55444411Y-67844784D01*
X55444419Y-67844789D01*
X55444422Y-67844791D01*
X55481870Y-67867429D01*
X55529058Y-67918956D01*
X55540897Y-67987816D01*
X55513629Y-68052144D01*
X55455910Y-68091519D01*
X55417721Y-68097546D01*
X54152604Y-68097546D01*
X54105155Y-68088108D01*
X54081497Y-68078309D01*
X54081493Y-68078308D01*
X54081488Y-68078306D01*
X53926845Y-68047546D01*
X53926842Y-68047546D01*
X53769158Y-68047546D01*
X53769155Y-68047546D01*
X53614510Y-68078307D01*
X53614498Y-68078310D01*
X53470136Y-68138107D01*
X53422684Y-68147546D01*
X53010142Y-68147546D01*
X52874815Y-68174464D01*
X52874812Y-68174465D01*
X52874810Y-68174465D01*
X52874809Y-68174466D01*
X52874807Y-68174467D01*
X52781517Y-68213108D01*
X52734068Y-68222546D01*
X52679734Y-68222546D01*
X52569673Y-68237034D01*
X52569664Y-68237037D01*
X52432711Y-68293765D01*
X52432708Y-68293766D01*
X52432708Y-68293767D01*
X52315101Y-68384010D01*
X52226361Y-68499659D01*
X52224856Y-68501620D01*
X52168128Y-68638573D01*
X52168127Y-68638575D01*
X52153637Y-68748644D01*
X52153637Y-68947449D01*
X52168126Y-69057514D01*
X52170231Y-69065368D01*
X52166951Y-69066246D01*
X52172718Y-69120119D01*
X52169654Y-69130568D01*
X52170232Y-69130723D01*
X52168127Y-69138575D01*
X52153637Y-69248644D01*
X52153637Y-69447449D01*
X52168125Y-69557509D01*
X52168128Y-69557518D01*
X52224856Y-69694472D01*
X52224858Y-69694475D01*
X52284774Y-69772560D01*
X52309968Y-69837729D01*
X52295929Y-69906174D01*
X52284774Y-69923532D01*
X52224858Y-70001616D01*
X52224856Y-70001619D01*
X52168128Y-70138573D01*
X52168127Y-70138575D01*
X52153637Y-70248644D01*
X52153637Y-70447449D01*
X52168126Y-70557514D01*
X52170231Y-70565368D01*
X52166951Y-70566246D01*
X52172718Y-70620119D01*
X52169654Y-70630568D01*
X52170232Y-70630723D01*
X52168127Y-70638575D01*
X52153637Y-70748644D01*
X52153637Y-70947449D01*
X52168125Y-71057509D01*
X52168128Y-71057518D01*
X52190902Y-71112500D01*
X52224858Y-71194475D01*
X52259876Y-71240112D01*
X52268119Y-71261432D01*
X52280477Y-71280662D01*
X52283392Y-71300940D01*
X52285070Y-71305279D01*
X52285500Y-71315597D01*
X52285500Y-71442910D01*
X52265815Y-71509949D01*
X52242729Y-71535177D01*
X52242966Y-71535414D01*
X52237641Y-71540738D01*
X52237512Y-71540880D01*
X52237458Y-71540921D01*
X52123021Y-71655357D01*
X52123018Y-71655361D01*
X52040642Y-71794652D01*
X52040641Y-71794655D01*
X51995494Y-71950048D01*
X51995493Y-71950054D01*
X51992637Y-71986348D01*
X51992637Y-72455743D01*
X51995493Y-72492037D01*
X51995494Y-72492040D01*
X52009110Y-72538904D01*
X52008911Y-72608773D01*
X51970970Y-72667444D01*
X51907332Y-72696288D01*
X51890034Y-72697500D01*
X41218500Y-72697500D01*
X41151461Y-72677815D01*
X41105706Y-72625011D01*
X41094500Y-72573500D01*
X41094500Y-72053542D01*
X41114185Y-71986503D01*
X41166989Y-71940748D01*
X41236147Y-71930804D01*
X41257495Y-71935834D01*
X41354563Y-71967999D01*
X41457351Y-71978500D01*
X43057368Y-71978499D01*
X43160157Y-71967999D01*
X43326694Y-71912814D01*
X43476016Y-71820712D01*
X43600072Y-71696656D01*
X43692174Y-71547334D01*
X43747359Y-71380797D01*
X43757860Y-71278009D01*
X43757860Y-71112500D01*
X43777545Y-71045461D01*
X43830349Y-70999706D01*
X43881860Y-70988500D01*
X44562861Y-70988500D01*
X44629900Y-71008185D01*
X44675655Y-71060989D01*
X44686861Y-71112500D01*
X44686861Y-71278018D01*
X44697360Y-71380796D01*
X44697361Y-71380799D01*
X44717943Y-71442910D01*
X44752546Y-71547334D01*
X44844648Y-71696656D01*
X44968704Y-71820712D01*
X45118026Y-71912814D01*
X45284563Y-71967999D01*
X45387351Y-71978500D01*
X46987368Y-71978499D01*
X47090157Y-71967999D01*
X47256694Y-71912814D01*
X47406016Y-71820712D01*
X47530072Y-71696656D01*
X47622174Y-71547334D01*
X47677359Y-71380797D01*
X47687860Y-71278009D01*
X47687859Y-69963552D01*
X47707544Y-69896514D01*
X47760347Y-69850759D01*
X47829506Y-69840815D01*
X47893062Y-69869840D01*
X47899540Y-69875872D01*
X47986786Y-69963118D01*
X47986790Y-69963121D01*
X48131125Y-70052149D01*
X48131128Y-70052150D01*
X48131134Y-70052154D01*
X48292123Y-70105500D01*
X48391486Y-70115651D01*
X48988175Y-70115650D01*
X48988183Y-70115649D01*
X48988186Y-70115649D01*
X49042591Y-70110091D01*
X49087539Y-70105500D01*
X49093152Y-70103639D01*
X49162979Y-70101235D01*
X49223023Y-70136963D01*
X49254219Y-70199482D01*
X49255101Y-70237526D01*
X49253637Y-70248647D01*
X49253637Y-70447449D01*
X49268125Y-70557509D01*
X49268128Y-70557518D01*
X49298386Y-70630568D01*
X49324858Y-70694475D01*
X49415101Y-70812082D01*
X49532708Y-70902325D01*
X49669665Y-70959055D01*
X49779736Y-70973546D01*
X50578537Y-70973545D01*
X50578540Y-70973545D01*
X50688600Y-70959057D01*
X50688604Y-70959055D01*
X50688609Y-70959055D01*
X50825566Y-70902325D01*
X50943173Y-70812082D01*
X51033416Y-70694475D01*
X51090146Y-70557518D01*
X51104637Y-70447447D01*
X51104636Y-70248646D01*
X51090146Y-70138574D01*
X51090145Y-70138571D01*
X51088042Y-70130720D01*
X51091344Y-70129835D01*
X51085529Y-70076121D01*
X51088638Y-70065531D01*
X51088042Y-70065372D01*
X51090145Y-70057521D01*
X51090145Y-70057520D01*
X51090146Y-70057518D01*
X51104637Y-69947447D01*
X51104636Y-69748646D01*
X51090146Y-69638574D01*
X51090145Y-69638571D01*
X51088042Y-69630720D01*
X51091344Y-69629835D01*
X51085529Y-69576121D01*
X51088638Y-69565531D01*
X51088042Y-69565372D01*
X51090145Y-69557521D01*
X51090145Y-69557520D01*
X51090146Y-69557518D01*
X51104637Y-69447447D01*
X51104636Y-69248646D01*
X51102005Y-69228663D01*
X51100220Y-69215100D01*
X51090146Y-69138574D01*
X51090145Y-69138571D01*
X51088042Y-69130720D01*
X51091344Y-69129835D01*
X51085529Y-69076121D01*
X51088638Y-69065531D01*
X51088042Y-69065372D01*
X51090145Y-69057521D01*
X51090145Y-69057520D01*
X51090146Y-69057518D01*
X51104637Y-68947447D01*
X51104636Y-68748646D01*
X51104636Y-68748644D01*
X51104636Y-68748642D01*
X51090148Y-68638582D01*
X51090146Y-68638575D01*
X51090146Y-68638574D01*
X51033416Y-68501617D01*
X50943173Y-68384010D01*
X50825566Y-68293767D01*
X50825562Y-68293765D01*
X50688609Y-68237037D01*
X50688607Y-68237036D01*
X50578547Y-68222547D01*
X50578544Y-68222546D01*
X50578538Y-68222546D01*
X50578531Y-68222546D01*
X50524206Y-68222546D01*
X50476754Y-68213107D01*
X50383469Y-68174467D01*
X50383459Y-68174464D01*
X50248132Y-68147546D01*
X50248130Y-68147546D01*
X50110144Y-68147546D01*
X50110142Y-68147546D01*
X49974815Y-68174464D01*
X49974812Y-68174465D01*
X49974810Y-68174465D01*
X49974809Y-68174466D01*
X49974807Y-68174467D01*
X49881517Y-68213108D01*
X49834068Y-68222546D01*
X49779734Y-68222546D01*
X49669673Y-68237034D01*
X49669664Y-68237037D01*
X49532710Y-68293765D01*
X49532707Y-68293767D01*
X49491106Y-68325689D01*
X49425937Y-68350883D01*
X49357492Y-68336844D01*
X49312518Y-68296204D01*
X49291731Y-68265094D01*
X49272781Y-68236733D01*
X48710375Y-67674327D01*
X48676890Y-67613004D01*
X48681874Y-67543312D01*
X48723746Y-67487379D01*
X48741762Y-67476161D01*
X48792431Y-67450344D01*
X48792430Y-67450344D01*
X48792433Y-67450343D01*
X48983510Y-67311517D01*
X49150517Y-67144510D01*
X49289343Y-66953433D01*
X49292118Y-66949614D01*
X49347448Y-66906949D01*
X49392436Y-66898500D01*
X54742662Y-66898500D01*
X54809701Y-66918185D01*
G37*
%TD.AperFunction*%
%TA.AperFunction,Conductor*%
G36*
X59594835Y-57878185D02*
G01*
X59640590Y-57930989D01*
X59650534Y-58000147D01*
X59621509Y-58063703D01*
X59615477Y-58070181D01*
X59524588Y-58161069D01*
X59524588Y-58161070D01*
X59524586Y-58161072D01*
X59480859Y-58221256D01*
X59422768Y-58301211D01*
X59344128Y-58455552D01*
X59344127Y-58455554D01*
X59344127Y-58455555D01*
X59321786Y-58524313D01*
X59290597Y-58620302D01*
X59263500Y-58791389D01*
X59263500Y-58964610D01*
X59291360Y-59140513D01*
X59289137Y-59140865D01*
X59286046Y-59201369D01*
X59245322Y-59258143D01*
X59180368Y-59283887D01*
X59111807Y-59270428D01*
X59081325Y-59248090D01*
X58526590Y-58693355D01*
X58526588Y-58693352D01*
X58407717Y-58574481D01*
X58407716Y-58574480D01*
X58320904Y-58524360D01*
X58320904Y-58524359D01*
X58320900Y-58524358D01*
X58270785Y-58495423D01*
X58118057Y-58454499D01*
X57959943Y-58454499D01*
X57952347Y-58454499D01*
X57952331Y-58454500D01*
X55629666Y-58454500D01*
X55562627Y-58434815D01*
X55541984Y-58418180D01*
X55498692Y-58374887D01*
X55498684Y-58374881D01*
X55359393Y-58292505D01*
X55359390Y-58292504D01*
X55203997Y-58247357D01*
X55203991Y-58247356D01*
X55167697Y-58244500D01*
X55167690Y-58244500D01*
X54758310Y-58244500D01*
X54758302Y-58244500D01*
X54722008Y-58247356D01*
X54722002Y-58247357D01*
X54566609Y-58292504D01*
X54566606Y-58292505D01*
X54427315Y-58374881D01*
X54427307Y-58374887D01*
X54312887Y-58489307D01*
X54312881Y-58489315D01*
X54230505Y-58628606D01*
X54230504Y-58628609D01*
X54185357Y-58784002D01*
X54185356Y-58784008D01*
X54182500Y-58820302D01*
X54182500Y-59289697D01*
X54185356Y-59325991D01*
X54185357Y-59325997D01*
X54230504Y-59481390D01*
X54230506Y-59481395D01*
X54250382Y-59515005D01*
X54267563Y-59582729D01*
X54250383Y-59641241D01*
X54235236Y-59666854D01*
X54235231Y-59666867D01*
X54190084Y-59822259D01*
X54190083Y-59822265D01*
X54187227Y-59858559D01*
X54187227Y-60327954D01*
X54190083Y-60364248D01*
X54190084Y-60364254D01*
X54235231Y-60519647D01*
X54235232Y-60519650D01*
X54317608Y-60658941D01*
X54317614Y-60658949D01*
X54432034Y-60773369D01*
X54432038Y-60773372D01*
X54432040Y-60773374D01*
X54571332Y-60855751D01*
X54612314Y-60867657D01*
X54726729Y-60900899D01*
X54726732Y-60900899D01*
X54726734Y-60900900D01*
X54763037Y-60903757D01*
X54763045Y-60903757D01*
X55172409Y-60903757D01*
X55172417Y-60903757D01*
X55208720Y-60900900D01*
X55208722Y-60900899D01*
X55208724Y-60900899D01*
X55249702Y-60888993D01*
X55364122Y-60855751D01*
X55503414Y-60773374D01*
X55617844Y-60658944D01*
X55700221Y-60519652D01*
X55745370Y-60364250D01*
X55748227Y-60327947D01*
X55748227Y-59858567D01*
X55745370Y-59822264D01*
X55742997Y-59814096D01*
X55743196Y-59744226D01*
X55781138Y-59685556D01*
X55844776Y-59656712D01*
X55862073Y-59655500D01*
X57738903Y-59655500D01*
X57805942Y-59675185D01*
X57826584Y-59691819D01*
X58443139Y-60308374D01*
X58443149Y-60308385D01*
X58447479Y-60312715D01*
X58447480Y-60312716D01*
X58559284Y-60424520D01*
X58646095Y-60474639D01*
X58646097Y-60474641D01*
X58684151Y-60496611D01*
X58696215Y-60503577D01*
X58848943Y-60544501D01*
X58848946Y-60544501D01*
X59014653Y-60544501D01*
X59014669Y-60544500D01*
X60489500Y-60544500D01*
X60556539Y-60564185D01*
X60602294Y-60616989D01*
X60613500Y-60668500D01*
X60613500Y-70453500D01*
X60593815Y-70520539D01*
X60541011Y-70566294D01*
X60489500Y-70577500D01*
X60277389Y-70577500D01*
X60237728Y-70583781D01*
X60106302Y-70604597D01*
X59941552Y-70658128D01*
X59787211Y-70736768D01*
X59707256Y-70794859D01*
X59647072Y-70838586D01*
X59647070Y-70838588D01*
X59647069Y-70838588D01*
X59524588Y-70961069D01*
X59524588Y-70961070D01*
X59524586Y-70961072D01*
X59496517Y-70999706D01*
X59422768Y-71101211D01*
X59344128Y-71255552D01*
X59290597Y-71420302D01*
X59263500Y-71591389D01*
X59263500Y-71764610D01*
X59286972Y-71912812D01*
X59290598Y-71935701D01*
X59344127Y-72100445D01*
X59422768Y-72254788D01*
X59524586Y-72394928D01*
X59524588Y-72394930D01*
X59615477Y-72485819D01*
X59648962Y-72547142D01*
X59643978Y-72616834D01*
X59602106Y-72672767D01*
X59536642Y-72697184D01*
X59527796Y-72697500D01*
X54728240Y-72697500D01*
X54661201Y-72677815D01*
X54615446Y-72625011D01*
X54605502Y-72555853D01*
X54609164Y-72538904D01*
X54622780Y-72492039D01*
X54625637Y-72455736D01*
X54625637Y-71986356D01*
X54622780Y-71950053D01*
X54618610Y-71935701D01*
X54589537Y-71835633D01*
X54577631Y-71794651D01*
X54495254Y-71655359D01*
X54495252Y-71655357D01*
X54495249Y-71655353D01*
X54481956Y-71642060D01*
X54448471Y-71580737D01*
X54445637Y-71554379D01*
X54445637Y-70905141D01*
X54445638Y-70905128D01*
X54445638Y-70737027D01*
X54445638Y-70737025D01*
X54404714Y-70584297D01*
X54375776Y-70534177D01*
X54325657Y-70447366D01*
X54213853Y-70335562D01*
X54213852Y-70335561D01*
X54209522Y-70331231D01*
X54209511Y-70331221D01*
X54200516Y-70322226D01*
X54167031Y-70260903D01*
X54172015Y-70191211D01*
X54213887Y-70135278D01*
X54279351Y-70110861D01*
X54288169Y-70110545D01*
X54877481Y-70110545D01*
X54877489Y-70110544D01*
X54877492Y-70110544D01*
X54945078Y-70103640D01*
X54976845Y-70100395D01*
X55137834Y-70047049D01*
X55282181Y-69958014D01*
X55402105Y-69838090D01*
X55491140Y-69693743D01*
X55494521Y-69683539D01*
X55508390Y-69663507D01*
X55518513Y-69641343D01*
X55527925Y-69635294D01*
X55534294Y-69626096D01*
X55556792Y-69616742D01*
X55577291Y-69603569D01*
X55594394Y-69601109D01*
X55598810Y-69599274D01*
X55612226Y-69598546D01*
X55618781Y-69598546D01*
X55685820Y-69618231D01*
X55715428Y-69644859D01*
X55751841Y-69690159D01*
X55891790Y-69802653D01*
X56052651Y-69882433D01*
X56226900Y-69925766D01*
X56267216Y-69928500D01*
X56267218Y-69928500D01*
X58760782Y-69928500D01*
X58760784Y-69928500D01*
X58801100Y-69925766D01*
X58975349Y-69882433D01*
X59136210Y-69802653D01*
X59276159Y-69690159D01*
X59388653Y-69550210D01*
X59468433Y-69389349D01*
X59511766Y-69215100D01*
X59514500Y-69174784D01*
X59514500Y-68381216D01*
X59511766Y-68340900D01*
X59468433Y-68166651D01*
X59422867Y-68074777D01*
X59410716Y-68005974D01*
X59437692Y-67941522D01*
X59469804Y-67913569D01*
X59583589Y-67844784D01*
X59771201Y-67685201D01*
X59930784Y-67497589D01*
X60058205Y-67286809D01*
X60150165Y-67058317D01*
X60204281Y-66818034D01*
X60214500Y-66673295D01*
X60214499Y-65882706D01*
X60204281Y-65737966D01*
X60150165Y-65497683D01*
X60080383Y-65324297D01*
X60073614Y-65254756D01*
X60080383Y-65231703D01*
X60150164Y-65058319D01*
X60150165Y-65058317D01*
X60204281Y-64818034D01*
X60214500Y-64673295D01*
X60214499Y-63882706D01*
X60204281Y-63737966D01*
X60150165Y-63497683D01*
X60058205Y-63269191D01*
X59930784Y-63058411D01*
X59830988Y-62941087D01*
X59771201Y-62870798D01*
X59641654Y-62760606D01*
X59583589Y-62711216D01*
X59372809Y-62583795D01*
X59144318Y-62491835D01*
X58904036Y-62437719D01*
X58904029Y-62437718D01*
X58759296Y-62427500D01*
X56268707Y-62427500D01*
X56268701Y-62427501D01*
X56123972Y-62437718D01*
X56123966Y-62437718D01*
X56123966Y-62437719D01*
X56123963Y-62437719D01*
X56123961Y-62437720D01*
X55883685Y-62491834D01*
X55883680Y-62491835D01*
X55655190Y-62583795D01*
X55655185Y-62583798D01*
X55444417Y-62711212D01*
X55444407Y-62711219D01*
X55256798Y-62870798D01*
X55097219Y-63058407D01*
X55097212Y-63058417D01*
X54969798Y-63269185D01*
X54969795Y-63269190D01*
X54877835Y-63497680D01*
X54877835Y-63497682D01*
X54863632Y-63560745D01*
X54829698Y-63621821D01*
X54768132Y-63654856D01*
X54742662Y-63657500D01*
X50463889Y-63657500D01*
X50396850Y-63637815D01*
X50383748Y-63627257D01*
X50383323Y-63627756D01*
X50379626Y-63624599D01*
X50379619Y-63624592D01*
X50188542Y-63485766D01*
X49978101Y-63378541D01*
X49753477Y-63305556D01*
X49744275Y-63304098D01*
X49730611Y-63301934D01*
X49667477Y-63272003D01*
X49645344Y-63245949D01*
X49639573Y-63236864D01*
X49631455Y-63217265D01*
X49543850Y-63086155D01*
X49543816Y-63086121D01*
X49542833Y-63084573D01*
X49533545Y-63052312D01*
X49523521Y-63020298D01*
X49523501Y-63018085D01*
X49523501Y-63004348D01*
X49523500Y-63004330D01*
X49523500Y-62769666D01*
X49543185Y-62702627D01*
X49559816Y-62681987D01*
X49573117Y-62668687D01*
X49655494Y-62529395D01*
X49700643Y-62373993D01*
X49703500Y-62337690D01*
X49703500Y-61868310D01*
X49700643Y-61832007D01*
X49700346Y-61830986D01*
X49655495Y-61676609D01*
X49655493Y-61676603D01*
X49644564Y-61658124D01*
X49627379Y-61590401D01*
X49644564Y-61531876D01*
X49655493Y-61513396D01*
X49655494Y-61513395D01*
X49700643Y-61357993D01*
X49703500Y-61321690D01*
X49703500Y-60852310D01*
X49700643Y-60816007D01*
X49699812Y-60813147D01*
X49655495Y-60660609D01*
X49655493Y-60660603D01*
X49644564Y-60642124D01*
X49627379Y-60574401D01*
X49644564Y-60515876D01*
X49655493Y-60497396D01*
X49655494Y-60497395D01*
X49700643Y-60341993D01*
X49703500Y-60305690D01*
X49703500Y-59836310D01*
X49700643Y-59800007D01*
X49655494Y-59644605D01*
X49653504Y-59641241D01*
X49644564Y-59626124D01*
X49627379Y-59558401D01*
X49644564Y-59499876D01*
X49655493Y-59481396D01*
X49655494Y-59481395D01*
X49695557Y-59343500D01*
X49700642Y-59325997D01*
X49700643Y-59325991D01*
X49703500Y-59289690D01*
X49703500Y-58820310D01*
X49700643Y-58784007D01*
X49655494Y-58628605D01*
X49573117Y-58489313D01*
X49573115Y-58489311D01*
X49573112Y-58489307D01*
X49458692Y-58374887D01*
X49458684Y-58374881D01*
X49319393Y-58292505D01*
X49319390Y-58292504D01*
X49163997Y-58247357D01*
X49163991Y-58247356D01*
X49127697Y-58244500D01*
X49127690Y-58244500D01*
X48718310Y-58244500D01*
X48718302Y-58244500D01*
X48682008Y-58247356D01*
X48682002Y-58247357D01*
X48526609Y-58292504D01*
X48526606Y-58292505D01*
X48387315Y-58374881D01*
X48387307Y-58374887D01*
X48272887Y-58489307D01*
X48272881Y-58489315D01*
X48190505Y-58628606D01*
X48190504Y-58628609D01*
X48145357Y-58784002D01*
X48145356Y-58784008D01*
X48142500Y-58820302D01*
X48142500Y-59289697D01*
X48145854Y-59332310D01*
X48144166Y-59332442D01*
X48142925Y-59344230D01*
X48145789Y-59364147D01*
X48139339Y-59378268D01*
X48137714Y-59393705D01*
X48125123Y-59409398D01*
X48116764Y-59427703D01*
X48103704Y-59436095D01*
X48093991Y-59448203D01*
X48074913Y-59454598D01*
X48057986Y-59465477D01*
X48030805Y-59469385D01*
X48027745Y-59470411D01*
X48023051Y-59470500D01*
X47811859Y-59470500D01*
X47744820Y-59450815D01*
X47699065Y-59398011D01*
X47687859Y-59346500D01*
X47687859Y-59277998D01*
X47687858Y-59277981D01*
X47677359Y-59175203D01*
X47677358Y-59175200D01*
X47664269Y-59135701D01*
X47622174Y-59008666D01*
X47530072Y-58859344D01*
X47406016Y-58735288D01*
X47256694Y-58643186D01*
X47090157Y-58588001D01*
X47090155Y-58588000D01*
X46987370Y-58577500D01*
X45387358Y-58577500D01*
X45387341Y-58577501D01*
X45284563Y-58588000D01*
X45284560Y-58588001D01*
X45118028Y-58643185D01*
X45118023Y-58643187D01*
X44968702Y-58735289D01*
X44844649Y-58859342D01*
X44752547Y-59008663D01*
X44752546Y-59008666D01*
X44697361Y-59175203D01*
X44697361Y-59175204D01*
X44697360Y-59175204D01*
X44686860Y-59277983D01*
X44686860Y-59443500D01*
X44667175Y-59510539D01*
X44614371Y-59556294D01*
X44562860Y-59567500D01*
X43881859Y-59567500D01*
X43814820Y-59547815D01*
X43769065Y-59495011D01*
X43757859Y-59443500D01*
X43757859Y-59277998D01*
X43757858Y-59277981D01*
X43747359Y-59175203D01*
X43747358Y-59175200D01*
X43734269Y-59135701D01*
X43692174Y-59008666D01*
X43600072Y-58859344D01*
X43476016Y-58735288D01*
X43326694Y-58643186D01*
X43160157Y-58588001D01*
X43160155Y-58588000D01*
X43057370Y-58577500D01*
X41457358Y-58577500D01*
X41457341Y-58577501D01*
X41354563Y-58588000D01*
X41354560Y-58588001D01*
X41257504Y-58620163D01*
X41187676Y-58622565D01*
X41127634Y-58586833D01*
X41096441Y-58524313D01*
X41094500Y-58502457D01*
X41094500Y-57982500D01*
X41114185Y-57915461D01*
X41166989Y-57869706D01*
X41218500Y-57858500D01*
X59527796Y-57858500D01*
X59594835Y-57878185D01*
G37*
%TD.AperFunction*%
%TA.AperFunction,Conductor*%
G36*
X62744615Y-59847685D02*
G01*
X62784872Y-59904792D01*
X62791500Y-59944790D01*
X62791500Y-70611209D01*
X62771815Y-70678248D01*
X62719011Y-70724003D01*
X62649853Y-70733947D01*
X62611206Y-70721694D01*
X62486450Y-70658129D01*
X62486447Y-70658128D01*
X62486445Y-70658127D01*
X62321701Y-70604598D01*
X62321699Y-70604597D01*
X62321698Y-70604597D01*
X62190271Y-70583781D01*
X62150611Y-70577500D01*
X62150610Y-70577500D01*
X61938500Y-70577500D01*
X61871461Y-70557815D01*
X61825706Y-70505011D01*
X61814500Y-70453500D01*
X61814500Y-60102500D01*
X61834185Y-60035461D01*
X61886989Y-59989706D01*
X61938500Y-59978500D01*
X62150610Y-59978500D01*
X62150611Y-59978500D01*
X62321701Y-59951402D01*
X62486445Y-59897873D01*
X62611205Y-59834304D01*
X62679875Y-59821409D01*
X62744615Y-59847685D01*
G37*
%TD.AperFunction*%
%TA.AperFunction,Conductor*%
G36*
X44629900Y-60788185D02*
G01*
X44675655Y-60840989D01*
X44686861Y-60892500D01*
X44686861Y-61058018D01*
X44697360Y-61160796D01*
X44697361Y-61160799D01*
X44752545Y-61327331D01*
X44752547Y-61327336D01*
X44771459Y-61357997D01*
X44844648Y-61476656D01*
X44968704Y-61600712D01*
X45118026Y-61692814D01*
X45265675Y-61741740D01*
X45323120Y-61781513D01*
X45349943Y-61846029D01*
X45337628Y-61914804D01*
X45314353Y-61947127D01*
X45226845Y-62034635D01*
X45151079Y-62165863D01*
X45133661Y-62230870D01*
X45111860Y-62312234D01*
X45111860Y-62463766D01*
X45129445Y-62529395D01*
X45151079Y-62610136D01*
X45159910Y-62625431D01*
X45226845Y-62741365D01*
X45226847Y-62741367D01*
X45251205Y-62765725D01*
X45284690Y-62827048D01*
X45279706Y-62896740D01*
X45251205Y-62941087D01*
X44368248Y-63824043D01*
X44368247Y-63824044D01*
X44291582Y-63938782D01*
X44238781Y-64066257D01*
X44238778Y-64066269D01*
X44212788Y-64196932D01*
X44212785Y-64196947D01*
X44211860Y-64201589D01*
X44211860Y-64201597D01*
X44211860Y-66227990D01*
X44211860Y-66365978D01*
X44211860Y-66365980D01*
X44211859Y-66365980D01*
X44238778Y-66501306D01*
X44238781Y-66501316D01*
X44291582Y-66628791D01*
X44368247Y-66743529D01*
X44368248Y-66743530D01*
X45245418Y-67620699D01*
X45278903Y-67682022D01*
X45273919Y-67751713D01*
X45245420Y-67796059D01*
X45226848Y-67814631D01*
X45226845Y-67814635D01*
X45151079Y-67945863D01*
X45111860Y-68092234D01*
X45111860Y-68243765D01*
X45151079Y-68390136D01*
X45188962Y-68455750D01*
X45226845Y-68521365D01*
X45226847Y-68521367D01*
X45314352Y-68608872D01*
X45347837Y-68670195D01*
X45342853Y-68739887D01*
X45300981Y-68795820D01*
X45265676Y-68814259D01*
X45118026Y-68863186D01*
X45118023Y-68863187D01*
X44968702Y-68955289D01*
X44844649Y-69079342D01*
X44752547Y-69228663D01*
X44752545Y-69228668D01*
X44745925Y-69248646D01*
X44697361Y-69395203D01*
X44697361Y-69395204D01*
X44697360Y-69395204D01*
X44686860Y-69497983D01*
X44686860Y-69663500D01*
X44667175Y-69730539D01*
X44614371Y-69776294D01*
X44562860Y-69787500D01*
X43881859Y-69787500D01*
X43814820Y-69767815D01*
X43769065Y-69715011D01*
X43757859Y-69663500D01*
X43757859Y-69497998D01*
X43757858Y-69497981D01*
X43747359Y-69395203D01*
X43747358Y-69395200D01*
X43692174Y-69228666D01*
X43600072Y-69079344D01*
X43476016Y-68955288D01*
X43326694Y-68863186D01*
X43160157Y-68808001D01*
X43160155Y-68808000D01*
X43057376Y-68797500D01*
X43057369Y-68797500D01*
X42981860Y-68797500D01*
X42914821Y-68777815D01*
X42869066Y-68725011D01*
X42857860Y-68673500D01*
X42857860Y-61882499D01*
X42877545Y-61815460D01*
X42930349Y-61769705D01*
X42981860Y-61758499D01*
X43057362Y-61758499D01*
X43057368Y-61758499D01*
X43160157Y-61747999D01*
X43326694Y-61692814D01*
X43476016Y-61600712D01*
X43600072Y-61476656D01*
X43692174Y-61327334D01*
X43747359Y-61160797D01*
X43757860Y-61058009D01*
X43757860Y-60892500D01*
X43777545Y-60825461D01*
X43830349Y-60779706D01*
X43881860Y-60768500D01*
X44562861Y-60768500D01*
X44629900Y-60788185D01*
G37*
%TD.AperFunction*%
%TA.AperFunction,Conductor*%
G36*
X46271666Y-68478500D02*
G01*
X46567702Y-68478500D01*
X46615154Y-68487939D01*
X46643442Y-68499656D01*
X46643447Y-68499658D01*
X46643451Y-68499658D01*
X46643452Y-68499659D01*
X46788439Y-68528500D01*
X46788442Y-68528500D01*
X46936277Y-68528500D01*
X47390450Y-68528500D01*
X47457489Y-68548185D01*
X47478131Y-68564819D01*
X47681080Y-68767767D01*
X47696585Y-68796163D01*
X47713314Y-68823881D01*
X47713579Y-68827284D01*
X47714565Y-68829090D01*
X47717350Y-68858943D01*
X47717221Y-68863515D01*
X47714331Y-68891806D01*
X47714331Y-68965993D01*
X47714282Y-68967736D01*
X47704013Y-68999377D01*
X47694646Y-69031280D01*
X47693275Y-69032467D01*
X47692715Y-69034194D01*
X47666965Y-69055265D01*
X47641842Y-69077035D01*
X47640047Y-69077293D01*
X47638642Y-69078443D01*
X47605586Y-69082248D01*
X47572684Y-69086979D01*
X47571033Y-69086225D01*
X47569231Y-69086433D01*
X47539374Y-69071767D01*
X47509128Y-69057954D01*
X47506753Y-69055743D01*
X47506519Y-69055628D01*
X47506376Y-69055391D01*
X47502650Y-69051922D01*
X47406017Y-68955289D01*
X47406016Y-68955288D01*
X47256694Y-68863186D01*
X47090157Y-68808001D01*
X47090155Y-68808000D01*
X46987376Y-68797500D01*
X46171101Y-68797500D01*
X46150101Y-68791333D01*
X46128261Y-68789865D01*
X46117233Y-68781682D01*
X46104062Y-68777815D01*
X46089730Y-68761275D01*
X46072150Y-68748231D01*
X46067296Y-68735385D01*
X46058307Y-68725011D01*
X46055191Y-68703346D01*
X46047456Y-68682871D01*
X46050317Y-68669443D01*
X46048363Y-68655853D01*
X46057455Y-68635943D01*
X46062017Y-68614536D01*
X46075483Y-68596466D01*
X46077388Y-68592297D01*
X46083048Y-68586192D01*
X46147875Y-68521365D01*
X46148639Y-68520041D01*
X46155279Y-68513345D01*
X46179245Y-68500126D01*
X46201347Y-68483977D01*
X46210832Y-68482703D01*
X46216460Y-68479600D01*
X46228118Y-68480384D01*
X46253064Y-68477036D01*
X46271666Y-68478500D01*
G37*
%TD.AperFunction*%
%TA.AperFunction,Conductor*%
G36*
X48042358Y-60677169D02*
G01*
X48062464Y-60677931D01*
X48075195Y-60686811D01*
X48090090Y-60691185D01*
X48103265Y-60706390D01*
X48119771Y-60717903D01*
X48125681Y-60732259D01*
X48135845Y-60743989D01*
X48138708Y-60763903D01*
X48146369Y-60782512D01*
X48145340Y-60809649D01*
X48145854Y-60809690D01*
X48145655Y-60812216D01*
X48145789Y-60813147D01*
X48145389Y-60815597D01*
X48142500Y-60852302D01*
X48142500Y-60966900D01*
X48133855Y-60996339D01*
X48127333Y-61026325D01*
X48123577Y-61031341D01*
X48122815Y-61033939D01*
X48106182Y-61054580D01*
X48067224Y-61093538D01*
X48067212Y-61093552D01*
X47962478Y-61198286D01*
X47912361Y-61285094D01*
X47912359Y-61285096D01*
X47883425Y-61335209D01*
X47883424Y-61335210D01*
X47877318Y-61357997D01*
X47842499Y-61487943D01*
X47842499Y-61487945D01*
X47842499Y-61656046D01*
X47842500Y-61656059D01*
X47842500Y-62163831D01*
X47822815Y-62230870D01*
X47770011Y-62276625D01*
X47700853Y-62286569D01*
X47637297Y-62257544D01*
X47630819Y-62251512D01*
X47589230Y-62209923D01*
X47589222Y-62209917D01*
X47447756Y-62126255D01*
X47447753Y-62126254D01*
X47289933Y-62080402D01*
X47289927Y-62080401D01*
X47253061Y-62077500D01*
X47253054Y-62077500D01*
X46271666Y-62077500D01*
X46271655Y-62077500D01*
X46253059Y-62078964D01*
X46252341Y-62078813D01*
X46251653Y-62079067D01*
X46218200Y-62071640D01*
X46184682Y-62064599D01*
X46183920Y-62064030D01*
X46183444Y-62063925D01*
X46181243Y-62062032D01*
X46155279Y-62042654D01*
X46148637Y-62035956D01*
X46147875Y-62034635D01*
X46083165Y-61969925D01*
X46083048Y-61969807D01*
X46066528Y-61939245D01*
X46049935Y-61908857D01*
X46049954Y-61908583D01*
X46049824Y-61908342D01*
X46052446Y-61873739D01*
X46054919Y-61839165D01*
X46055083Y-61838945D01*
X46055104Y-61838673D01*
X46075994Y-61811011D01*
X46096791Y-61783232D01*
X46097047Y-61783136D01*
X46097213Y-61782917D01*
X46129870Y-61770893D01*
X46162255Y-61758815D01*
X46162725Y-61758798D01*
X46162780Y-61758778D01*
X46162850Y-61758793D01*
X46171086Y-61758499D01*
X46987368Y-61758499D01*
X47090157Y-61747999D01*
X47256694Y-61692814D01*
X47406016Y-61600712D01*
X47530072Y-61476656D01*
X47622174Y-61327334D01*
X47677359Y-61160797D01*
X47687860Y-61058009D01*
X47687860Y-60795500D01*
X47707545Y-60728461D01*
X47760349Y-60682706D01*
X47811860Y-60671500D01*
X48023051Y-60671500D01*
X48042358Y-60677169D01*
G37*
%TD.AperFunction*%
%TD*%
M02*
