M48
; DRILL file KiCad 10.0.3 date 2026-08-08T19:49:26
; FORMAT={-:-/ absolute / metric / decimal}
; #@! TF.CreationDate,2026-08-08T19:49:26+01:00
; #@! TF.GenerationSoftware,Kicad,Pcbnew,10.0.3
; #@! TF.FileFunction,Plated,1,4,PTH
FMAT,2
METRIC
; #@! TA.AperFunction,Plated,PTH,ViaDrill
T1C0.300
; #@! TA.AperFunction,Plated,PTH,ComponentDrill
T2C0.600
%
G90
G05
T1
X41.948Y-72.356
X42.037Y-58.192
X43.372Y-65.278
X44.45Y-62.357
X44.45Y-68.199
X45.593Y-66.04
X46.068Y-72.39
X46.157Y-58.225
X47.499Y-69.214
X47.625Y-69.977
X47.752Y-61.341
X47.752Y-61.962
X48.006Y-66.167
X48.672Y-71.802
X48.922Y-63.596
X49.402Y-64.769
X49.491Y-69.165
X49.731Y-71.291
X50.713Y-59.033
X50.713Y-60.071
X50.713Y-61.065
X50.713Y-62.081
X50.992Y-72.243
X51.054Y-68.072
X51.816Y-61.087
X51.816Y-62.865
X52.451Y-68.072
X53.086Y-71.374
X53.233Y-59.079
X53.233Y-60.095
X53.594Y-61.087
X53.594Y-62.865
X53.848Y-68.848
X54.483Y-67.437
X54.679Y-61.79
X55.372Y-61.778
X55.626Y-70.739
X55.626Y-72.221
X56.896Y-60.452
X58.166Y-70.739
X58.166Y-72.263
X59.944Y-61.468
X59.944Y-69.088
X60.325Y-65.278
X62.23Y-61.468
X62.23Y-69.088
T2
X60.364Y-58.878G85X62.064Y-58.878
G05
X60.364Y-71.678G85X62.064Y-71.678
G05
M30
