%TF.GenerationSoftware,KiCad,Pcbnew,10.0.3*%
%TF.CreationDate,2026-08-08T19:49:16+01:00*%
%TF.ProjectId,ldo,6c646f2e-6b69-4636-9164-5f7063625858,rev?*%
%TF.SameCoordinates,Original*%
%TF.FileFunction,Copper,L4,Bot*%
%TF.FilePolarity,Positive*%
%FSLAX46Y46*%
G04 Gerber Fmt 4.6, Leading zero omitted, Abs format (unit mm)*
G04 Created by KiCad (PCBNEW 10.0.3) date 2026-08-08 19:49:16*
%MOMM*%
%LPD*%
G01*
G04 APERTURE LIST*
G04 Aperture macros list*
%AMRoundRect*
0 Rectangle with rounded corners*
0 $1 Rounding radius*
0 $2 $3 $4 $5 $6 $7 $8 $9 X,Y pos of 4 corners*
0 Add a 4 corners polygon primitive as box body*
4,1,4,$2,$3,$4,$5,$6,$7,$8,$9,$2,$3,0*
0 Add four circle primitives for the rounded corners*
1,1,$1+$1,$2,$3*
1,1,$1+$1,$4,$5*
1,1,$1+$1,$6,$7*
1,1,$1+$1,$8,$9*
0 Add four rect primitives between the rounded corners*
20,1,$1+$1,$2,$3,$4,$5,0*
20,1,$1+$1,$4,$5,$6,$7,0*
20,1,$1+$1,$6,$7,$8,$9,0*
20,1,$1+$1,$8,$9,$2,$3,0*%
G04 Aperture macros list end*
%TA.AperFunction,ComponentPad*%
%ADD10O,2.900000X1.200000*%
%TD*%
%TA.AperFunction,SMDPad,CuDef*%
%ADD11RoundRect,0.250000X-0.950000X-0.500000X0.950000X-0.500000X0.950000X0.500000X-0.950000X0.500000X0*%
%TD*%
%TA.AperFunction,SMDPad,CuDef*%
%ADD12RoundRect,0.250000X-0.275000X-0.500000X0.275000X-0.500000X0.275000X0.500000X-0.275000X0.500000X0*%
%TD*%
%TA.AperFunction,ViaPad*%
%ADD13C,0.600000*%
%TD*%
%TA.AperFunction,Conductor*%
%ADD14C,0.600000*%
%TD*%
%TA.AperFunction,Conductor*%
%ADD15C,0.200000*%
%TD*%
%TA.AperFunction,Conductor*%
%ADD16C,0.500000*%
%TD*%
%TA.AperFunction,Conductor*%
%ADD17C,0.400000*%
%TD*%
%TA.AperFunction,Conductor*%
%ADD18C,0.332000*%
%TD*%
G04 APERTURE END LIST*
D10*
%TO.P,J2,SH*%
%TO.N,N/C*%
X61214000Y-71678000D03*
X61214000Y-58878000D03*
%TD*%
D11*
%TO.P,D1,1,K_1*%
%TO.N,5V*%
X52666000Y-66675000D03*
D12*
%TO.P,D1,2,A_2*%
%TO.N,VIN*%
X50291000Y-66675000D03*
%TD*%
D13*
%TO.N,GND*%
X51816000Y-61087000D03*
X58166000Y-72263000D03*
X62230000Y-69088000D03*
X51054000Y-68072000D03*
X53233175Y-59079029D03*
X50713284Y-60071000D03*
X51816000Y-62865000D03*
X54483000Y-67437000D03*
X60325000Y-65278000D03*
X47625000Y-69977000D03*
X55626000Y-72221046D03*
X56896000Y-60452000D03*
X55626000Y-70739000D03*
X50713284Y-62081430D03*
X50992139Y-72242616D03*
X55372000Y-61778000D03*
X50713284Y-59033430D03*
X42037000Y-58191548D03*
X53594000Y-61087000D03*
X59944000Y-69088000D03*
X41947972Y-72355790D03*
X53233175Y-60095029D03*
X43372360Y-65278000D03*
X47752000Y-61341000D03*
X49730591Y-71291256D03*
X59944000Y-61468000D03*
X47498680Y-69214320D03*
X44450000Y-68199000D03*
X48672113Y-71802484D03*
X53594000Y-62865000D03*
X46068259Y-72389632D03*
X46157287Y-58225390D03*
X54678877Y-61790051D03*
X47752000Y-61962473D03*
X58166000Y-70739000D03*
X50713284Y-61065430D03*
X62230000Y-61468000D03*
X52451000Y-68072000D03*
X44450000Y-62357000D03*
%TO.N,/USB_CC2*%
X45593000Y-66040000D03*
X48922061Y-63596444D03*
%TO.N,VIN*%
X49491242Y-69165151D03*
X53086000Y-71374000D03*
%TO.N,5V*%
X53848000Y-68848046D03*
%TO.N,/D+*%
X49402109Y-64769109D03*
X48006000Y-66167000D03*
%TD*%
%TO.N,GND*%
D14*
X54746928Y-61722000D02*
X55118000Y-61722000D01*
X54678877Y-61790051D02*
X54746928Y-61722000D01*
%TO.N,/USB_CC2*%
D15*
X45593000Y-65532000D02*
X45593000Y-66067555D01*
X46736000Y-64389000D02*
X45593000Y-65532000D01*
X48260000Y-64262000D02*
X48133000Y-64389000D01*
X48922061Y-63596444D02*
X48260000Y-64258505D01*
X48260000Y-64258505D02*
X48260000Y-64262000D01*
X48133000Y-64389000D02*
X46736000Y-64389000D01*
%TO.N,Net-(J1-SHIELD)*%
X44196000Y-60168000D02*
X44200118Y-60172118D01*
%TO.N,VIN*%
D16*
X49491242Y-67474758D02*
X50291000Y-66675000D01*
D15*
X49490833Y-69165560D02*
X49490833Y-70191833D01*
X50673000Y-71374000D02*
X53072274Y-71374000D01*
D17*
X49568393Y-69088000D02*
X49491242Y-69165151D01*
D15*
X49490833Y-70191833D02*
X50673000Y-71374000D01*
X53072274Y-71374000D02*
X53079137Y-71367137D01*
D16*
X49491242Y-69165151D02*
X49491242Y-67474758D01*
D15*
X49491242Y-69165151D02*
X49490833Y-69165560D01*
%TO.N,5V*%
D16*
X53848000Y-67857000D02*
X53848000Y-68848046D01*
X52666000Y-66675000D02*
X53848000Y-67857000D01*
%TO.N,/D+*%
D17*
X48954231Y-65216987D02*
X48954231Y-65218769D01*
D18*
X48006000Y-66167000D02*
X47866822Y-66167000D01*
D17*
X48954231Y-65218769D02*
X48006000Y-66167000D01*
X49402109Y-64769109D02*
X48954231Y-65216987D01*
%TD*%
%TA.AperFunction,Conductor*%
%TO.N,GND*%
G36*
X59594835Y-57878185D02*
G01*
X59640590Y-57930989D01*
X59650534Y-58000147D01*
X59621509Y-58063703D01*
X59615477Y-58070181D01*
X59524588Y-58161069D01*
X59524588Y-58161070D01*
X59524586Y-58161072D01*
X59480859Y-58221256D01*
X59422768Y-58301211D01*
X59344128Y-58455552D01*
X59290597Y-58620302D01*
X59263500Y-58791389D01*
X59263500Y-58964611D01*
X59290598Y-59135701D01*
X59344127Y-59300445D01*
X59422768Y-59454788D01*
X59524586Y-59594928D01*
X59647072Y-59717414D01*
X59787212Y-59819232D01*
X59941555Y-59897873D01*
X60106299Y-59951402D01*
X60277389Y-59978500D01*
X60277390Y-59978500D01*
X62150610Y-59978500D01*
X62150611Y-59978500D01*
X62321701Y-59951402D01*
X62486445Y-59897873D01*
X62611205Y-59834304D01*
X62679875Y-59821409D01*
X62744615Y-59847685D01*
X62784872Y-59904792D01*
X62791500Y-59944790D01*
X62791500Y-70611209D01*
X62771815Y-70678248D01*
X62719011Y-70724003D01*
X62649853Y-70733947D01*
X62611206Y-70721694D01*
X62486450Y-70658129D01*
X62486447Y-70658128D01*
X62486445Y-70658127D01*
X62321701Y-70604598D01*
X62321699Y-70604597D01*
X62321698Y-70604597D01*
X62190271Y-70583781D01*
X62150611Y-70577500D01*
X60277389Y-70577500D01*
X60237728Y-70583781D01*
X60106302Y-70604597D01*
X59941552Y-70658128D01*
X59787211Y-70736768D01*
X59736682Y-70773480D01*
X59647072Y-70838586D01*
X59647070Y-70838588D01*
X59647069Y-70838588D01*
X59524588Y-70961069D01*
X59524588Y-70961070D01*
X59524586Y-70961072D01*
X59480859Y-71021256D01*
X59422768Y-71101211D01*
X59344128Y-71255552D01*
X59290597Y-71420302D01*
X59263500Y-71591389D01*
X59263500Y-71764610D01*
X59290261Y-71933577D01*
X59290598Y-71935701D01*
X59344127Y-72100445D01*
X59422768Y-72254788D01*
X59524586Y-72394928D01*
X59524588Y-72394930D01*
X59615477Y-72485819D01*
X59648962Y-72547142D01*
X59643978Y-72616834D01*
X59602106Y-72672767D01*
X59536642Y-72697184D01*
X59527796Y-72697500D01*
X41218500Y-72697500D01*
X41151461Y-72677815D01*
X41105706Y-72625011D01*
X41094500Y-72573500D01*
X41094500Y-68092234D01*
X45111860Y-68092234D01*
X45111860Y-68243765D01*
X45151079Y-68390136D01*
X45188962Y-68455750D01*
X45226845Y-68521365D01*
X45333995Y-68628515D01*
X45465225Y-68704281D01*
X45611594Y-68743500D01*
X45611596Y-68743500D01*
X45763124Y-68743500D01*
X45763126Y-68743500D01*
X45909495Y-68704281D01*
X46040725Y-68628515D01*
X46147875Y-68521365D01*
X46223641Y-68390135D01*
X46262860Y-68243766D01*
X46262860Y-68092234D01*
X46223641Y-67945865D01*
X46218352Y-67936705D01*
X46173959Y-67859814D01*
X46147875Y-67814635D01*
X46040725Y-67707485D01*
X45971469Y-67667500D01*
X45909496Y-67631719D01*
X45836310Y-67612109D01*
X45763126Y-67592500D01*
X45611594Y-67592500D01*
X45465223Y-67631719D01*
X45333995Y-67707485D01*
X45333992Y-67707487D01*
X45226847Y-67814632D01*
X45226845Y-67814635D01*
X45151079Y-67945863D01*
X45111860Y-68092234D01*
X41094500Y-68092234D01*
X41094500Y-65961153D01*
X44792500Y-65961153D01*
X44792500Y-66118846D01*
X44823261Y-66273489D01*
X44823264Y-66273501D01*
X44883602Y-66419172D01*
X44883609Y-66419185D01*
X44971210Y-66550288D01*
X44971213Y-66550292D01*
X45082707Y-66661786D01*
X45082711Y-66661789D01*
X45213814Y-66749390D01*
X45213827Y-66749397D01*
X45359498Y-66809735D01*
X45359503Y-66809737D01*
X45514153Y-66840499D01*
X45514156Y-66840500D01*
X45514158Y-66840500D01*
X45671844Y-66840500D01*
X45671845Y-66840499D01*
X45826497Y-66809737D01*
X45972179Y-66749394D01*
X46103289Y-66661789D01*
X46214789Y-66550289D01*
X46302394Y-66419179D01*
X46302395Y-66419175D01*
X46304898Y-66415430D01*
X46320740Y-66402189D01*
X46333000Y-66385573D01*
X46347009Y-66380236D01*
X46358511Y-66370624D01*
X46378998Y-66368050D01*
X46398293Y-66360701D01*
X46412962Y-66363785D01*
X46427835Y-66361917D01*
X46446459Y-66370827D01*
X46466668Y-66375076D01*
X46477341Y-66385602D01*
X46490863Y-66392071D01*
X46501714Y-66409638D01*
X46516416Y-66424136D01*
X46523669Y-66445179D01*
X46527583Y-66451514D01*
X46528981Y-66457118D01*
X46529853Y-66460997D01*
X46533970Y-66486989D01*
X46539579Y-66504254D01*
X46540846Y-66509887D01*
X46540765Y-66511130D01*
X46542336Y-66517670D01*
X46542445Y-66518360D01*
X46542447Y-66518370D01*
X46615433Y-66742994D01*
X46649439Y-66809735D01*
X46722657Y-66953433D01*
X46861483Y-67144510D01*
X47028490Y-67311517D01*
X47219567Y-67450343D01*
X47318991Y-67501002D01*
X47430003Y-67557566D01*
X47430005Y-67557566D01*
X47430008Y-67557568D01*
X47537517Y-67592500D01*
X47654631Y-67630553D01*
X47887903Y-67667500D01*
X47887908Y-67667500D01*
X48124097Y-67667500D01*
X48357368Y-67630553D01*
X48578425Y-67558726D01*
X48648264Y-67556732D01*
X48708097Y-67592812D01*
X48738926Y-67655513D01*
X48740742Y-67676658D01*
X48740742Y-68860547D01*
X48731304Y-68907995D01*
X48721505Y-68931654D01*
X48721504Y-68931657D01*
X48721502Y-68931662D01*
X48690742Y-69086304D01*
X48690742Y-69243997D01*
X48721503Y-69398640D01*
X48721506Y-69398652D01*
X48781844Y-69544323D01*
X48781851Y-69544336D01*
X48869435Y-69675413D01*
X48890313Y-69742090D01*
X48890333Y-69744304D01*
X48890333Y-70105163D01*
X48890332Y-70105181D01*
X48890332Y-70270887D01*
X48890331Y-70270887D01*
X48931256Y-70423618D01*
X48960191Y-70473733D01*
X48960192Y-70473737D01*
X48960193Y-70473737D01*
X49010312Y-70560547D01*
X49010314Y-70560550D01*
X49129182Y-70679418D01*
X49129187Y-70679422D01*
X50304284Y-71854520D01*
X50304286Y-71854521D01*
X50304290Y-71854524D01*
X50441209Y-71933573D01*
X50441216Y-71933577D01*
X50593943Y-71974501D01*
X50593945Y-71974501D01*
X50759654Y-71974501D01*
X50759670Y-71974500D01*
X52506234Y-71974500D01*
X52573273Y-71994185D01*
X52575125Y-71995398D01*
X52706814Y-72083390D01*
X52706827Y-72083397D01*
X52852498Y-72143735D01*
X52852503Y-72143737D01*
X53007153Y-72174499D01*
X53007156Y-72174500D01*
X53007158Y-72174500D01*
X53164844Y-72174500D01*
X53164845Y-72174499D01*
X53319497Y-72143737D01*
X53465179Y-72083394D01*
X53596289Y-71995789D01*
X53707789Y-71884289D01*
X53795394Y-71753179D01*
X53855737Y-71607497D01*
X53886500Y-71452842D01*
X53886500Y-71295158D01*
X53886500Y-71295155D01*
X53886499Y-71295153D01*
X53855738Y-71140510D01*
X53855737Y-71140503D01*
X53839462Y-71101211D01*
X53795397Y-70994827D01*
X53795390Y-70994814D01*
X53707789Y-70863711D01*
X53707786Y-70863707D01*
X53596292Y-70752213D01*
X53596288Y-70752210D01*
X53465185Y-70664609D01*
X53465172Y-70664602D01*
X53319501Y-70604264D01*
X53319489Y-70604261D01*
X53164845Y-70573500D01*
X53164842Y-70573500D01*
X53007158Y-70573500D01*
X53007155Y-70573500D01*
X52852510Y-70604261D01*
X52852498Y-70604264D01*
X52706827Y-70664602D01*
X52706814Y-70664609D01*
X52575125Y-70752602D01*
X52508447Y-70773480D01*
X52506234Y-70773500D01*
X50973098Y-70773500D01*
X50906059Y-70753815D01*
X50885417Y-70737181D01*
X50127652Y-69979416D01*
X50112948Y-69952488D01*
X50096356Y-69926670D01*
X50095464Y-69920469D01*
X50094167Y-69918093D01*
X50091333Y-69891735D01*
X50091333Y-69745528D01*
X50111018Y-69678489D01*
X50112231Y-69676637D01*
X50151556Y-69617784D01*
X50200636Y-69544330D01*
X50260979Y-69398648D01*
X50291742Y-69243993D01*
X50291742Y-69086309D01*
X50291742Y-69086306D01*
X50291741Y-69086304D01*
X50290792Y-69081535D01*
X50260979Y-68931654D01*
X50251180Y-68907997D01*
X50241742Y-68860546D01*
X50241742Y-68049499D01*
X50261427Y-67982460D01*
X50314231Y-67936705D01*
X50365742Y-67925499D01*
X50616002Y-67925499D01*
X50616008Y-67925499D01*
X50718797Y-67914999D01*
X50885334Y-67859814D01*
X51034656Y-67767712D01*
X51053319Y-67749049D01*
X51114642Y-67715564D01*
X51184334Y-67720548D01*
X51228681Y-67749049D01*
X51247344Y-67767712D01*
X51396666Y-67859814D01*
X51563203Y-67914999D01*
X51665991Y-67925500D01*
X52803770Y-67925499D01*
X52833210Y-67934143D01*
X52863197Y-67940667D01*
X52868212Y-67944421D01*
X52870809Y-67945184D01*
X52891451Y-67961818D01*
X53061181Y-68131548D01*
X53094666Y-68192871D01*
X53097500Y-68219229D01*
X53097500Y-68543442D01*
X53088062Y-68590890D01*
X53078263Y-68614549D01*
X53078262Y-68614552D01*
X53078260Y-68614557D01*
X53047500Y-68769199D01*
X53047500Y-68926892D01*
X53078261Y-69081535D01*
X53078264Y-69081547D01*
X53138602Y-69227218D01*
X53138609Y-69227231D01*
X53226210Y-69358334D01*
X53226213Y-69358338D01*
X53337707Y-69469832D01*
X53337711Y-69469835D01*
X53468814Y-69557436D01*
X53468827Y-69557443D01*
X53614498Y-69617781D01*
X53614503Y-69617783D01*
X53769153Y-69648545D01*
X53769156Y-69648546D01*
X53769158Y-69648546D01*
X53926844Y-69648546D01*
X53926845Y-69648545D01*
X54081497Y-69617783D01*
X54227179Y-69557440D01*
X54358289Y-69469835D01*
X54469789Y-69358335D01*
X54557394Y-69227225D01*
X54617737Y-69081543D01*
X54648500Y-68926888D01*
X54648500Y-68769204D01*
X54648500Y-68769201D01*
X54648499Y-68769199D01*
X54617739Y-68614557D01*
X54617738Y-68614554D01*
X54617737Y-68614549D01*
X54607937Y-68590890D01*
X54598500Y-68543442D01*
X54598500Y-67783079D01*
X54569659Y-67638092D01*
X54569658Y-67638091D01*
X54569658Y-67638087D01*
X54550905Y-67592812D01*
X54513087Y-67501511D01*
X54513080Y-67501498D01*
X54430951Y-67378584D01*
X54430948Y-67378580D01*
X54399904Y-67347536D01*
X54366419Y-67286213D01*
X54364227Y-67247253D01*
X54366500Y-67225009D01*
X54366499Y-66124992D01*
X54355999Y-66022203D01*
X54300814Y-65855666D01*
X54208712Y-65706344D01*
X54084656Y-65582288D01*
X53935334Y-65490186D01*
X53768797Y-65435001D01*
X53768795Y-65435000D01*
X53666010Y-65424500D01*
X51665998Y-65424500D01*
X51665981Y-65424501D01*
X51563203Y-65435000D01*
X51563200Y-65435001D01*
X51396668Y-65490185D01*
X51396663Y-65490187D01*
X51247342Y-65582289D01*
X51228681Y-65600951D01*
X51167358Y-65634436D01*
X51097666Y-65629452D01*
X51053319Y-65600951D01*
X51034657Y-65582289D01*
X51034656Y-65582288D01*
X50885334Y-65490186D01*
X50885331Y-65490184D01*
X50876141Y-65487139D01*
X50818698Y-65447364D01*
X50791878Y-65382847D01*
X50797219Y-65331120D01*
X50865662Y-65120477D01*
X50876590Y-65051480D01*
X50902609Y-64887206D01*
X50902609Y-64651011D01*
X50865662Y-64417740D01*
X50792675Y-64193112D01*
X50685451Y-63982675D01*
X50546626Y-63791599D01*
X50379619Y-63624592D01*
X50188542Y-63485766D01*
X49978101Y-63378541D01*
X49753477Y-63305556D01*
X49744275Y-63304098D01*
X49730611Y-63301934D01*
X49667477Y-63272003D01*
X49635450Y-63226910D01*
X49631455Y-63217265D01*
X49631453Y-63217261D01*
X49543850Y-63086155D01*
X49543847Y-63086151D01*
X49432353Y-62974657D01*
X49432349Y-62974654D01*
X49301246Y-62887053D01*
X49301233Y-62887046D01*
X49155562Y-62826708D01*
X49155550Y-62826705D01*
X49000906Y-62795944D01*
X49000903Y-62795944D01*
X48843219Y-62795944D01*
X48843216Y-62795944D01*
X48688571Y-62826705D01*
X48688559Y-62826708D01*
X48542888Y-62887046D01*
X48542875Y-62887053D01*
X48411772Y-62974654D01*
X48411768Y-62974657D01*
X48300274Y-63086151D01*
X48300271Y-63086155D01*
X48212670Y-63217258D01*
X48212663Y-63217271D01*
X48152325Y-63362942D01*
X48152322Y-63362952D01*
X48121423Y-63518292D01*
X48112657Y-63535048D01*
X48108638Y-63553527D01*
X48089895Y-63578563D01*
X48089038Y-63580203D01*
X48087487Y-63581781D01*
X47917088Y-63752181D01*
X47855765Y-63785666D01*
X47829407Y-63788500D01*
X46656943Y-63788500D01*
X46504213Y-63829423D01*
X46463805Y-63852754D01*
X46463804Y-63852754D01*
X46367287Y-63908477D01*
X46367282Y-63908481D01*
X45112481Y-65163282D01*
X45112480Y-65163284D01*
X45068477Y-65239500D01*
X45033423Y-65300215D01*
X44992499Y-65452943D01*
X44992499Y-65452945D01*
X44992499Y-65460235D01*
X44972814Y-65527274D01*
X44971601Y-65529126D01*
X44883609Y-65660814D01*
X44883602Y-65660827D01*
X44823264Y-65806498D01*
X44823261Y-65806510D01*
X44792500Y-65961153D01*
X41094500Y-65961153D01*
X41094500Y-62312234D01*
X45111860Y-62312234D01*
X45111860Y-62463765D01*
X45151079Y-62610136D01*
X45188962Y-62675750D01*
X45226845Y-62741365D01*
X45333995Y-62848515D01*
X45465225Y-62924281D01*
X45611594Y-62963500D01*
X45611596Y-62963500D01*
X45763124Y-62963500D01*
X45763126Y-62963500D01*
X45909495Y-62924281D01*
X46040725Y-62848515D01*
X46147875Y-62741365D01*
X46223641Y-62610135D01*
X46262860Y-62463766D01*
X46262860Y-62312234D01*
X46223641Y-62165865D01*
X46147875Y-62034635D01*
X46040725Y-61927485D01*
X45975110Y-61889602D01*
X45909496Y-61851719D01*
X45836310Y-61832109D01*
X45763126Y-61812500D01*
X45611594Y-61812500D01*
X45465223Y-61851719D01*
X45333995Y-61927485D01*
X45333992Y-61927487D01*
X45226847Y-62034632D01*
X45226845Y-62034635D01*
X45151079Y-62165863D01*
X45111860Y-62312234D01*
X41094500Y-62312234D01*
X41094500Y-60247054D01*
X43595498Y-60247054D01*
X43595499Y-60247057D01*
X43636423Y-60399785D01*
X43715481Y-60536716D01*
X43831402Y-60652638D01*
X43831404Y-60652639D01*
X43831406Y-60652641D01*
X43968327Y-60731691D01*
X43968330Y-60731693D01*
X43968334Y-60731695D01*
X44121061Y-60772619D01*
X44121063Y-60772619D01*
X44279174Y-60772619D01*
X44279176Y-60772619D01*
X44431903Y-60731695D01*
X44568834Y-60652638D01*
X44680638Y-60540834D01*
X44759695Y-60403903D01*
X44800619Y-60251176D01*
X44800619Y-60093061D01*
X44759695Y-59940334D01*
X44739175Y-59904792D01*
X44680641Y-59803406D01*
X44680639Y-59803404D01*
X44680638Y-59803402D01*
X44564716Y-59687481D01*
X44427785Y-59608423D01*
X44275057Y-59567499D01*
X44116943Y-59567499D01*
X44014571Y-59594930D01*
X43964214Y-59608423D01*
X43827284Y-59687481D01*
X43827281Y-59687483D01*
X43715483Y-59799281D01*
X43715481Y-59799284D01*
X43636423Y-59936214D01*
X43625093Y-59978500D01*
X43595499Y-60088943D01*
X43595499Y-60088945D01*
X43595499Y-60247054D01*
X43595498Y-60247054D01*
X41094500Y-60247054D01*
X41094500Y-57982500D01*
X41114185Y-57915461D01*
X41166989Y-57869706D01*
X41218500Y-57858500D01*
X59527796Y-57858500D01*
X59594835Y-57878185D01*
G37*
%TD.AperFunction*%
%TD*%
M02*
